<svg xmlns="http://www.w3.org/2000/svg" xmlns:svg="http://www.w3.org/2000/svg" id="svg7384" width="16" height="16" version="1.1"><metadata id="metadata90"/><title id="title9167">Gnome Symbolic Icon Theme</title><g id="layer10" display="inline" transform="translate(-61,-447)"><path id="rect6806" fill="#bebebe" fill-opacity="1" stroke="none" stroke-width="1.003" d="m 64.5002,452 c -0.27614,0 -0.5,0.22386 -0.5,0.5 l 0,2.96875 c 0,1.96838 1.25801,3.62455 3,4.25 l 0,1.28125 -2,0 c -0.56475,0 -1,0.49007 -1,1 l 0,1 0.84375,0 2.15625,0 5,0 0.0937,0 0.90625,0 0,-1 c -6e-5,-0.58435 -0.47642,-0.99995 -1,-1 l -2,0 0,-1.28125 c 1.74199,-0.62545 3,-2.28162 3,-4.25 l 0,-2.96875 c 0,-0.27614 -0.22386,-0.5 -0.5,-0.5 -0.27614,0 -0.5,0.22386 -0.5,0.5 0,0.069 0.006,0.12768 0.0312,0.1875 l 0,2.78125 c 0,1.96415 -1.57895,3.53125 -3.53125,3.53125 -1.9523,0 -3.5,-1.5671 -3.5,-3.53125 l 0,-2.96875 c 0,-0.27614 -0.22386,-0.5 -0.5,-0.5 z M 68.5,447.98712 c 1.385,0 2.5,1.115 2.5,2.5 L 71,455.5 c 0,1.385 -1.115,2.5 -2.5,2.5 -1.385,0 -2.5,-1.115 -2.5,-2.5 l 0,-5.01288 c 0,-1.385 1.115,-2.5 2.5,-2.5 z" baseline-shift="baseline" color="#bebebe" direction="ltr" display="inline" enable-background="accumulate" font-family="Sans" font-size="medium" font-stretch="normal" font-style="normal" font-variant="normal" font-weight="normal" letter-spacing="normal" overflow="visible" text-anchor="start" text-decoration="none" visibility="visible" word-spacing="normal" writing-mode="lr-tb" style="text-indent:0;text-align:start;line-height:normal;text-transform:none;block-progression:tb;marker:none;-inkscape-font-specification:Sans"/></g></svg>