<svg xmlns="http://www.w3.org/2000/svg" xmlns:osb="http://www.openswatchbook.org/uri/2009/osb" xmlns:svg="http://www.w3.org/2000/svg" id="svg7384" width="16" height="16" version="1.1"><metadata id="metadata90"/><title id="title9167">Gnome Symbolic Icon Theme</title><defs id="defs7386"><linearGradient id="linearGradient19282" gradientTransform="matrix(-2.7365795,0.28202934,-0.18908311,-0.99988321,239.54008,-879.45557)" osb:paint="solid"><stop id="stop19284" offset="0" stop-color="#666" stop-opacity="1"/></linearGradient></defs><g id="layer10" display="inline" transform="translate(-261.0002,-567)"><path display="inline" style="line-height:normal;text-indent:0;text-align:start;text-decoration-line:none;text-decoration-style:solid;text-decoration-color:#000;text-transform:none;block-progression:tb;white-space:normal;isolation:auto;mix-blend-mode:normal;solid-color:#000;solid-opacity:1;marker:none" id="rect42761-1" fill="#bebebe" fill-opacity="1" fill-rule="nonzero" stroke="none" stroke-dasharray="none" stroke-dashoffset="0" stroke-linecap="butt" stroke-linejoin="miter" stroke-miterlimit="4" stroke-opacity="1" stroke-width="2" d="m 264.19571,567 c -1.20159,0 -2.19531,1.00125 -2.19531,2.20117 l 0,7.59766 c 0,1.19992 0.99372,2.20117 2.19531,2.20117 l 6.60938,0 c 1.20159,0 2.19531,-1.00125 2.19531,-2.20117 l 0,-7.59766 c 0,-1.19992 -0.99372,-2.20117 -2.19531,-2.20117 l -6.60938,0 z m 3.30469,2 c 1.92115,0 3.5,1.57885 3.5,3.5 0,1.92115 -1.57885,3.49958 -3.5,3.5 l -3.50586,0 0.006,-3.5 c -0.0237,-1.921 1.57885,-3.5 3.5,-3.5 z m 0,2 c -0.84027,0 -1.5,0.65973 -1.5,1.5 0,0.84027 0.65973,1.5 1.5,1.5 0.84027,0 1.5,-0.65973 1.5,-1.5 0,-0.84027 -0.65973,-1.5 -1.5,-1.5 z" baseline-shift="baseline" clip-rule="nonzero" color="#bebebe" color-interpolation="sRGB" color-interpolation-filters="linearRGB" color-rendering="auto" direction="ltr" enable-background="accumulate" font-family="sans-serif" font-size="medium" font-stretch="normal" font-style="normal" font-variant="normal" font-weight="normal" image-rendering="auto" letter-spacing="normal" opacity="1" overflow="visible" shape-rendering="auto" text-anchor="start" text-decoration="none" text-rendering="auto" visibility="visible" word-spacing="normal" writing-mode="lr-tb"/><path id="rect42761-1-8" fill="#bebebe" fill-opacity="1" stroke="none" stroke-width="2" d="m 274.0004,571 0,2.1875 0,6.8125 0,0.8125 c 0,0.1309 -0.0637,0.1875 -0.1875,0.1875 l -6.625,0 c -0.1238,0 -0.1875,-0.0566 -0.1875,-0.1875 l 0,-0.8125 -2,0 0,0.8125 c 0,1.19992 0.9859,2.1875 2.1875,2.1875 l 6.625,0 c 1.2016,0 2.1875,-0.98758 2.1875,-2.1875 l 0,-7.625 c 0,-1.13596 -0.88628,-2.08992 -2,-2.1875 z" baseline-shift="baseline" color="#bebebe" direction="ltr" display="inline" enable-background="accumulate" font-family="Sans" font-size="medium" font-stretch="normal" font-style="normal" font-variant="normal" font-weight="normal" letter-spacing="normal" overflow="visible" text-anchor="start" text-decoration="none" visibility="visible" word-spacing="normal" writing-mode="lr-tb" style="line-height:normal;-inkscape-font-specification:Sans;text-indent:0;text-align:start;text-decoration-line:none;text-transform:none;block-progression:tb;marker:none"/></g></svg>