<svg xmlns="http://www.w3.org/2000/svg" xmlns:svg="http://www.w3.org/2000/svg" id="svg7384" width="16" height="16" version="1.1"><metadata id="metadata90"/><title id="title9167">Gnome Symbolic Icon Theme</title><g id="layer10" transform="translate(-281,-448)"><path id="rect4144" fill="#c3c3c3" fill-opacity="1" stroke="none" stroke-dasharray="none" stroke-dashoffset="0" stroke-linecap="butt" stroke-linejoin="round" stroke-miterlimit="4" stroke-opacity="1" stroke-width="2" d="M 2 1 C 0.892 1 0 1.892 0 3 L 0 13 C 0 14.108 0.892 15 2 15 L 13 15 C 14.108 15 15 14.108 15 13 L 15 3 C 15 1.892 14.108 1 13 1 L 2 1 z M 2 3 L 13 3 L 13 10 L 2 10 L 2 3 z M 2 11 L 7 11 L 7 13 L 2 13 L 2 11 z M 8 11 L 13 11 L 13 13 L 8 13 L 8 11 z" opacity="1" transform="translate(281,448)"/></g></svg>