<svg xmlns="http://www.w3.org/2000/svg" xmlns:svg="http://www.w3.org/2000/svg" id="svg7384" width="16" height="16" version="1.1"><metadata id="metadata90"/><title id="title9167">Gnome Symbolic Icon Theme</title><g id="layer10" transform="translate(-321.0002,-447)"><path id="path3789" fill="#bebebe" fill-opacity="1" fill-rule="nonzero" stroke="none" d="m 324.15645,451 c -1.74549,0 -3.15625,1.79086 -3.15625,4 0,2.20914 1.41076,4 3.15625,4 1.74549,0 3.15625,-1.79086 3.15625,-4 0,-2.20914 -1.41076,-4 -3.15625,-4 z m -0.15625,2 1,0 0,1 1,0 0,1 -1,0 0,1 -1,0 0,-1 -1,0 0,-1 1,0 0,-1 z"/><path id="path3793" fill="#bebebe" fill-opacity="1" fill-rule="nonzero" stroke="none" d="m 333.84395,451 c -1.74549,0 -3.15625,1.79086 -3.15625,4 0,2.20914 1.41076,4 3.15625,4 1.74549,0 3.15625,-1.79086 3.15625,-4 0,-2.20914 -1.41076,-4 -3.15625,-4 z m -1.34375,1.5 c 0.55228,0 1,0.44772 1,1 0,0.55228 -0.44772,1 -1,1 -0.55228,0 -1,-0.44772 -1,-1 0,-0.55228 0.44772,-1 1,-1 z m 2,2 c 0.55228,0 1,0.44772 1,1 0,0.55228 -0.44772,1 -1,1 -0.55228,0 -1,-0.44772 -1,-1 0,-0.55228 0.44772,-1 1,-1 z"/><path id="rect3791" fill="#bebebe" fill-opacity="1" fill-rule="nonzero" stroke="none" d="m 324.0002,451 0,2 1,0 0,1 1,0 0,1 -1,0 0,1 -1,0 0,1 10,0 -0.0926,-0.61304 c -0.29201,-0.17461 -0.62963,-0.53434 -0.62963,-0.89931 0,-0.36496 0.35614,-0.78025 0.64815,-0.95486 L 334.0002,451 z m 8.5,1.5 c 0.55228,0 1,0.44772 1,1 0,0.55228 -0.44772,1 -1,1 -0.55228,0 -1,-0.44772 -1,-1 0,-0.55228 0.44772,-1 1,-1 z"/></g></svg>