<svg xmlns="http://www.w3.org/2000/svg" xmlns:svg="http://www.w3.org/2000/svg" id="svg7384" width="16" height="16" version="1.1"><metadata id="metadata90"/><title id="title9167">Gnome Symbolic Icon Theme</title><g id="layer10" display="inline" transform="translate(-241,-447)"><path d="m 244.5002,447 c 0,0 -1.5,0 -1.5,1.5 l 0,9 c 0,1.5 1.5,1.5 1.5,1.5 l 1.5,0 0,2 c 0,0.554 0.446,1 1,1 l 4,0 c 0.554,0 1,-0.446 1,-1 l 0,-2 1.5,0 c 1.5,0 1.5,-1.5 1.5,-1.5 l 0,-9 c 0,-1.5 -1.5,-1.5 -1.5,-1.5 z m 0.5,2 2,0 0,2 -2,0 z m 3,0 2,0 0,2 -2,0 z m 3,0 2,0 0,2 -2,0 z m -6,3 2,0 0,2 -2,0 z m 3,0 2,0 0,2 -2,0 z m 3,0 2,0 0,2 -2,0 z m -6,3 2,0 0,2 -2,0 z m 3,0 2,0 0,2 -2,0 z m 3,0 2,0 0,2 -2,0 z m -3,3 2,0 0,2 -2,0 z" style="marker:none" id="rect8806" fill="#bebebe" fill-opacity="1" fill-rule="nonzero" stroke="none" stroke-width="1" color="#000" display="inline" enable-background="accumulate" overflow="visible" visibility="visible"/></g></svg>