<svg xmlns="http://www.w3.org/2000/svg" xmlns:svg="http://www.w3.org/2000/svg" id="svg7384" width="16" height="16" version="1.1"><metadata id="metadata90"/><title id="title9167">Gnome Symbolic Icon Theme</title><g id="layer10" display="inline" transform="translate(-121.0002,-487)"><path id="rect3042" fill="#bebebe" fill-opacity="1" fill-rule="nonzero" stroke="none" stroke-width="2" d="m 125.5627,489 c -0.84831,0 -1.5625,0.71419 -1.5625,1.5625 l 0,8.875 c 0,0.84832 0.71417,1.5625 1.5625,1.5625 l 7.875,0 c 0.84834,0 1.5625,-0.71416 1.5625,-1.5625 l 0,-7.90625 L 132.5627,489 z m 0.4375,2 6.125,0 0.875,0.9375 0,7.0625 -7,0 z" baseline-shift="baseline" color="#bebebe" direction="ltr" display="inline" enable-background="accumulate" font-family="sans-serif" font-size="xx-small" font-stretch="normal" font-style="normal" font-variant="normal" font-weight="normal" letter-spacing="normal" overflow="visible" text-anchor="start" text-decoration="none" visibility="visible" word-spacing="normal" writing-mode="lr-tb" style="text-indent:0;text-align:start;line-height:normal;text-transform:none;block-progression:tb;marker:none;-inkscape-font-specification:sans-serif"/><path id="rect6261-6" fill="#bebebe" fill-opacity="1" fill-rule="nonzero" stroke="none" stroke-width="2" d="m 127.9377,492 c -0.51728,0 -0.9375,0.42022 -0.9375,0.9375 l 0,2.03125 c 0,0.51727 0.42022,0.9375 0.9375,0.9375 l 0.0625,0 0,-2.90625 1,0 0,2.90625 2.0625,0 c 0.51728,0 0.9375,-0.42023 0.9375,-0.9375 l 0,-2.03125 c 0,-0.51728 -0.42022,-0.9375 -0.9375,-0.9375 l -0.0625,0 0,3.03125 -1,0 0,-3.03125 -2.0625,0 z" color="#bebebe" display="inline" enable-background="accumulate" overflow="visible" visibility="visible" style="marker:none"/></g></svg>