<svg xmlns="http://www.w3.org/2000/svg" xmlns:svg="http://www.w3.org/2000/svg" id="svg7384" width="16" height="16" version="1.1"><metadata id="metadata90"/><title id="title9167">Gnome Symbolic Icon Theme</title><g id="layer10" transform="translate(-61.0002,-467)"><path id="path16980" fill="#bebebe" fill-opacity="1" stroke="none" d="m 65.468952,468 c -0.82099,0 -1.46875,0.64776 -1.46875,1.46875 l 0,11.0625 c 0,0.82099 0.64776,1.46875 1.46875,1.46875 l 7.0625,0 c 0.82099,0 1.46875,-0.64776 1.46875,-1.46875 l 0,-11.0625 c 0,-0.82099 -0.64776,-1.46875 -1.46875,-1.46875 l -7.0625,0 z m -0.46875,1 8,0 0,5 -8,0 0,-5 z m 4,6 c 1.65685,0 3,1.34315 3,3 0,1.65685 -1.34315,3 -3,3 -1.65685,0 -3,-1.34315 -3,-3 0,-1.65685 1.34315,-3 3,-3 z"/><path id="path16982" fill="#bebebe" fill-opacity="1" stroke="none" d="m -170,261 a 1,1 0 1 1 -2,0 1,1 0 1 1 2,0 z" transform="matrix(1.5,0,0,1.5,325.5002,86.5)"/></g></svg>