<svg xmlns="http://www.w3.org/2000/svg" xmlns:svg="http://www.w3.org/2000/svg" id="svg7384" width="16" height="16" version="1.1"><metadata id="metadata90"/><title id="title9167">Gnome Symbolic Icon Theme</title><g id="layer10" display="inline" transform="translate(-221,-447)"><path d="m 227.0002,448 c -1.00916,0.005 -1,1 -1,1 l 0,11 c 0,1 1,1 1,1 l 4,0 c 1,0 1,-1 1,-1 l 0,-8 c 9e-4,-0.554 -0.446,-1 -1,-1 l -3,0 0,-2 c 0,0 -0.009,-0.99447 -1,-1 z m 0,4 4,0 0,3.03125 -4,-0.0312 z m 0,4 1,0 0,1 1,0 0,-1 1,0 0,1 1,0 0,1 -1,0 0,1 1,0 0,1 -1,0 0,-1 -1,0 0,1 -1,0 0,-1 -1,0 0,-1 1,0 0,-1 -1,0 z m 1,2 0,1 1,0 0,-1 z m 1,0 1,0 0,-1 -1,0 z" style="marker:none" id="rect5222-6-8" fill="#bebebe" fill-opacity="1" fill-rule="nonzero" stroke="none" stroke-width="1" color="#000" display="inline" enable-background="accumulate" overflow="visible" visibility="visible"/></g></svg>