<svg xmlns="http://www.w3.org/2000/svg" xmlns:svg="http://www.w3.org/2000/svg" id="svg7384" width="16" height="16" version="1.1"><metadata id="metadata90"/><title id="title9167">Gnome Symbolic Icon Theme</title><g id="layer10" transform="translate(-141.0002,-467)"><path id="path11106-2" fill="#bebebe" fill-opacity="1" stroke="none" d="m 147.0002,479 0,2 -5.53125,0 c -0.26299,0 -0.46875,0.2057 -0.46875,0.4688 l 0,1.0624 c 0,0.263 0.20576,0.4688 0.46875,0.4688 4.35417,0 8.70833,0 13.0625,0 0.26299,0 0.46875,-0.2058 0.46875,-0.4688 l 0,-1.0624 c 0,-0.263 -0.20575,-0.4688 -0.46875,-0.4688 l -5.53125,0 0,-2 z" display="inline"/><path d="m 145.04707,469.125 0,5.8702 5.95313,0 0,-3.9327 -2,-1.9375 z m -2.04687,5.8858 0,3.9579 9.96875,0 0,-3.9579 -0.95312,0 -0.002,0.9802 -8.02875,0.035 0,-1.0156 z" style="marker:none" id="rect8035" fill="#bebebe" fill-opacity="1" fill-rule="nonzero" stroke="none" stroke-width="1" color="#000" display="inline" enable-background="new" overflow="visible" visibility="visible"/></g></svg>