<svg xmlns="http://www.w3.org/2000/svg" xmlns:svg="http://www.w3.org/2000/svg" id="svg7384" width="16" height="16" version="1.1"><metadata id="metadata90"/><title id="title9167">Gnome Symbolic Icon Theme</title><g id="layer10" display="inline" transform="translate(-161.0002,-447)"><path id="rect3778-2" fill="#bebebe" fill-opacity="1" stroke="none" d="m 169.0002,463 c 3,0 4,-1 4,-1 l -1,0 -6,0 -1,0 c 0,0 1,1 4,1 z"/><path id="rect4145" fill="#c3c3c3" fill-opacity="1" stroke="none" stroke-dasharray="none" stroke-dashoffset="0" stroke-linecap="butt" stroke-linejoin="round" stroke-miterlimit="4" stroke-opacity="1" stroke-width="2" d="M 2 1 C 0.89200092 1 0 1.892 0 3 L 0 12 C 0 13.108 0.89200092 14 2 14 L 14 14 C 15.107999 14 16 13.108 16 12 L 16 3 C 16 1.892 15.107999 1 14 1 L 2 1 z M 2 3 L 14 3 L 14 12 L 2 12 L 2 3 z" opacity="1" transform="translate(161.0002,447)"/></g></svg>