<svg xmlns="http://www.w3.org/2000/svg" xmlns:svg="http://www.w3.org/2000/svg" id="svg7384" width="16" height="16" version="1.1"><metadata id="metadata90"/><title id="title9167">Gnome Symbolic Icon Theme</title><g id="layer13" transform="translate(-482,-176)"><path id="path3028" fill="#bebebe" fill-opacity="1" fill-rule="nonzero" stroke="none" stroke-width="1" d="M 2 0 L 2 12 L 3 12 L 3 11 L 4 11 L 4 12 L 5 12 L 5 11 L 6 11 L 6 12 L 7 12 L 7 11 L 8 11 L 8 12 L 9 12 L 9 11 L 10 11 L 10 12 L 11 12 L 11 11 L 12 11 L 12 12 L 13 12 L 13 11 L 14 11 L 14 5 L 9 0 L 2 0 z M 13 12 L 13 13 L 14 13 L 14 12 L 13 12 z M 13 13 L 12 13 L 12 14 L 13 14 L 13 13 z M 13 14 L 13 15 L 14 15 L 14 14 L 13 14 z M 13 15 L 12 15 L 12 16 L 13 16 L 13 15 z M 12 15 L 12 14 L 11 14 L 11 15 L 12 15 z M 11 15 L 10 15 L 10 16 L 11 16 L 11 15 z M 10 15 L 10 14 L 9 14 L 9 15 L 10 15 z M 9 15 L 8 15 L 8 16 L 9 16 L 9 15 z M 8 15 L 8 14 L 7 14 L 7 15 L 8 15 z M 7 15 L 6 15 L 6 16 L 7 16 L 7 15 z M 6 15 L 6 14 L 5 14 L 5 15 L 6 15 z M 5 15 L 4 15 L 4 16 L 5 16 L 5 15 z M 4 15 L 4 14 L 3 14 L 3 15 L 4 15 z M 3 15 L 2 15 L 2 16 L 3 16 L 3 15 z M 3 14 L 3 13 L 2 13 L 2 14 L 3 14 z M 3 13 L 4 13 L 4 12 L 3 12 L 3 13 z M 4 13 L 4 14 L 5 14 L 5 13 L 4 13 z M 5 13 L 6 13 L 6 12 L 5 12 L 5 13 z M 6 13 L 6 14 L 7 14 L 7 13 L 6 13 z M 7 13 L 8 13 L 8 12 L 7 12 L 7 13 z M 8 13 L 8 14 L 9 14 L 9 13 L 8 13 z M 9 13 L 10 13 L 10 12 L 9 12 L 9 13 z M 10 13 L 10 14 L 11 14 L 11 13 L 10 13 z M 11 13 L 12 13 L 12 12 L 11 12 L 11 13 z M 9 1.4140625 L 12.585938 5 L 9 5 L 9 1.4140625 z" color="#000" display="inline" enable-background="accumulate" overflow="visible" transform="translate(482,176)" visibility="visible" style="marker:none"/></g></svg>