<svg xmlns="http://www.w3.org/2000/svg" xmlns:osb="http://www.openswatchbook.org/uri/2009/osb" xmlns:svg="http://www.w3.org/2000/svg" id="svg2" width="16" height="16" display="inline" version="1.0"><defs id="defs4"><linearGradient id="linearGradient5606" osb:paint="solid"><stop id="stop5608" offset="0" stop-color="#000" stop-opacity="1"/></linearGradient><filter id="filter7554" color-interpolation-filters="sRGB"><feBlend id="feBlend7556" in2="BackgroundImage" mode="darken"/></filter></defs><metadata id="metadata7"/><g id="layer1" display="inline"><path id="path3028" fill="#bebebe" fill-opacity="1" stroke="none" d="M 2,1 C 1.446,1 1.5540001,2 1,2 L 1,2 1,3 15,3 C 15,2.446 14.554,2 14,2 L 7,2 C 7,1.446 6.554,1 6,1 Z" display="inline"/><path id="path3040" fill="#bebebe" fill-opacity="1" stroke="none" d="M 1.5,4 C 0.669,4 0,4.6192276 0,5.3886719 L 0,12.611328 C 0,13.380773 0.669,14 1.5,14 l 13,0 C 15.331,14 16,13.380773 16,12.611328 L 16,5.3886719 C 16,4.6192276 15.331,4 14.5,4 Z M 8,7 c 1.30915,0 2.48761,0.46868 3.46875,1.1875 L 8,12 4.53125,8.21875 C 5.51619,7.4918501 6.68073,7 8,7 Z" display="inline"/></g></svg>