<svg xmlns="http://www.w3.org/2000/svg" xmlns:svg="http://www.w3.org/2000/svg" id="Layer_1" width="16" height="16" enable-background="new 0 0 32 32" version="1.1" viewBox="0 0 16 16" xml:space="preserve"><metadata id="metadata12"/><path id="rect3833" fill="#bebebe" fill-opacity="1" stroke="none" d="M 4 0 C 2.892 0 2 0.892 2 2 L 2 14 C 2 15.108 2.892 16 4 16 L 12 16 C 13.108 16 14 15.108 14 14 L 14 2 C 14 0.892 13.108 0 12 0 L 4 0 z M 4 2 L 12 2 L 12 4 L 4 4 L 4 2 z M 4 6 L 12 6 L 12 8 L 4 8 L 4 6 z M 4 10 L 12 10 L 12 12 L 4 12 L 4 10 z M 8 13 C 8.5522847 13 9 13.447715 9 14 C 9 14.552285 8.5522847 15 8 15 C 7.4477153 15 7 14.552285 7 14 C 7 13.447715 7.4477153 13 8 13 z"/></svg>