<svg xmlns="http://www.w3.org/2000/svg" xmlns:svg="http://www.w3.org/2000/svg" id="svg7384" width="16" height="16" version="1.1"><metadata id="metadata90"/><title id="title9167">Gnome Symbolic Icon Theme</title><g id="layer13" transform="translate(-482,-176)"><path id="rect4149" fill="#bebebe" fill-opacity="1" stroke="none" stroke-dasharray="none" stroke-dashoffset="0" stroke-linecap="butt" stroke-linejoin="round" stroke-miterlimit="4" stroke-opacity="1" stroke-width="2" d="M 2 2 C 1.446 2 1 2.446 1 3 L 1 13 C 1 13.554 1.446 14 2 14 L 14 14 C 14.554 14 15 13.554 15 13 L 15 3 C 15 2.446 14.554 2 14 2 L 2 2 z M 3 3 L 13 3 C 13.554 3 14 3.223 14 3.5 C 14 3.777 13.554 4 13 4 L 3 4 C 2.446 4 2 3.777 2 3.5 C 2 3.223 2.446 3 3 3 z" opacity="1" transform="translate(482,176)"/></g></svg>