<svg xmlns="http://www.w3.org/2000/svg" xmlns:svg="http://www.w3.org/2000/svg" id="svg7384" width="16" height="16" version="1.1"><metadata id="metadata90"/><title id="title9167">Gnome Symbolic Icon Theme</title><g id="layer13" transform="translate(-482,-176)"><path id="rect4192" fill="#bebebe" fill-opacity="1" stroke="none" stroke-dasharray="none" stroke-dashoffset="0" stroke-linecap="butt" stroke-linejoin="round" stroke-miterlimit="4" stroke-opacity="1" stroke-width="2" d="M 5 0 L 5 1 L 2 1 C 1.446 1 1 1.446 1 2 L 1 3 L 15 3 L 15 2 C 15 1.446 14.554 1 14 1 L 11 1 L 11 0 L 5 0 z M 2 4 L 2 5 L 2 6 L 2 14 C 2 14.554 2.446 15 3 15 L 13 15 C 13.554 15 14 14.554 14 14 L 14 6 L 14 5 L 14 4 L 13 4 L 12 4 L 12 13 L 4 13 L 4 4 L 3 4 L 2 4 z" opacity="1" transform="translate(482,176)"/></g></svg>