<svg xmlns="http://www.w3.org/2000/svg" xmlns:osb="http://www.openswatchbook.org/uri/2009/osb" xmlns:svg="http://www.w3.org/2000/svg" id="svg2" width="16" height="16" enable-background="new" version="1.1"><metadata id="metadata90"/><defs id="defs7386"><linearGradient id="linearGradient5606" osb:paint="solid"><stop id="stop5608"/></linearGradient></defs><g id="layer9" transform="translate(-461.0002,143)"><path id="path6324" fill="#bebebe" fill-opacity="1" stroke-width="2" d="m 468.99999,-140 c -3.31371,0 -6,2.68629 -6,6 0,3.31371 2.68629,6 6,6 3.31371,0 6,-2.68629 6,-6 0,-3.31371 -2.68629,-6 -6,-6 z m 0,2 c 2.20914,0 4,1.79086 4,4 0,2.20914 -1.79086,4 -4,4 -2.20914,0 -4,-1.79086 -4,-4 0,-2.20914 1.79086,-4 4,-4 z m 1.96875,1.53125 c -0.0964,0.0256 -0.18476,0.0808 -0.25,0.15625 l -1.65625,1.65625 -1.15625,-1.15625 c -0.15717,-0.25698 -0.56824,-0.30673 -0.78125,-0.0937 -0.21301,0.21299 -0.16326,0.62406 0.0937,0.78125 l 1.5,1.5 c 0.1835,0.17369 0.504,0.17369 0.6875,0 l 2,-2 c 0.29287,-0.29845 -0.0248,-0.91114 -0.4375,-0.84375 z" color="#000"/><path id="path6347" fill="#bebebe" fill-opacity="1" stroke-width="2" d="m 466,-142 c -1.65685,0 -3,1.34315 -3,3 0,0.3797 0.0901,0.72814 0.21875,1.0625 1.12852,-1.64797 2.94185,-2.80968 5.03125,-3.03125 C 467.70011,-141.59675 466.90031,-142 466,-142 z" color="#000"/><path id="path6349" fill="#bebebe" fill-opacity="1" stroke-width="2" d="m 472,-142 c -0.90031,0 -1.70011,0.40325 -2.25,1.03125 2.0894,0.22157 3.90273,1.38328 5.03125,3.03125 C 474.90994,-138.27186 475,-138.6203 475,-139 c 0,-1.65685 -1.34315,-3 -3,-3 z" color="#000"/><path id="path6386" fill="#bebebe" fill-opacity="1" stroke-width="2" d="m 465.57227,-129.62109 -0.5,1.25 0.01,0.004 c -0.0502,0.11572 -0.0801,0.23968 -0.0801,0.36719 0,0.52354 0.47478,0.99997 0.99805,1 0.39583,2e-5 0.76363,-0.27338 0.91992,-0.63281 l 0.008,0.004 0.5,-1.25 -1.85546,-0.74218 z" color="#000"/><path id="path6388" fill="#bebebe" fill-opacity="1" stroke-width="2" d="m 472.42773,-129.62109 -1.85546,0.74218 0.5,1.25 0.01,-0.004 c 0.15604,0.3594 0.52214,0.63279 0.91797,0.63281 0.52327,3e-5 1,-0.4764 1,-1 0,-0.12752 -0.0298,-0.25147 -0.0801,-0.36719 l 0.008,-0.004 -0.5,-1.25 z" color="#000"/></g></svg>