<svg xmlns="http://www.w3.org/2000/svg" xmlns:svg="http://www.w3.org/2000/svg" id="svg7384" width="16" height="16" version="1.1"><metadata id="metadata90"/><title id="title9167">Gnome Symbolic Icon Theme</title><g id="layer9" display="inline" transform="translate(-161.0002,-397)"><path id="path3869-25" fill="#bebebe" fill-opacity="1" stroke="none" stroke-width="2.545" d="m 167.5002,397 c -3.578,0 -6.5,2.92199 -6.5,6.5 0,3.57801 2.922,6.5 6.5,6.5 0.1705,0 0.33269,-0.0182 0.5,-0.0312 l 0,-2.03125 c -0.16732,0.0186 -0.32741,0.0625 -0.5,0.0625 -2.49712,0 -4.5,-2.00288 -4.5,-4.5 0,-2.49712 2.00288,-4.5 4.5,-4.5 2.49712,0 4.5,2.00288 4.5,4.5 0,0.1726 -0.0439,0.33268 -0.0625,0.5 l 2.03125,0 c 0.013,-0.16731 0.0312,-0.3295 0.0312,-0.5 0,-3.57801 -2.922,-6.5 -6.5,-6.5 z" baseline-shift="baseline" color="#000" direction="ltr" display="inline" enable-background="accumulate" font-family="Sans" font-size="medium" font-stretch="normal" font-style="normal" font-variant="normal" font-weight="normal" letter-spacing="normal" overflow="visible" text-anchor="start" text-decoration="none" visibility="visible" word-spacing="normal" writing-mode="lr-tb" style="text-indent:0;text-align:start;line-height:normal;text-transform:none;block-progression:tb;marker:none;-inkscape-font-specification:Sans"/><path id="path4639-4" fill="#bebebe" fill-opacity="1" stroke="none" stroke-width="1" d="M 167.40625,400 A 0.50005,0.50005 0 0 0 167,400.5 l 0,2.5 -1.5,0 a 0.50005,0.50005 0 1 0 0,1 l 2,0 a 0.50005,0.50005 0 0 0 0.5,-0.5 l 0,-3 a 0.50005,0.50005 0 0 0 -0.59375,-0.5 z" baseline-shift="baseline" color="#000" direction="ltr" display="inline" enable-background="accumulate" font-family="Sans" font-size="medium" font-stretch="normal" font-style="normal" font-variant="normal" font-weight="normal" letter-spacing="normal" overflow="visible" text-anchor="start" text-decoration="none" visibility="visible" word-spacing="normal" writing-mode="lr-tb" style="text-indent:0;text-align:start;line-height:normal;text-transform:none;block-progression:tb;marker:none;-inkscape-font-specification:Sans"/><path id="path10898-2-9-4" fill="#f57900" fill-opacity="1" fill-rule="nonzero" stroke="none" stroke-width="2" d="m 169.8752,405.06918 c -0.49245,0 -0.875,0.37924 -0.875,0.8674 l 0,6.19571 c 0,0.48816 0.38255,0.8674 0.875,0.8674 l 6.25,0 c 0.49245,0 0.875,-0.37924 0.875,-0.8674 l 0,-6.19571 c 0,-0.48816 -0.38255,-0.8674 -0.875,-0.8674 l -6.25,0 z m 2.125,0.99131 2,0 0,3.96526 -2,0 0,-3.96526 z m 0,4.95657 2,0 0,0.99132 -2,0 0,-0.99132 z" class="warning" color="#bebebe" display="inline" overflow="visible" visibility="visible" style="marker:none"/></g></svg>