<svg xmlns="http://www.w3.org/2000/svg" xmlns:svg="http://www.w3.org/2000/svg" id="svg7384" width="16" height="16" version="1.1"><metadata id="metadata90"/><title id="title9167">Gnome Symbolic Icon Theme</title><g id="layer9" display="inline" transform="translate(-221.0002,-397)"><path id="path4639-4-4-7" fill="#bebebe" fill-opacity="1" stroke="none" stroke-width="1" d="M 227.40625,402 A 0.50005,0.50005 0 0 0 227,402.5 l 0,2.5 -1.5,0 a 0.50005,0.50005 0 1 0 0,1 l 2,0 a 0.50005,0.50005 0 0 0 0.5,-0.5 l 0,-3 a 0.50005,0.50005 0 0 0 -0.59375,-0.5 z" baseline-shift="baseline" color="#000" direction="ltr" display="inline" enable-background="accumulate" font-family="Sans" font-size="medium" font-stretch="normal" font-style="normal" font-variant="normal" font-weight="normal" letter-spacing="normal" overflow="visible" text-anchor="start" text-decoration="none" visibility="visible" word-spacing="normal" writing-mode="lr-tb" style="text-indent:0;text-align:start;line-height:normal;text-transform:none;block-progression:tb;marker:none;-inkscape-font-specification:Sans"/><path d="m 231.99995,408 1.375,0 1.125,1.09375 1.09375,-1.09375 1.40625,0 0,1.46875 -1.09375,1.0625 1.09375,1.0625 0,1.40625 -1.4375,0 -1.0625,-1.0625 -1.0625,1.0625 -1.4375,0 0,-1.40625 1.0625,-1.0625 -1.0625,-1.0625 0,-1.46875 z" style="marker:none" id="path3761-2-3-5-4-8-9-8-0-1-6" fill="#bebebe" fill-opacity="1" stroke="none" stroke-width="2" color="#bebebe" display="inline" overflow="visible" visibility="visible"/><path id="path3869-9" fill="#bebebe" fill-opacity="1" stroke="none" stroke-width="2.545" d="m 227.5002,399 c -3.57801,0 -6.5,2.92199 -6.5,6.5 0,3.57801 2.92199,6.5 6.5,6.5 1.29116,0 2.48506,-0.37561 3.5,-1.03125 l 0,-2.65625 c -0.82069,1.02721 -2.071,1.6875 -3.5,1.6875 -2.49713,0 -4.5,-2.00287 -4.5,-4.5 0,-2.49712 2.00287,-4.5 4.5,-4.5 2.49712,0 4.5,2.00288 4.5,4.5 0,0.53296 -0.11393,1.02721 -0.28125,1.5 l 2.09375,0 c 0.11483,-0.48186 0.1875,-0.98435 0.1875,-1.5 0,-3.57801 -2.922,-6.5 -6.5,-6.5 z" baseline-shift="baseline" color="#000" direction="ltr" display="inline" enable-background="accumulate" font-family="Sans" font-size="xx-small" font-stretch="normal" font-style="normal" font-variant="normal" font-weight="normal" letter-spacing="normal" overflow="visible" text-anchor="start" text-decoration="none" visibility="visible" word-spacing="normal" writing-mode="lr-tb" style="text-indent:0;text-align:start;line-height:normal;text-transform:none;block-progression:tb;marker:none;-inkscape-font-specification:Sans"/></g></svg>