<svg xmlns="http://www.w3.org/2000/svg" xmlns:svg="http://www.w3.org/2000/svg" id="svg2" width="16" height="16" display="inline" version="1.0"><metadata id="metadata7"/><g id="layer1" display="inline" transform="translate(0,-6)"><path id="path3000" fill="#ed4737" fill-opacity="1" fill-rule="nonzero" stroke="none" stroke-width="8" d="M 6.5,7 C 6.223,7 6,7.223 6,7.5 L 6,8 4,8 C 3.446,8 3,8.446 3,9 l 0,11 c 0,0.554 0.446,1 1,1 l 8,0 c 0.554,0 1,-0.446 1,-1 L 13,9 C 13,8.446 12.554,8 12,8 L 10,8 10,7.5 C 10,7.223 9.777,7 9.5,7 z" color="#000" display="inline" enable-background="accumulate" opacity=".45" overflow="visible" visibility="visible" style="marker:none"/><path id="path3002" fill="#ed4737" fill-opacity="1" fill-rule="nonzero" stroke="none" stroke-width="8" d="m 3,17 0,3 c 0,0.554 0.446,1 1,1 l 8,0 c 0.554,0 1,-0.446 1,-1 l 0,-3 z" class="error" color="#000" display="inline" enable-background="accumulate" overflow="visible" visibility="visible" style="marker:none"/></g></svg>