<svg xmlns="http://www.w3.org/2000/svg" xmlns:svg="http://www.w3.org/2000/svg" id="svg2" width="16" height="16" display="inline" version="1.0"><metadata id="metadata7"/><g id="layer1" display="inline" transform="translate(0,-6)"><path id="path3000" fill="#bebebe" fill-opacity="1" fill-rule="nonzero" stroke="none" stroke-width="8" d="M 6.5 1 C 6.223 1 6 1.223 6 1.5 L 6 2 L 4 2 C 3.446 2 3 2.446 3 3 L 3 14 C 3 14.554 3.446 15 4 15 L 12 15 C 12.554 15 13 14.554 13 14 L 13 3 C 13 2.446 12.554 2 12 2 L 10 2 L 10 1.5 C 10 1.223 9.777 1 9.5 1 L 6.5 1 z M 7 4 L 11 10 L 8.53125 10 L 9 14 L 5 8 L 7.5 8 L 7 4 z" color="#000" display="inline" enable-background="accumulate" opacity=".45" overflow="visible" transform="translate(0,6)" visibility="visible" style="marker:none"/><path id="path3002" fill="#bebebe" fill-opacity="1" fill-rule="nonzero" stroke="none" stroke-width="8" d="M 3 11 L 3 14 C 3 14.554 3.446 15 4 15 L 12 15 C 12.554 15 13 14.554 13 14 L 13 11 L 8.65625 11 L 9 14 L 7 11 L 3 11 z" color="#000" display="inline" enable-background="accumulate" overflow="visible" transform="translate(0,6)" visibility="visible" style="marker:none"/></g></svg>