<svg xmlns="http://www.w3.org/2000/svg" xmlns:svg="http://www.w3.org/2000/svg" id="svg7384" width="16" height="16" version="1.1"><metadata id="metadata90"/><title id="title9167">Gnome Symbolic Icon Theme</title><g id="layer9" display="inline" transform="translate(-101.0002,-397)"><path id="rect4063-6-6" fill="#bebebe" fill-opacity="1" fill-rule="nonzero" stroke="none" stroke-width="2" d="m 106.0002,397 c -1.64469,0 -3,1.35529 -3,3 l 0,3 2,0 0,-3 c 0,-0.57129 0.42873,-1 1,-1 l 2,0 c 0.57127,0 1,0.42871 1,1 l 0,0.25 c 0.26687,-0.14912 0.55674,-0.25 0.875,-0.25 l 1.125,0 c 0,-1.64471 -1.35531,-3 -3,-3 z m -3.0625,9 c -0.554,0 -1.06473,0.44979 -1,1 l 0,0.53125 0,4.46875 10.0625,0 0,-2 -2.125,0 c -1.01035,0 -1.875,-0.86466 -1.875,-1.875 l 0,-2.125 z" color="#bebebe" display="inline" overflow="visible" visibility="visible" style="marker:none"/><path id="path10898-3-1" fill="#f57900" fill-opacity="1" fill-rule="nonzero" stroke="none" stroke-width="2" d="m 109.875,401 c -0.49245,0 -0.875,0.38256 -0.875,0.875 l 0,6.25 c 0,0.49244 0.38255,0.875 0.875,0.875 l 6.25,0 c 0.49245,0 0.875,-0.38256 0.875,-0.875 l 0,-6.25 C 117,401.38256 116.61745,401 116.125,401 l -6.25,0 z m 2.125,1 2,0 0,4 -2,0 0,-4 z m 0,5 2,0 0,1 -2,0 0,-1 z" style="marker:none" class="warning" color="#bebebe" display="inline" overflow="visible" visibility="visible"/></g></svg>