<svg xmlns="http://www.w3.org/2000/svg" xmlns:svg="http://www.w3.org/2000/svg" id="svg7384" width="16" height="16" version="1.1"><metadata id="metadata90"/><title id="title9167">Gnome Symbolic Icon Theme</title><g id="layer9" display="inline" transform="translate(-401.00015,-317)"><path id="rect9618" fill="#bebebe" fill-opacity="1" stroke="none" stroke-width=".996" d="m 404.4375,318 c -1.37299,0 -2.5,1.1012 -2.5,2.46875 l 0,9.0625 c 0,1.36755 1.12701,2.46875 2.5,2.46875 l 9.125,0 c 1.37299,0 2.5,-1.1012 2.5,-2.46875 l 0,-9.0625 c 0,-1.36755 -1.12701,-2.46875 -2.5,-2.46875 l -9.125,0 z m 0,1 9.125,0 c 0.84376,0 1.5,0.64066 1.5,1.46875 l 0,9.0625 c 0,0.82809 -0.65624,1.46875 -1.5,1.46875 l -9.125,0 c -0.84376,0 -1.5,-0.64066 -1.5,-1.46875 l 0,-9.0625 c 0,-0.82809 0.65624,-1.46875 1.5,-1.46875 z" baseline-shift="baseline" color="#000" direction="ltr" display="inline" enable-background="accumulate" font-family="Sans" font-size="medium" font-stretch="normal" font-style="normal" font-variant="normal" font-weight="normal" letter-spacing="normal" overflow="visible" text-anchor="start" text-decoration="none" visibility="visible" word-spacing="normal" writing-mode="lr-tb" style="text-indent:0;text-align:start;line-height:normal;text-transform:none;block-progression:tb;marker:none;-inkscape-font-specification:Sans"/></g></svg>