<svg xmlns="http://www.w3.org/2000/svg" xmlns:svg="http://www.w3.org/2000/svg" id="svg7384" width="16" height="16" version="1.1"><metadata id="metadata90"/><title id="title9167">Gnome Symbolic Icon Theme</title><g id="layer9" display="inline" transform="translate(-401.00015,-337)"><path id="rect9618-8" fill="#bebebe" fill-opacity="1" stroke="none" stroke-width=".991" d="M 404.46875,338 C 403.10458,338 402,339.10458 402,340.46875 l 0,9.0625 c 0,1.36417 1.10458,2.46875 2.46875,2.46875 l 9.0625,0 C 414.89542,352 416,350.89542 416,349.53125 l 0,-9.0625 C 416,339.10458 414.89542,338 413.53125,338 l -9.0625,0 z m 0,1 9.0625,0 c 0.83222,0 1.46875,0.63653 1.46875,1.46875 l 0,9.0625 C 415,350.36347 414.36347,351 413.53125,351 l -9.0625,0 C 403.63653,351 403,350.36347 403,349.53125 l 0,-9.0625 C 403,339.63653 403.63653,339 404.46875,339 z" baseline-shift="baseline" color="#000" direction="ltr" display="inline" enable-background="accumulate" font-family="Sans" font-size="medium" font-stretch="normal" font-style="normal" font-variant="normal" font-weight="normal" letter-spacing="normal" overflow="visible" text-anchor="start" text-decoration="none" visibility="visible" word-spacing="normal" writing-mode="lr-tb" style="text-indent:0;text-align:start;line-height:normal;text-transform:none;block-progression:tb;marker:none;-inkscape-font-specification:Sans"/><path id="path8913-6-7-1-5-1" fill="#bebebe" fill-opacity="1" stroke="none" stroke-width="3" d="m 415.17698,339.82322 -5.67683,5.55178 -1.9375,-1.9375 -2.125,2.125 3,3 1.0625,1.0625 1.0625,-1.0625 4.61433,-4.73928 z" baseline-shift="baseline" color="#000" direction="ltr" display="inline" enable-background="accumulate" font-family="Sans" font-size="medium" font-stretch="normal" font-style="normal" font-variant="normal" font-weight="normal" letter-spacing="normal" overflow="visible" text-anchor="start" text-decoration="none" visibility="visible" word-spacing="normal" writing-mode="lr-tb" style="text-indent:0;text-align:start;line-height:normal;text-transform:none;block-progression:tb;marker:none;-inkscape-font-specification:Sans"/></g></svg>