<svg xmlns="http://www.w3.org/2000/svg" xmlns:svg="http://www.w3.org/2000/svg" xmlns:xlink="http://www.w3.org/1999/xlink" id="svg2" width="16" height="16" version="1.0"><defs id="defs4"><linearGradient id="linearGradient3747" x1="45.79" x2="45.79" y1="78.067" y2="17.246" gradientTransform="matrix(0.24242424,0,0,0.24242462,-0.636364,1.878782)" gradientUnits="userSpaceOnUse" xlink:href="#linearGradient3731"/><linearGradient id="linearGradient3731"><stop id="stop3733" offset="0" stop-color="#dcdcdc" stop-opacity="1"/><stop id="stop3757" offset=".307" stop-color="#ebebeb" stop-opacity="1"/><stop id="stop3737" offset=".707" stop-color="#fff" stop-opacity="1"/><stop id="stop3759" offset=".845" stop-color="#fafafa" stop-opacity="1"/><stop id="stop3735" offset="1" stop-color="#f0f0f0" stop-opacity="1"/></linearGradient><linearGradient id="linearGradient3856" x1="45.79" x2="45.79" y1="78.067" y2="17.246" gradientTransform="matrix(0.24242424,0,0,0.24242462,-0.636364,1.878782)" gradientUnits="userSpaceOnUse" xlink:href="#linearGradient3731-5"/><linearGradient id="linearGradient3731-5"><stop id="stop3733-9" offset="0" stop-color="#dcdcdc" stop-opacity="1"/><stop id="stop3757-4" offset=".307" stop-color="#ebebeb" stop-opacity="1"/><stop id="stop3737-9" offset=".707" stop-color="#fff" stop-opacity="1"/><stop id="stop3759-0" offset=".845" stop-color="#fafafa" stop-opacity="1"/><stop id="stop3735-9" offset="1" stop-color="#f0f0f0" stop-opacity="1"/></linearGradient></defs><metadata id="metadata7"/><g id="layer3" display="inline" transform="translate(-0.4642613,-2.999982)"><path id="path3620-1" fill="#bebebe" fill-opacity="1" stroke="none" d="m 8.464261,3.999982 c -4.4182777,0 -7.9999997,2.91629 -7.9999997,6.53125 0,2.302655 1.459222,4.333261 3.65625,5.5 -0.08355,0.608184 -0.480102,2.115864 -2.28125,2.625 2.332827,0.253533 3.89629,-0.891527 4.71875,-1.75 0.6117587,0.122546 1.2483267,0.1875 1.9062497,0.1875 4.418278,0 8,-2.94754 8,-6.5625 0,-3.61496 -3.581722,-6.53125 -8,-6.53125 z m 0.15625,1.9375 c 0.307436,-0.026412 0.578538,0.063643 0.8125,0.25 0.237753,0.1860486 0.381456,0.4302987 0.40625,0.71875 0.02479,0.288469 -0.07873,0.5261296 -0.28125,0.75 -0.199059,0.2197627 -0.442564,0.348586 -0.75,0.375 -0.30744,0.02643 -0.575073,-0.036499 -0.8125,-0.21875 -0.237757,-0.1860322 -0.38146,-0.4302812 -0.40625,-0.71875 -0.02479,-0.2884516 0.07872,-0.5573632 0.28125,-0.78125 0.202525,-0.2238694 0.44256,-0.348569 0.75,-0.375 z m -0.78125,3.125 c 0.451665,-0.03881 0.831913,0.05074 1.09375,0.25 0.2653,0.195148 0.407417,0.463317 0.4375,0.8125 0.0062,0.07212 0.0033,0.191186 0,0.375 4.8e-4,0.183494 -0.03001,0.375519 -0.0625,0.53125 l -0.3125,1.6875 c -0.02654,0.136106 -0.04682,0.295343 -0.0625,0.46875 -0.01565,0.17341 -0.03875,0.2877 -0.03125,0.375 0.01892,0.220144 0.08196,0.36627 0.1875,0.4375 0.105531,0.07121 0.288333,0.11463 0.53125,0.09375 0.113863,-0.0098 0.265279,-0.0434 0.40625,-0.09375 0.140638,-0.05415 0.21933,-0.08909 0.28125,-0.125 l -0.0625,0.5 c -0.36304,0.180318 -0.65759,0.31109 -0.875,0.40625 -0.217089,0.09895 -0.4852,0.16206 -0.78125,0.1875 -0.455465,0.03914 -0.820531,-0.02046 -1.09375,-0.21875 -0.269751,-0.202407 -0.40814,-0.470901 -0.4375,-0.8125 -0.0115,-0.132843 -0.0072,-0.267977 0,-0.40625 0.0069,-0.142061 0.0045,-0.321816 0.03125,-0.5 l 0.3125,-1.6875 c 0.02805,-0.162996 0.048,-0.326027 0.0625,-0.46875 0.01795,-0.146834 0.04136,-0.257333 0.03125,-0.375 -0.01827,-0.212544 -0.09303,-0.3615 -0.1875,-0.4375 -0.09447,-0.07599 -0.253292,-0.114947 -0.4999997,-0.09375 -0.121458,0.01044 -0.249214,0.04471 -0.375,0.09375 -0.12199,0.04873 -0.22434,0.08302 -0.3125,0.125 l 0.09375,-0.5 C 6.5109353,9.535813 6.7846443,9.392668 7.058011,9.281232 7.331051,9.166005 7.588754,9.084017 7.839261,9.062482 z" display="inline"/></g></svg>