<svg xmlns="http://www.w3.org/2000/svg" xmlns:svg="http://www.w3.org/2000/svg" xmlns:xlink="http://www.w3.org/1999/xlink" id="svg2" width="16" height="16" display="inline" version="1.0"><defs id="defs4"><linearGradient id="linearGradient3829" x1="54" x2="59" y1="3.5" y2="3.5" gradientTransform="translate(-45,53)" gradientUnits="userSpaceOnUse" xlink:href="#SpecificGradient"/><linearGradient id="SpecificGradient" x1="10.762" x2="10.762" y1="4" y2="18.011" gradientUnits="userSpaceOnUse"><stop id="stop3292" offset="0" stop-color="#a50000" stop-opacity="1"/><stop id="stop3294" offset="1" stop-color="#e73800" stop-opacity="1"/></linearGradient><linearGradient id="linearGradient3833" x1="54" x2="59" y1="3.5" y2="3.5" gradientTransform="translate(-53,53)" gradientUnits="userSpaceOnUse" xlink:href="#StandardGradient"/><linearGradient id="StandardGradient" x1="10.71" x2="10.71" y1="1.996" y2="18.974" gradientTransform="matrix(0.9984539,0,0,0.9984539,-0.0459776,0.05767558)" gradientUnits="userSpaceOnUse"><stop id="stop3277" offset="0" stop-color="#000" stop-opacity=".863"/><stop id="stop3279" offset="1" stop-color="#000" stop-opacity=".471"/></linearGradient></defs><metadata id="metadata7"/><g id="layer1" display="inline" transform="translate(0,-6)"><rect id="rect3825" width="5" height="5" x="1" y="54" fill="url(#linearGradient3833)" fill-opacity="1" stroke="none" display="inline" transform="matrix(0,1,1,0,0,0)"/><rect id="rect3808" width="5" height="5" x="9" y="54" fill="url(#linearGradient3829)" fill-opacity="1" stroke="none" display="inline" transform="matrix(0,1,1,0,0,0)"/><path id="path3745" fill="#bebebe" fill-opacity="1" fill-rule="nonzero" stroke="none" stroke-width="1" d="m 8,6 c -2.209139,0 -4,1.790861 -4,4 0,1.479209 0.8062088,2.745415 2,3.4375 L 6,20 l 2,2 2,-2 0,-1 -1,-1 1,-1 0,0 -1,-1 1,-1 0,-1.5625 C 11.193791,12.745415 12,11.479209 12,10 12,7.790861 10.209139,6 8,6 z M 8,8 C 8.552285,8 9,8.4477153 9,9 9,9.5522847 8.552285,10 8,10 7.447715,10 7,9.5522847 7,9 7,8.4477153 7.447715,8 8,8 z" color="#000" display="inline" enable-background="accumulate" opacity="1" overflow="visible" visibility="visible" style="marker:none"/></g></svg>