<svg xmlns="http://www.w3.org/2000/svg" xmlns:svg="http://www.w3.org/2000/svg" id="svg2" width="16" height="16" version="1.0"><metadata id="metadata7"/><g id="layer3" display="inline" transform="translate(-0.4642613,-2.999982)"><path id="path3620" fill="#ff9000" fill-opacity="1" stroke="none" d="m 8.464261,3.999982 c -4.4182777,0 -7.9999997,2.91629 -7.9999997,6.53125 0,2.302655 1.459222,4.333261 3.65625,5.5 -0.08355,0.608184 -0.480102,2.115864 -2.28125,2.625 2.332827,0.253533 3.89629,-0.891527 4.71875,-1.75 0.6117587,0.122546 1.2483267,0.1875 1.9062497,0.1875 4.418278,0 8,-2.94754 8,-6.5625 0,-3.61496 -3.581722,-6.53125 -8,-6.53125 z m 0,2 c 0.554,0 1,0.446 1,1 l 0,4 c 0,0.554 -0.446,1 -1,1 -0.554,0 -1,-0.446 -1,-1 l 0,-4 c 0,-0.554 0.446,-1 1,-1 z m 0,7 c 0.552285,0 1,0.447715 1,1 0,0.552285 -0.447715,1 -1,1 -0.552285,0 -1,-0.447715 -1,-1 0,-0.552285 0.447715,-1 1,-1 z" class="warning" display="inline"/></g></svg>