<svg xmlns="http://www.w3.org/2000/svg" xmlns:svg="http://www.w3.org/2000/svg" id="svg2" width="16" height="16" display="inline" version="1.0"><metadata id="metadata7"/><g id="layer1" display="inline" transform="translate(0,-6)"><path id="path3085" fill="#bebebe" fill-opacity="1" fill-rule="nonzero" stroke="none" stroke-width="1.5" d="m -12,6 -1,3 2,0 -1,-3 z m -5.65625,2.34375 1.40625,2.8125 1.40625,-1.40625 -2.8125,-1.40625 z m 11.3125,0 L -9.15625,9.75 -7.75,11.15625 -6.34375,8.34375 z M -12,10 c -2.209139,0 -4,1.790861 -4,4 0,2.209139 1.790861,4 4,4 2.209139,0 4,-1.790861 4,-4 0,-2.209139 -1.790861,-4 -4,-4 z m 0,1.5 c 1.380712,0 2.5,1.119288 2.5,2.5 0,1.380712 -1.119288,2.5 -2.5,2.5 -1.380712,0 -2.5,-1.119288 -2.5,-2.5 0,-1.380712 1.119288,-2.5 2.5,-2.5 z m -5,1.5 -3,1 3,1 0,-2 z m 10,0 0,2 3,-1 -3,-1 z m -9.25,3.84375 -1.40625,2.8125 2.8125,-1.40625 -1.40625,-1.40625 z m 8.5,0 -1.40625,1.40625 2.8125,1.40625 L -7.75,16.84375 z M -13,19 l 1,3 1,-3 -2,0 z" color="#000" display="inline" enable-background="accumulate" overflow="visible" visibility="visible" style="marker:none"/><path id="path3102" fill="#000" fill-opacity="1" fill-rule="nonzero" stroke="none" stroke-width="1.5" d="m 8,30 c -2.209139,0 -4,1.790861 -4,4 0,2.209139 1.790861,4 4,4 2.209139,0 4,-1.790861 4,-4 0,-2.209139 -1.790861,-4 -4,-4 z m 0,2 c 1.1045695,0 2,0.89543 2,2 0,1.104569 -0.8954305,2 -2,2 -1.1045695,0 -2,-0.895431 -2,-2 0,-1.10457 0.8954305,-2 2,-2 z" color="#000" display="inline" enable-background="accumulate" opacity=".35" overflow="visible" visibility="visible" style="marker:none"/><path id="path3104" fill="gray" stroke="none" d="m 6,29 4,0 -2,-3 z"/><path id="path3106" fill="gray" stroke="none" d="m 11.330127,29.767949 2,3.464102 L 14.928204,30 z"/><path id="path3108" fill="gray" stroke="none" d="m 13.330127,34.767949 -2,3.464102 L 14.928203,38 z"/><path id="path3110" fill="gray" stroke="none" d="m 10,39 -4.0000002,0 2.0000001,3 z"/><path id="path3112" fill="gray" stroke="none" d="M 4.6698729,38.232051 2.6698728,34.767949 1.0717967,38 z"/><path id="path3114" fill="gray" stroke="none" d="M 2.6698727,33.232051 4.669873,29.767949 1.0717967,30 z"/><path id="path3075" fill="#bebebe" fill-opacity="1" fill-rule="nonzero" stroke="none" stroke-width="1.5" d="M 5.84375 0 L 5.09375 2.96875 L 2.15625 2.15625 L 2.96875 5.09375 L 0 5.84375 L 2.1875 8 L 0 10.15625 L 2.96875 10.90625 L 2.15625 13.84375 L 5.09375 13.03125 L 5.84375 16 L 8 13.8125 L 10.15625 16 L 10.90625 13.03125 L 13.84375 13.84375 L 13.03125 10.90625 L 16 10.15625 L 13.8125 8 L 16 5.84375 L 13.03125 5.09375 L 13.84375 2.15625 L 10.90625 2.96875 L 10.15625 0 L 8 2.1875 L 5.84375 0 z M 8 3 C 10.761424 3 13 5.2385763 13 8 C 13 10.761424 10.761424 13 8 13 L 8 3 z" color="#000" display="inline" enable-background="accumulate" overflow="visible" transform="translate(0,6)" visibility="visible" style="marker:none"/></g></svg>