<svg xmlns="http://www.w3.org/2000/svg" xmlns:svg="http://www.w3.org/2000/svg" id="svg7384" width="16" height="16" version="1.1"><metadata id="metadata90"/><title id="title9167">Gnome Symbolic Icon Theme</title><g id="layer9" display="inline" transform="translate(-61.000202,-397)"><path id="path26639" fill="#bebebe" fill-opacity="1" stroke="none" stroke-width="2" d="M 62.53125,398 C 61.683847,398 61,398.68385 61,399.53125 l 0,10.9375 C 61,411.28683 61.713122,412 62.53125,412 l 12.9375,0 C 76.286662,412 77,411.28677 77,410.46875 l 0,-8.875 C 77,400.72323 76.276717,400 75.40625,400 L 69,400 69,399.53125 C 69,398.68387 68.316106,398 67.46875,398 l -4.9375,0 z M 63,400 l 4,0 0,1 0,1 1,0 7,0 0,8 -12,0 0,-10 z" baseline-shift="baseline" color="#000" direction="ltr" display="inline" enable-background="accumulate" font-family="Sans" font-size="medium" font-stretch="normal" font-style="normal" font-variant="normal" font-weight="normal" letter-spacing="normal" overflow="visible" text-anchor="start" text-decoration="none" visibility="visible" word-spacing="normal" writing-mode="lr-tb" style="text-indent:0;text-align:start;line-height:normal;text-transform:none;block-progression:tb;marker:none;-inkscape-font-specification:Sans"/></g></svg>