<svg xmlns="http://www.w3.org/2000/svg" xmlns:svg="http://www.w3.org/2000/svg" id="svg7384" width="16" height="16" version="1.1"><metadata id="metadata90"/><title id="title9167">Gnome Symbolic Icon Theme</title><g id="layer9" display="inline" transform="translate(-41.0002,-397)"><path id="rect3845-5" fill="#bebebe" fill-opacity="1" stroke="none" d="m 41.53145,398 c -0.28913,0 -0.53125,0.24212 -0.53125,0.53125 l 0,13.93755 c 0,0.2985 0.23264,0.5312 0.53125,0.5312 l 12.9375,0 c 0.2986,0 0.53125,-0.2326 0.53125,-0.5312 l 2,-8.9376 C 57.0002,403.2421 56.75808,403 56.46895,403 l -10.46875,0 -2,7.5 c 0,0.277 -0.223,0.5 -0.5,0.5 -0.277,0 -0.5,-0.223 -0.5,-0.5 l 2,-8 c 0,-0.277 0.223,-0.5 0.5,-0.5 l 0.96875,0 8.53125,0 0,-1.4062 C 55.0002,400.2666 54.73354,400 54.40645,400 l -7.40625,0 0,-1.46875 C 47.0002,398.2421 46.75808,398 46.46895,398 z" display="inline"/></g></svg>