<svg xmlns="http://www.w3.org/2000/svg" xmlns:svg="http://www.w3.org/2000/svg" id="svg7384" width="16" height="16" version="1.1"><metadata id="metadata90"/><title id="title9167">Gnome Symbolic Icon Theme</title><g id="layer9" display="inline" transform="translate(-81.0002,-397)"><path id="rect3845-2" fill="#bebebe" fill-opacity="1" stroke="none" d="m 81.53145,398 c -0.28913,0 -0.53125,0.24212 -0.53125,0.53125 l 0,13.9375 c 0,0.2985 0.23264,0.53125 0.53125,0.53125 l 14.9375,0 c 0.2986,0 0.53125,-0.23265 0.53125,-0.53125 l 0,-8.9375 C 97.0002,403.24215 96.75808,403 96.46895,403 l -1.46875,0 0,-2.40625 C 95.0002,400.26655 94.73354,400 94.40645,400 l -7.40625,0 0,-1.46875 C 87.0002,398.2421 86.75808,398 86.46895,398 z m 2.0625,6 1,0 c 0,0 0.55232,0.0902 0.75,0.28125 L 88.0002,407 85.34395,409.71875 C 85.14627,409.90995 84.9034,410 84.59395,410 l -1,0 0,-1 c 0,-0.2569 0.12983,-0.52845 0.3125,-0.71875 L 85.1877,407 83.90645,405.71875 C 83.72378,405.52845 83.77561,405.18166 83.59395,405 z m 9.40625,0 1,0 0,1 c 0,0.2569 -0.12983,0.52845 -0.3125,0.71875 L 92.40645,407 l 1.28125,1.28125 c 0.18267,0.1903 0.3125,0.46185 0.3125,0.71875 l 0,1 -1,0 c -0.30945,0 -0.55232,-0.09 -0.75,-0.28125 L 89.59395,407 92.2502,404.28125 C 92.44788,404.09025 92.69075,404 93.0002,404 z" display="inline"/></g></svg>