<svg xmlns="http://www.w3.org/2000/svg" xmlns:svg="http://www.w3.org/2000/svg" id="svg2" width="16" height="16" display="inline" version="1.0"><metadata id="metadata7"/><g id="layer1" display="inline" transform="translate(0,-6)"><path id="rect3088" fill="#bebebe" fill-opacity="1" fill-rule="nonzero" stroke="none" stroke-width="1.5" d="M 1 2 C 0.446 2 -6.7943336e-18 2.446 0 3 L 0 13 C 0 13.554 0.446 14 1 14 L 15 14 C 15.554 14 16 13.554 16 13 L 16 3 C 16 2.446 15.554 2 15 2 L 1 2 z M 1 3 L 8 10 L 15 3 L 15 4 L 8 11 L 1 4 L 1 3 z M 4.5 8.5 L 5 9 L 1.03125 13 L 1 11.9375 L 4.5 8.5 z M 11.5 8.5 L 15 11.9375 L 14.96875 13 L 11 9 L 11.5 8.5 z" color="#000" display="inline" enable-background="accumulate" opacity=".45" overflow="visible" transform="translate(0,6)" visibility="visible" style="marker:none"/></g></svg>