<svg xmlns="http://www.w3.org/2000/svg" xmlns:svg="http://www.w3.org/2000/svg" id="svg2" width="16" height="16" version="1.0"><metadata id="metadata7"/><g id="layer1"><path id="path3042" fill="#bebebe" fill-opacity="1" fill-rule="nonzero" stroke="none" d="M 11 2 L 11 4 L 9.96875 4 C 6.3947226 4 5.8310276 6.5060606 3.71875 8.3125 C 3.2083271 8.7490184 2.7308302 9 1.96875 9 L 1 9 L 1 11 L 1.96875 11 C 3.2252602 11 4.2683973 10.495296 5.03125 9.8125 C 6.8240228 8.2078687 7.6024917 6 9.96875 6 L 11 6 L 11 8 L 15 5 L 11 2 z M 11 8 L 11 10 L 9.96875 10 C 8.8449703 10 8.0925133 9.4760923 7.40625 8.78125 C 7.0231839 9.2453484 6.5865486 9.7318264 6.0625 10.25 C 6.9643279 11.230124 8.0067358 12 9.96875 12 L 11 12 L 11 14 L 15 11 L 11 8 z M 1 5 L 1 7 L 1.96875 7 C 2.4826298 7 2.8663177 7.1355749 3.21875 7.34375 C 3.6997199 6.8965985 4.1166542 6.3778221 4.5625 5.84375 C 3.8585498 5.3510795 2.9915493 5 1.96875 5 L 1 5 z"/></g></svg>