<svg xmlns="http://www.w3.org/2000/svg" xmlns:svg="http://www.w3.org/2000/svg" id="svg7384" width="16" height="16" version="1.1"><metadata id="metadata90"/><title id="title9167">Gnome Symbolic Icon Theme</title><g id="layer9" display="inline" transform="translate(-180.99995,-277)"><path id="path5429" fill="#bebebe" fill-opacity="1" stroke="none" stroke-width="2" d="m 183,284 0,2 12.96875,0 0,-2 L 183,284 z" baseline-shift="baseline" color="#bebebe" direction="ltr" display="inline" enable-background="accumulate" font-family="Sans" font-size="medium" font-stretch="normal" font-style="normal" font-variant="normal" font-weight="normal" letter-spacing="normal" overflow="visible" text-anchor="start" text-decoration="none" visibility="visible" word-spacing="normal" writing-mode="lr-tb" style="text-indent:0;text-align:start;line-height:normal;text-transform:none;block-progression:tb;marker:none;-inkscape-font-specification:Sans"/><path id="path5431" fill="#bebebe" fill-opacity="1" stroke="none" stroke-width="2" d="m 184.875,282 a 1.0001,1.0001 0 0 0 -0.59375,0.28125 l -2,2 -0.6875,0.71875 0.6875,0.71875 2,2 a 1.016466,1.016466 0 1 0 1.4375,-1.4375 L 184.4375,285 l 1.28125,-1.28125 A 1.0001,1.0001 0 0 0 184.875,282 z" baseline-shift="baseline" color="#bebebe" direction="ltr" display="inline" enable-background="accumulate" font-family="Sans" font-size="medium" font-stretch="normal" font-style="normal" font-variant="normal" font-weight="normal" letter-spacing="normal" overflow="visible" text-anchor="start" text-decoration="none" visibility="visible" word-spacing="normal" writing-mode="lr-tb" style="text-indent:0;text-align:start;line-height:normal;text-transform:none;block-progression:tb;marker:none;-inkscape-font-specification:Sans"/><rect id="rect5433" width="1" height="1" x="-186" y="282" fill="#bebebe" fill-opacity="1" fill-rule="nonzero" stroke="none" stroke-width="2" color="#000" display="inline" enable-background="accumulate" overflow="visible" transform="scale(-1,1)" visibility="visible" style="marker:none"/><rect id="rect5435" width="1" height="1" x="-186" y="287" fill="#bebebe" fill-opacity="1" fill-rule="nonzero" stroke="none" stroke-width="2" color="#000" display="inline" enable-background="accumulate" overflow="visible" transform="scale(-1,1)" visibility="visible" style="marker:none"/></g></svg>