<svg xmlns="http://www.w3.org/2000/svg" xmlns:svg="http://www.w3.org/2000/svg" id="svg7384" width="16" height="16" version="1.1"><metadata id="metadata90"/><title id="title9167">Gnome Symbolic Icon Theme</title><g id="layer9" display="inline" transform="translate(-60.99995,-277)"><path id="path8282" fill="#bebebe" fill-opacity="1" stroke="none" stroke-width="2" d="m 70.875,286 a 1.0001,1.0001 0 0 0 -0.59375,0.28125 l -2,2 -0.6875,0.71875 0.6875,0.71875 2,2 a 1.016466,1.016466 0 1 0 1.4375,-1.4375 L 70.4375,289 71.71875,287.71875 A 1.0001,1.0001 0 0 0 70.875,286 z" baseline-shift="baseline" color="#000" direction="ltr" display="inline" enable-background="accumulate" font-family="Sans" font-size="medium" font-stretch="normal" font-style="normal" font-variant="normal" font-weight="normal" letter-spacing="normal" overflow="visible" text-anchor="start" text-decoration="none" visibility="visible" word-spacing="normal" writing-mode="lr-tb" style="text-indent:0;text-align:start;line-height:normal;text-transform:none;block-progression:tb;marker:none;-inkscape-font-specification:Sans"/><path id="path8284" fill="#bebebe" fill-opacity="1" stroke="none" stroke-width="2" d="m 62.0002,286.00549 0,0.99451 c 0,1.6447 1.355297,3 3,3 l 1,0 0,-2 -1,0 c -0.571297,0 -1,-0.4287 -1,-1 l 0,-0.98346 z M 70.007523,282 73.0002,282 c 0.571297,0 1,0.4287 1,1 l 0,4 c 0,0.5713 -0.428703,1 -1,1 l -4,0 0,2 4,0 c 1.644703,0 3,-1.3553 3,-3 l 0,-4 c 0,-1.6447 -1.355297,-3 -3,-3 l -2.981628,0 z" baseline-shift="baseline" color="#000" direction="ltr" display="inline" enable-background="accumulate" font-family="Sans" font-size="medium" font-stretch="normal" font-style="normal" font-variant="normal" font-weight="normal" letter-spacing="normal" overflow="visible" text-anchor="start" text-decoration="none" visibility="visible" word-spacing="normal" writing-mode="lr-tb" style="text-indent:0;text-align:start;line-height:normal;text-transform:none;block-progression:tb;marker:none;-inkscape-font-specification:Sans"/><rect id="rect8286" width="1" height="1" x="71" y="286" fill="#bebebe" fill-opacity="1" fill-rule="nonzero" stroke="none" stroke-width="2" color="#000" display="inline" enable-background="accumulate" overflow="visible" visibility="visible" style="marker:none"/><rect id="rect8288" width="1" height="1" x="71" y="291" fill="#bebebe" fill-opacity="1" fill-rule="nonzero" stroke="none" stroke-width="2" color="#000" display="inline" enable-background="accumulate" overflow="visible" visibility="visible" style="marker:none"/><path d="m 65.0002,277 c -2.209143,0 -4,1.79086 -4,4 0,2.20915 1.790857,4 4,4 2.209143,0 4,-1.79085 4,-4 0,-2.20914 -1.790857,-4 -4,-4 z m -1,2 2,0 0,4 -2,0 0,-2 -1,0 0,-1 z" style="marker:none" id="path8290" fill="#bebebe" fill-opacity="1" fill-rule="nonzero" stroke="none" stroke-width=".361" color="#000" display="inline" enable-background="accumulate" overflow="visible" visibility="visible"/></g></svg>