<svg xmlns="http://www.w3.org/2000/svg" xmlns:svg="http://www.w3.org/2000/svg" id="svg7384" width="16" height="16" version="1.1"><metadata id="metadata90"/><title id="title9167">Gnome Symbolic Icon Theme</title><g id="layer9" display="inline" transform="translate(-120.99995,-277)"><path id="path5363" fill="#bebebe" fill-opacity="1" stroke="none" stroke-width="2" d="m 126.78125,286 a 1.0001,1.0001 0 0 0 -0.5,1.71875 L 127.5625,289 l -1.28125,1.28125 a 1.016466,1.016466 0 1 0 1.4375,1.4375 l 2,-2 0.6875,-0.71875 -0.6875,-0.71875 -2,-2 A 1.0001,1.0001 0 0 0 126.78125,286 z" baseline-shift="baseline" color="#000" direction="ltr" display="inline" enable-background="accumulate" font-family="Sans" font-size="medium" font-stretch="normal" font-style="normal" font-variant="normal" font-weight="normal" letter-spacing="normal" overflow="visible" text-anchor="start" text-decoration="none" visibility="visible" word-spacing="normal" writing-mode="lr-tb" style="text-indent:0;text-align:start;line-height:normal;text-transform:none;block-progression:tb;marker:none;-inkscape-font-specification:Sans"/><path id="path5365" fill="#bebebe" fill-opacity="1" stroke="none" stroke-width="2" d="m 125,280 c -1.6447,0 -3,1.3553 -3,3 l 0,4 c 0,1.6447 1.3553,3 3,3 l 4,0 0,-2 -4,0 c -0.5713,0 -1,-0.4287 -1,-1 l 0,-4 c 0,-0.5713 0.4287,-1 1,-1 l 8,0 c 0.5713,0 1,0.4287 1,1 l 0,4 c 0,0.5713 -0.4287,1 -1,1 l -1,0 0,2 1,0 c 1.6447,0 3,-1.3553 3,-3 l 0,-4 c 0,-1.6447 -1.3553,-3 -3,-3 l -8,0 z" baseline-shift="baseline" color="#000" direction="ltr" display="inline" enable-background="accumulate" font-family="Sans" font-size="medium" font-stretch="normal" font-style="normal" font-variant="normal" font-weight="normal" letter-spacing="normal" overflow="visible" text-anchor="start" text-decoration="none" visibility="visible" word-spacing="normal" writing-mode="lr-tb" style="text-indent:0;text-align:start;line-height:normal;text-transform:none;block-progression:tb;marker:none;-inkscape-font-specification:Sans"/><rect id="rect5367" width="1" height="1" x="-127" y="286" fill="#bebebe" fill-opacity="1" fill-rule="nonzero" stroke="none" stroke-width="2" color="#000" display="inline" enable-background="accumulate" overflow="visible" transform="scale(-1,1)" visibility="visible" style="marker:none"/><rect id="rect5369" width="1" height="1" x="-127" y="291" fill="#bebebe" fill-opacity="1" fill-rule="nonzero" stroke="none" stroke-width="2" color="#000" display="inline" enable-background="accumulate" overflow="visible" transform="scale(-1,1)" visibility="visible" style="marker:none"/></g></svg>