<svg xmlns="http://www.w3.org/2000/svg" xmlns:svg="http://www.w3.org/2000/svg" id="svg7384" width="16" height="16.002" version="1.1"><metadata id="metadata90"/><title id="title9167">Gnome Symbolic Icon Theme</title><defs id="defs7386"><clipPath id="clipPath6810-7-87" clipPathUnits="userSpaceOnUse"><rect id="rect6812-2-4" width="14" height="11" x="21" y="281" fill="none" stroke="#fff" stroke-dasharray="none" stroke-dashoffset="0" stroke-linecap="round" stroke-linejoin="round" stroke-miterlimit="4" stroke-opacity="1" stroke-width="2" color="#bebebe" display="inline" overflow="visible" visibility="visible" style="marker:none"/></clipPath></defs><g id="layer9" display="inline" transform="translate(-181,-197)"><rect id="rect12327" width="5" height="10.013" x="184" y="197.987" fill="#bebebe" fill-opacity="1" fill-rule="nonzero" stroke="none" stroke-width="2" color="#bebebe" display="inline" overflow="visible" rx="2.5" ry="2.5" visibility="visible" style="marker:none"/><path font-size="medium" style="text-indent:0;text-align:start;line-height:normal;text-transform:none;block-progression:tb;marker:none;-inkscape-font-specification:Sans" id="rect12329" fill="#bebebe" fill-opacity="1" stroke="none" stroke-width="1.003" d="m 27.96875,273.625 c -2.502477,0 -4.53125,2.02877 -4.53125,4.53125 l 0,5.8125 c 0,2.50248 2.028773,4.53125 4.53125,4.53125 2.502477,0 4.53125,-2.02877 4.53125,-4.53125 l 0,-5.8125 c 0,-2.50248 -2.028773,-4.53125 -4.53125,-4.53125 z m 0,1 c 1.964148,0 3.53125,1.5671 3.53125,3.53125 l 0,5.8125 c 0,1.96415 -1.567102,3.53125 -3.53125,3.53125 -1.964148,0 -3.53125,-1.5671 -3.53125,-3.53125 l 0,-5.8125 c 0,-1.96415 1.567102,-3.53125 3.53125,-3.53125 z" baseline-shift="baseline" clip-path="url(#clipPath6810-7-87)" color="#bebebe" direction="ltr" display="inline" enable-background="accumulate" font-family="Sans" font-stretch="normal" font-style="normal" font-variant="normal" font-weight="normal" letter-spacing="normal" overflow="visible" text-anchor="start" text-decoration="none" transform="matrix(0.993968,0,0,1,158.7069,-78.486135)" visibility="visible" word-spacing="normal" writing-mode="lr-tb"/><path id="path12331" fill="#bebebe" fill-opacity="1" stroke="none" stroke-width="2" d="m 24,361 a 1,1 0 1 1 -2,0 1,1 0 1 1 2,0 z" color="#bebebe" display="inline" overflow="visible" transform="matrix(0.5,0,0,0.5,171,22)" visibility="visible" style="marker:none"/><path id="path12333" fill="#bebebe" fill-opacity="1" stroke="none" stroke-width="2" d="m 24,361 a 1,1 0 1 1 -2,0 1,1 0 1 1 2,0 z" color="#bebebe" display="inline" overflow="visible" transform="matrix(0.5,0,0,0.5,179,22)" visibility="visible" style="marker:none"/><path id="path12335" fill="#bebebe" fill-opacity="1" stroke="none" stroke-width="2" d="m 182.875,211 a 1.0019512,1.0019512 0 1 0 0.125,2 l 7.03125,0 a 1.0001,1.0001 0 1 0 0,-2 L 183,211 a 1.0001,1.0001 0 0 0 -0.125,0 z" baseline-shift="baseline" color="#bebebe" direction="ltr" display="inline" enable-background="accumulate" font-family="Sans" font-size="medium" font-stretch="normal" font-style="normal" font-variant="normal" font-weight="normal" letter-spacing="normal" overflow="visible" text-anchor="start" text-decoration="none" visibility="visible" word-spacing="normal" writing-mode="lr-tb" style="text-indent:0;text-align:start;line-height:normal;text-transform:none;block-progression:tb;marker:none;-inkscape-font-specification:Sans"/><rect id="rect12337" width="9" height="1" x="182" y="212" fill="#bebebe" fill-opacity="1" stroke="none" stroke-width="1" color="#bebebe" display="inline" overflow="visible" visibility="visible" style="marker:none"/><rect id="rect12339" width="3" height="4" x="185" y="209" fill="#bebebe" fill-opacity="1" stroke="none" stroke-width="1" color="#bebebe" display="inline" overflow="visible" visibility="visible" style="marker:none"/><path id="path12343" fill="#bebebe" fill-opacity="1" stroke="none" stroke-width="1.278" d="m -186.0625,184.0625 a 1.9375,1.9375 0 1 1 -3.875,0 1.9375,1.9375 0 1 1 3.875,0 z" color="#000" display="inline" enable-background="accumulate" overflow="visible" transform="matrix(1.0322581,0,0,1.0322551,388.06472,20.00054)" visibility="visible" style="marker:none"/><path id="path12345" fill="#bebebe" fill-opacity="1" stroke="none" stroke-width="1.278" d="m -186.0625,184.0625 a 1.9375,1.9375 0 1 1 -3.875,0 1.9375,1.9375 0 1 1 3.875,0 z" color="#000" display="inline" enable-background="accumulate" overflow="visible" transform="matrix(1.0322581,0,0,1.0322551,388.06472,15.00054)" visibility="visible" style="marker:none"/><path id="path12347" fill="#bebebe" fill-opacity="1" stroke="none" stroke-width="1.278" d="m -186.0625,184.0625 a 1.9375,1.9375 0 1 1 -3.875,0 1.9375,1.9375 0 1 1 3.875,0 z" color="#000" display="inline" enable-background="accumulate" overflow="visible" transform="matrix(1.0322581,0,0,1.0322551,388.06472,10.00054)" visibility="visible" style="marker:none"/></g></svg>