<svg xmlns="http://www.w3.org/2000/svg" xmlns:svg="http://www.w3.org/2000/svg" id="svg7384" width="16" height="16.001" version="1.1"><metadata id="metadata90"/><title id="title9167">Gnome Symbolic Icon Theme</title><defs id="defs7386"><clipPath id="clipPath6810-7-87" clipPathUnits="userSpaceOnUse"><rect id="rect6812-2-4" width="14" height="11" x="21" y="281" fill="none" stroke="#fff" stroke-dasharray="none" stroke-dashoffset="0" stroke-linecap="round" stroke-linejoin="round" stroke-miterlimit="4" stroke-opacity="1" stroke-width="2" color="#bebebe" display="inline" overflow="visible" visibility="visible" style="marker:none"/></clipPath></defs><g id="layer9" display="inline" transform="translate(-121,-197)"><rect id="rect12235" width="5" height="10.013" x="124" y="197.987" fill="#bebebe" fill-opacity="1" fill-rule="nonzero" stroke="none" stroke-width="2" color="#bebebe" display="inline" overflow="visible" rx="2.5" ry="2.5" visibility="visible" style="marker:none"/><path font-size="medium" style="text-indent:0;text-align:start;line-height:normal;text-transform:none;block-progression:tb;marker:none;-inkscape-font-specification:Sans" id="rect12237" fill="#bebebe" fill-opacity="1" stroke="none" stroke-width="1.003" d="m 27.96875,273.625 c -2.502477,0 -4.53125,2.02877 -4.53125,4.53125 l 0,5.8125 c 0,2.50248 2.028773,4.53125 4.53125,4.53125 2.502477,0 4.53125,-2.02877 4.53125,-4.53125 l 0,-5.8125 c 0,-2.50248 -2.028773,-4.53125 -4.53125,-4.53125 z m 0,1 c 1.964148,0 3.53125,1.5671 3.53125,3.53125 l 0,5.8125 c 0,1.96415 -1.567102,3.53125 -3.53125,3.53125 -1.964148,0 -3.53125,-1.5671 -3.53125,-3.53125 l 0,-5.8125 c 0,-1.96415 1.567102,-3.53125 3.53125,-3.53125 z" baseline-shift="baseline" clip-path="url(#clipPath6810-7-87)" color="#bebebe" direction="ltr" display="inline" enable-background="accumulate" font-family="Sans" font-stretch="normal" font-style="normal" font-variant="normal" font-weight="normal" letter-spacing="normal" overflow="visible" text-anchor="start" text-decoration="none" transform="matrix(0.993968,0,0,1,98.706899,-78.486135)" visibility="visible" word-spacing="normal" writing-mode="lr-tb"/><path id="path12239" fill="#bebebe" fill-opacity="1" stroke="none" stroke-width="2" d="m 24,361 a 1,1 0 1 1 -2,0 1,1 0 1 1 2,0 z" color="#bebebe" display="inline" overflow="visible" transform="matrix(0.5,0,0,0.5,111,22)" visibility="visible" style="marker:none"/><path id="path12241" fill="#bebebe" fill-opacity="1" stroke="none" stroke-width="2" d="m 24,361 a 1,1 0 1 1 -2,0 1,1 0 1 1 2,0 z" color="#bebebe" display="inline" overflow="visible" transform="matrix(0.5,0,0,0.5,119,22)" visibility="visible" style="marker:none"/><path id="path12243" fill="#bebebe" fill-opacity="1" stroke="none" stroke-width="2" d="M 122.90625,211 A 1.001098,1.001098 0 1 0 123,213 l 7,0 a 1.0001,1.0001 0 1 0 0,-2 l -7,0 a 1.0001,1.0001 0 0 0 -0.0937,0 z" baseline-shift="baseline" color="#bebebe" direction="ltr" display="inline" enable-background="accumulate" font-family="Sans" font-size="medium" font-stretch="normal" font-style="normal" font-variant="normal" font-weight="normal" letter-spacing="normal" overflow="visible" text-anchor="start" text-decoration="none" visibility="visible" word-spacing="normal" writing-mode="lr-tb" style="text-indent:0;text-align:start;line-height:normal;text-transform:none;block-progression:tb;marker:none;-inkscape-font-specification:Sans"/><rect id="rect12245" width="9" height="1" x="122" y="212" fill="#bebebe" fill-opacity="1" stroke="none" stroke-width="1" color="#bebebe" display="inline" overflow="visible" visibility="visible" style="marker:none"/><rect id="rect12247" width="3" height="4" x="125" y="209" fill="#bebebe" fill-opacity="1" stroke="none" stroke-width="1" color="#bebebe" display="inline" overflow="visible" visibility="visible" style="marker:none"/><path font-stretch="normal" style="text-indent:0;text-align:start;line-height:normal;text-transform:none;block-progression:tb;marker:none;-inkscape-font-specification:Sans" id="path12249" fill="#bebebe" fill-opacity="1" stroke="none" stroke-width="1.292" d="m 134.0002,197.99193 c -1.09865,0 -2.00806,0.90942 -2.00806,2.00807 0,1.09865 0.90941,2.00806 2.00806,2.00806 1.09865,0 2.00806,-0.90941 2.00806,-2.00806 0,-1.09865 -0.90941,-2.00807 -2.00806,-2.00807 z m 0,1.01613 c 0.55821,0 0.99193,0.43373 0.99193,0.99194 0,0.55821 -0.43372,0.99193 -0.99193,0.99193 -0.55821,0 -0.99193,-0.43372 -0.99193,-0.99193 0,-0.55821 0.43372,-0.99194 0.99193,-0.99194 z" baseline-shift="baseline" color="#000" direction="ltr" display="inline" enable-background="accumulate" font-family="Sans" font-size="medium" font-style="normal" font-variant="normal" font-weight="normal" letter-spacing="normal" opacity=".5" overflow="visible" text-anchor="start" text-decoration="none" visibility="visible" word-spacing="normal" writing-mode="lr-tb"/><path font-stretch="normal" style="text-indent:0;text-align:start;line-height:normal;text-transform:none;block-progression:tb;marker:none;-inkscape-font-specification:Sans" id="path12253" fill="#bebebe" fill-opacity="1" stroke="none" stroke-width="1.292" d="m 134.00019,202.99193 c -1.09865,0 -2.00806,0.90941 -2.00806,2.00806 0,1.09865 0.90941,2.00807 2.00806,2.00807 1.09865,0 2.00807,-0.90942 2.00807,-2.00807 0,-1.09865 -0.90942,-2.00806 -2.00807,-2.00806 z m 0,1.01613 c 0.55821,0 0.99194,0.43373 0.99194,0.99193 0,0.55821 -0.43373,0.99194 -0.99194,0.99194 -0.55821,0 -0.99193,-0.43373 -0.99193,-0.99194 0,-0.5582 0.43372,-0.99193 0.99193,-0.99193 z" baseline-shift="baseline" color="#000" direction="ltr" display="inline" enable-background="accumulate" font-family="Sans" font-size="medium" font-style="normal" font-variant="normal" font-weight="normal" letter-spacing="normal" opacity=".5" overflow="visible" text-anchor="start" text-decoration="none" visibility="visible" word-spacing="normal" writing-mode="lr-tb"/><path d="m 132.0002,208 1.375,0 1.125,1.09375 1.09375,-1.09375 1.40625,0 0,1.46875 -1.09375,1.0625 1.09375,1.0625 0,1.40625 -1.4375,0 -1.0625,-1.0625 -1.0625,1.0625 -1.4375,0 0,-1.40625 1.0625,-1.0625 -1.0625,-1.0625 0,-1.46875 z" style="marker:none" id="path3761-2-3-5-4-8-9-8-0-9-0-4" fill="#bebebe" fill-opacity="1" stroke="none" stroke-width="2" color="#bebebe" display="inline" overflow="visible" visibility="visible"/></g></svg>