<svg xmlns="http://www.w3.org/2000/svg" xmlns:svg="http://www.w3.org/2000/svg" id="svg7384" width="16" height="16" version="1.1"><metadata id="metadata90"/><title id="title9167">Gnome Symbolic Icon Theme</title><g id="layer9" display="inline" transform="translate(-221.0002,-237)"><path id="path12679-6" fill="#bebebe" fill-opacity="1" fill-rule="nonzero" stroke="none" stroke-width="2" d="m 228,247 0,3 2,0 0,-3 -2,0 z" baseline-shift="baseline" color="#bebebe" direction="ltr" display="inline" enable-background="accumulate" font-family="Sans" font-size="medium" font-stretch="normal" font-style="normal" font-variant="normal" font-weight="normal" letter-spacing="normal" overflow="visible" text-anchor="start" text-decoration="none" visibility="visible" word-spacing="normal" writing-mode="lr-tb" style="text-indent:0;text-align:start;line-height:normal;text-transform:none;block-progression:tb;marker:none;-inkscape-font-specification:Sans"/><path id="path12681-3" fill="#bebebe" fill-opacity="1" fill-rule="nonzero" stroke="none" stroke-width="2" d="m 223,250 0,2 12,0 0,-2 -12,0 z" baseline-shift="baseline" color="#bebebe" direction="ltr" display="inline" enable-background="accumulate" font-family="Sans" font-size="medium" font-stretch="normal" font-style="normal" font-variant="normal" font-weight="normal" letter-spacing="normal" overflow="visible" text-anchor="start" text-decoration="none" visibility="visible" word-spacing="normal" writing-mode="lr-tb" style="text-indent:0;text-align:start;line-height:normal;text-transform:none;block-progression:tb;marker:none;-inkscape-font-specification:Sans"/><rect stroke="none" style="marker:none" id="rect13312" width="8" height="6" x="225" y="242" fill="#bebebe" fill-opacity="1" fill-rule="nonzero" stroke-width="1" color="#bebebe" display="inline" overflow="visible" ry="0" visibility="visible"/><path font-size="medium" style="text-indent:0;text-align:start;line-height:normal;text-transform:none;block-progression:tb;marker:none;-inkscape-font-specification:Sans" id="path13314" fill="#bebebe" fill-opacity="1" stroke="none" stroke-width="3" d="m 228.99997,238.00041 c -1.64501,0 -3,1.355 -3,3 l 0,2 0,1.00001 1,0 4,0 1,0 0,-1.00001 0,-2 c 0,-1.645 -1.35499,-3 -3,-3 z m 0,2 c 0.56413,0 1,0.43588 1,1 l 0,1 -2,0 0,-1 c 0,-0.56412 0.43587,-1 1,-1 z" baseline-shift="baseline" color="#bebebe" direction="ltr" display="inline" enable-background="accumulate" font-family="Sans" font-stretch="normal" font-style="normal" font-variant="normal" font-weight="normal" letter-spacing="normal" overflow="visible" text-anchor="start" text-decoration="none" visibility="visible" word-spacing="normal" writing-mode="lr-tb"/></g></svg>