<svg xmlns="http://www.w3.org/2000/svg" xmlns:svg="http://www.w3.org/2000/svg" id="svg2" width="16" height="16" version="1.0"><metadata id="metadata7"/><g id="layer1"><rect id="rect2979" width="3" height="13" x="12" y="0" fill="#bebebe" fill-opacity="1" fill-rule="nonzero" stroke="none" stroke-width="1" color="#000" display="inline" enable-background="accumulate" opacity=".45" overflow="visible" rx="1" visibility="visible" style="marker:none"/><rect id="rect2981" width="3" height="10" x="8" y="3" fill="#bebebe" fill-opacity="1" fill-rule="nonzero" stroke="none" stroke-width="1" color="#000" display="inline" enable-background="accumulate" opacity=".45" overflow="visible" rx="1" visibility="visible" style="marker:none"/><rect id="rect2983" width="3" height="7" x="4" y="6" fill="#bebebe" fill-opacity="1" fill-rule="nonzero" stroke="none" stroke-width="1" color="#000" display="inline" enable-background="accumulate" opacity=".45" overflow="visible" rx="1" visibility="visible" style="marker:none"/><rect id="rect2985" width="3" height="4" x="0" y="9" fill="#bebebe" fill-opacity="1" fill-rule="nonzero" stroke="none" stroke-width="1" color="#000" display="inline" enable-background="accumulate" opacity=".45" overflow="visible" rx="1" visibility="visible" style="marker:none"/><path id="path3112" fill="#bebebe" fill-opacity="1" fill-rule="nonzero" stroke="none" stroke-width=".8" d="m 9,15 a 1,1 0 1 1 -2,0 1,1 0 1 1 2,0 z" color="#000" display="inline" enable-background="accumulate" overflow="visible" visibility="visible" style="marker:none"/><path id="path3882" fill="#bebebe" fill-opacity="1" fill-rule="nonzero" stroke="none" stroke-width=".8" d="m 9,15 a 1,1 0 1 1 -2,0 1,1 0 1 1 2,0 z" color="#000" display="inline" enable-background="accumulate" overflow="visible" transform="translate(3,0)" visibility="visible" style="marker:none"/><path id="path3884" fill="#bebebe" fill-opacity="1" fill-rule="nonzero" stroke="none" stroke-width=".8" d="m 9,15 a 1,1 0 1 1 -2,0 1,1 0 1 1 2,0 z" color="#000" display="inline" enable-background="accumulate" overflow="visible" transform="translate(-3,0)" visibility="visible" style="marker:none"/></g></svg>