<svg xmlns="http://www.w3.org/2000/svg" xmlns:svg="http://www.w3.org/2000/svg" id="svg7384" width="16" height="16" version="1.1"><metadata id="metadata90"/><title id="title9167">Gnome Symbolic Icon Theme</title><g id="layer9" display="inline" transform="translate(-81.0002,-237)"><path id="path8649" fill="#bebebe" fill-opacity="1" stroke="none" stroke-width="2" d="m 83.0627,237 c -1.15073,0 -2.0625,0.91177 -2.0625,2.0625 l 0,11.875 c 0,1.15073 0.91177,2.0625 2.0625,2.0625 l 11.875,0 c 1.15073,0 2.0625,-0.91177 2.0625,-2.0625 l 0,-11.875 C 97.0002,237.91177 96.08843,237 94.9377,237 l -11.875,0 z m 2,3 2,0 0,4 3.9375,0 0,-4 2,0 0,10 -2,0 0,-4 -3.9375,0 0,4 -2,0 0,-10 z" color="#bebebe" display="inline" overflow="visible" visibility="visible" style="marker:none"/></g></svg>