<svg xmlns="http://www.w3.org/2000/svg" xmlns:svg="http://www.w3.org/2000/svg" id="svg7384" width="16" height="16" version="1.1"><title id="title9167">Gnome Symbolic Icon Theme</title><metadata id="metadata90"/><g id="layer9" display="inline" transform="translate(-100.9999,-237)"><path id="rect7047" fill="#bebebe" fill-opacity="1" stroke="none" stroke-width="2" d="m 103.0624,237 c -1.15073,0 -2.0625,0.91177 -2.0625,2.0625 l 0,11.875 c 0,1.15073 0.91177,2.0625 2.0625,2.0625 l 11.875,0 c 1.15073,0 2.0625,-0.91177 2.0625,-2.0625 l 0,-11.875 c 0,-1.15073 -0.91177,-2.0625 -2.0625,-2.0625 l -11.875,0 z m 3.9375,3 0.0937,0 5.90625,0 0,2 -6,0 0,2 6,0 0,2 -6,0 0,2 c -3.6e-4,-4.5e-4 0.0315,1e-4 0.0313,0 l 5.96875,0 0,2 -6,0 c -0.6248,0 -0.99413,-0.24118 -1.34375,-0.5625 -0.33108,-0.30424 -0.64399,-0.78976 -0.625,-1.4375 l -0.0313,0 0,-0.0937 0,-5.84375 0,-0.0625 0.0313,0 c -0.013,-0.4751 0.11013,-0.99964 0.46875,-1.40625 0.35357,-0.40089 0.93419,-0.583 1.5,-0.5625 l 0,-0.0313 z" color="#bebebe" display="inline" overflow="visible" visibility="visible" style="marker:none"/></g></svg>