<svg xmlns="http://www.w3.org/2000/svg" xmlns:svg="http://www.w3.org/2000/svg" id="svg7384" width="16" height="16" version="1.1"><metadata id="metadata90"/><title id="title9167">Gnome Symbolic Icon Theme</title><g id="layer9" display="inline" transform="translate(-201.0002,-257)"><path id="path9289" fill="#bebebe" fill-opacity="1" fill-rule="evenodd" stroke="none" stroke-width="3" d="m 213,257 0,1.5 0,6.9375 0,1.5 3,0 0,-1.5 0,-6.9375 0,-1.5 -3,0 z" baseline-shift="baseline" color="#000" direction="ltr" display="inline" enable-background="accumulate" font-family="Sans" font-size="medium" font-stretch="normal" font-style="normal" font-variant="normal" font-weight="normal" letter-spacing="normal" opacity=".35" overflow="visible" text-anchor="start" text-decoration="none" visibility="visible" word-spacing="normal" writing-mode="lr-tb" style="text-indent:0;text-align:start;line-height:normal;text-transform:none;block-progression:tb;marker:none;-inkscape-font-specification:Sans"/><path id="path9291" fill="#bebebe" fill-opacity="1" fill-rule="evenodd" stroke="none" stroke-width="3" d="m 209.0002,260 0,12 2,0 0.0143,-5.0625 0.98575,0 0,-6.9375 z" baseline-shift="baseline" color="#000" direction="ltr" display="inline" enable-background="accumulate" font-family="Sans" font-size="medium" font-stretch="normal" font-style="normal" font-variant="normal" font-weight="normal" letter-spacing="normal" opacity=".35" overflow="visible" text-anchor="start" text-decoration="none" visibility="visible" word-spacing="normal" writing-mode="lr-tb" style="text-indent:0;text-align:start;line-height:normal;text-transform:none;block-progression:tb;marker:none;-inkscape-font-specification:Sans"/><path id="path9293" fill="#bebebe" fill-opacity="1" fill-rule="evenodd" stroke="none" stroke-width="3" d="m 205,263 0,1.5 0,6 0,1.5 3,0 0,-1.5 0,-6 0,-1.5 -3,0 z" baseline-shift="baseline" color="#000" direction="ltr" display="inline" enable-background="accumulate" font-family="Sans" font-size="medium" font-stretch="normal" font-style="normal" font-variant="normal" font-weight="normal" letter-spacing="normal" opacity=".35" overflow="visible" text-anchor="start" text-decoration="none" visibility="visible" word-spacing="normal" writing-mode="lr-tb" style="text-indent:0;text-align:start;line-height:normal;text-transform:none;block-progression:tb;marker:none;-inkscape-font-specification:Sans"/><path id="path9295" fill="#bebebe" fill-opacity="1" fill-rule="evenodd" stroke="none" stroke-width="3" d="m 201,266 0,1.5 0,3 0,1.5 3,0 0,-1.5 0,-3 0,-1.5 -3,0 z" baseline-shift="baseline" color="#000" direction="ltr" display="inline" enable-background="accumulate" font-family="Sans" font-size="medium" font-stretch="normal" font-style="normal" font-variant="normal" font-weight="normal" letter-spacing="normal" opacity=".35" overflow="visible" text-anchor="start" text-decoration="none" visibility="visible" word-spacing="normal" writing-mode="lr-tb" style="text-indent:0;text-align:start;line-height:normal;text-transform:none;block-progression:tb;marker:none;-inkscape-font-specification:Sans"/><path d="m 212.0002,268 1.375,0 1.125,1.09375 1.09375,-1.09375 1.40625,0 0,1.46875 -1.09375,1.0625 1.09375,1.0625 0,1.40625 -1.4375,0 -1.0625,-1.0625 -1.0625,1.0625 -1.4375,0 0,-1.40625 1.0625,-1.0625 -1.0625,-1.0625 0,-1.46875 z" style="marker:none" id="path3761-2-3-5-4-8-9-8-0-1-7-8-3" fill="#bebebe" fill-opacity="1" stroke="none" stroke-width="2" color="#bebebe" display="inline" overflow="visible" visibility="visible"/></g></svg>