<svg xmlns="http://www.w3.org/2000/svg" xmlns:svg="http://www.w3.org/2000/svg" id="svg7384" width="16" height="16" version="1.1"><metadata id="metadata90"/><title id="title9167">Gnome Symbolic Icon Theme</title><g id="layer9" display="inline" transform="translate(-241.0002,-237)"><path id="path4998" fill="#bebebe" fill-opacity="1" fill-rule="nonzero" stroke="none" stroke-width="2" d="m 248,248.6875 0,1.3125 2,0 0,-1.3125 -2,0 z" baseline-shift="baseline" color="#bebebe" direction="ltr" display="inline" enable-background="accumulate" font-family="Sans" font-size="medium" font-stretch="normal" font-style="normal" font-variant="normal" font-weight="normal" letter-spacing="normal" opacity=".5" overflow="visible" text-anchor="start" text-decoration="none" visibility="visible" word-spacing="normal" writing-mode="lr-tb" style="text-indent:0;text-align:start;line-height:normal;text-transform:none;block-progression:tb;marker:none;-inkscape-font-specification:Sans"/><path id="path5000" fill="#bebebe" fill-opacity="1" fill-rule="nonzero" stroke="none" stroke-width="2" d="m 243,250 0,2 12,0 0,-2 -12,0 z" baseline-shift="baseline" color="#bebebe" direction="ltr" display="inline" enable-background="accumulate" font-family="Sans" font-size="medium" font-stretch="normal" font-style="normal" font-variant="normal" font-weight="normal" letter-spacing="normal" opacity=".5" overflow="visible" text-anchor="start" text-decoration="none" visibility="visible" word-spacing="normal" writing-mode="lr-tb" style="text-indent:0;text-align:start;line-height:normal;text-transform:none;block-progression:tb;marker:none;-inkscape-font-specification:Sans"/><rect id="rect5002" width="8" height="1.009" x="245" y="242" fill="#bebebe" fill-opacity="1" fill-rule="nonzero" stroke="none" stroke-width="1" color="#bebebe" display="inline" opacity=".5" overflow="visible" ry="0" visibility="visible" style="marker:none"/><path font-stretch="normal" style="text-indent:0;text-align:start;line-height:normal;text-transform:none;block-progression:tb;marker:none;-inkscape-font-specification:Sans" id="path5004" fill="#bebebe" fill-opacity="1" stroke="none" stroke-width="3" d="m 248.99997,238.00041 c -1.64501,0 -3,1.355 -3,3 l 0,2 6,0 0,-2 c 0,-1.645 -1.35499,-3 -3,-3 z m 0,2 c 0.56413,0 1,0.43588 1,1 l 0,1 -2,0 0,-1 c 0,-0.56412 0.43587,-1 1,-1 z" baseline-shift="baseline" color="#bebebe" direction="ltr" display="inline" enable-background="accumulate" font-family="Sans" font-size="medium" font-style="normal" font-variant="normal" font-weight="normal" letter-spacing="normal" opacity=".5" overflow="visible" text-anchor="start" text-decoration="none" visibility="visible" word-spacing="normal" writing-mode="lr-tb"/><rect id="rect10502" width="8" height="1.009" x="245" y="248" fill="#bebebe" fill-opacity="1" fill-rule="nonzero" stroke="none" stroke-width="1" color="#bebebe" display="inline" opacity=".5" overflow="visible" ry="0" visibility="visible" style="marker:none"/><path id="path4955-1-1" fill="#bebebe" fill-opacity="1" stroke="none" d="m 29,209 a 1,1 0 1 1 -2,0 1,1 0 1 1 2,0 z" display="inline" transform="matrix(1.5,0,0,1.5,202.51323,-68.0044)"/><path id="path4957-2-6" fill="#bebebe" fill-opacity="1" stroke="none" d="m 29,209 a 1,1 0 1 1 -2,0 1,1 0 1 1 2,0 z" display="inline" transform="matrix(1.5,0,0,1.5,206.51323,-68.0044)"/><path id="path4959-4-4" fill="#bebebe" fill-opacity="1" stroke="none" d="m 29,209 a 1,1 0 1 1 -2,0 1,1 0 1 1 2,0 z" display="inline" transform="matrix(1.5,0,0,1.5,210.51318,-68.0044)"/></g></svg>