<svg xmlns="http://www.w3.org/2000/svg" xmlns:svg="http://www.w3.org/2000/svg" id="svg7384" width="16" height="16" version="1.1"><metadata id="metadata90"/><title id="title9167">Gnome Symbolic Icon Theme</title><g id="layer9" display="inline" transform="translate(-321.00021,-177)"><path id="path16189" fill="#bebebe" fill-opacity="1" stroke="none" stroke-width="2" d="M 5 7 C 4.69057 7.00004 4.38537 7.0905 4.1875 7.28125 L 0.59375 11 L 4.25 14.71875 C 4.44771 14.90976 4.69055 14.99999 5 15 L 6 15 L 6 14 L 6 13 L 10 13 L 10 11 L 10 9 L 6 9 L 6 8 L 6 7 L 5 7 z" baseline-shift="baseline" color="#000" direction="ltr" display="inline" enable-background="accumulate" font-family="Sans" font-size="medium" font-stretch="normal" font-style="normal" font-variant="normal" font-weight="normal" letter-spacing="normal" opacity=".5" overflow="visible" text-anchor="start" text-decoration="none" transform="translate(321.00021,177)" visibility="visible" word-spacing="normal" writing-mode="lr-tb" style="text-indent:0;text-align:start;line-height:normal;text-transform:none;block-progression:tb;marker:none;-inkscape-font-specification:Sans"/><path id="path16191" fill="#bebebe" fill-opacity="1" stroke="none" stroke-width="2" d="M 10 1 L 10 2 L 10 3 L 6 3 L 6 5 L 6 7 L 10 7 L 10 8 L 10 9 L 11 9 C 11.30943 8.99996 11.61463 8.9095 11.8125 8.71875 L 15.40625 5 L 11.75 1.28125 C 11.55229 1.09024 11.30945 1.00001 11 1 L 10 1 z" baseline-shift="baseline" color="#000" direction="ltr" display="inline" enable-background="accumulate" font-family="Sans" font-size="medium" font-stretch="normal" font-style="normal" font-variant="normal" font-weight="normal" letter-spacing="normal" opacity="1" overflow="visible" text-anchor="start" text-decoration="none" transform="translate(321.00021,177)" visibility="visible" word-spacing="normal" writing-mode="lr-tb" style="text-indent:0;text-align:start;line-height:normal;text-transform:none;block-progression:tb;marker:none;-inkscape-font-specification:Sans"/></g></svg>