<svg xmlns="http://www.w3.org/2000/svg" xmlns:svg="http://www.w3.org/2000/svg" id="svg2" width="16" height="16" display="inline" version="1.0"><metadata id="metadata7"/><g id="layer1" display="inline" transform="translate(0,-6)"><path id="path3841" fill="#bebebe" fill-opacity="1" fill-rule="nonzero" stroke="none" stroke-width="1" d="M 8 1.46875 L 5.84375 5.84375 L 1.03125 6.5625 L 4.5 9.96875 L 3.6875 14.78125 L 8 12.5 L 12.3125 14.78125 L 11.5 9.96875 L 15 6.5625 L 10.15625 5.84375 L 8 1.46875 z M 8.03125 3.5625 L 9.3125 6.25 A 0.93318664 0.93318664 0 0 0 10.03125 6.75 L 13 7.1875 L 10.84375 9.28125 A 0.93318664 0.93318664 0 0 0 10.5625 10.09375 L 11.09375 13.0625 L 8.4375 11.65625 A 0.93318664 0.93318664 0 0 0 7.5625 11.65625 L 4.90625 13.0625 L 5.40625 10.09375 A 0.93318664 0.93318664 0 0 0 5.15625 9.28125 L 3 7.21875 L 6 6.78125 A 0.93318664 0.93318664 0 0 0 6.6875 6.28125 L 8.03125 3.5625 z" color="#000" display="inline" enable-background="accumulate" overflow="visible" transform="translate(0,6)" visibility="visible" style="marker:none"/></g></svg>