<svg xmlns="http://www.w3.org/2000/svg" xmlns:svg="http://www.w3.org/2000/svg" id="svg7384" width="16" height="16" version="1.1"><metadata id="metadata90"/><title id="title9167">Gnome Symbolic Icon Theme</title><g id="layer9" display="inline" transform="translate(-201,-257)"><g id="layer1-6-9" transform="translate(201,257)"><path id="path3520-7" fill="#bebebe" fill-opacity="1" stroke="none" d="M 2,4 C 1.5,4 1,4.5 1,5 l 0,4 c 0,0.5 0.5,1 1,1 l 1,0 0,-2 10,0 0,2 1,0 c 0.5,0 1,-0.5 1,-1 L 15,5 C 15,4.5 14.5,4 14,4 L 2,4 z"/><path id="path4804-7" fill="#bebebe" fill-opacity="1" stroke="none" d="M 4,1 4,3 12,3 12,1 4,1 z"/><path id="path4806-9" fill="#bebebe" fill-opacity="1" stroke="none" d="m 205,266 0,5 8,0 0,-5 z m 2.99085,0.9981 2.02935,0.011 -0.011,1 2.00352,-0.011 L 209.03125,270 206,268 l 2.0019,0.0111 z" class="success" transform="translate(-201,-257)"/></g></g></svg>