<svg xmlns="http://www.w3.org/2000/svg" xmlns:svg="http://www.w3.org/2000/svg" id="svg7384" width="16" height="16" version="1.1"><metadata id="metadata90"/><title id="title9167">Gnome Symbolic Icon Theme</title><g id="layer9" display="inline" transform="translate(-241,-257)"><path id="path10944" fill="#bebebe" fill-opacity="1" stroke="none" d="m 243,261 c -0.5,0 -1,0.5 -1,1 l 0,4 c 0,0.5 0.5,1 1,1 l 1,0 0,-2 12,0.004 c 0,0 0,-1.38374 0,-3.00391 0,-0.5 -0.5,-1 -1,-1 z"/><path id="path10946" fill="#bebebe" fill-opacity="1" stroke="none" d="m 245,258 0,2 8,0 0,-2 -8,0 z"/><path id="path10948" fill="#bebebe" fill-opacity="1" stroke="none" d="m 245,266 0,5 4,0 -0.006,-5 z"/><path class="error" style="marker:none" id="path3482-5" fill="#ed4737" fill-opacity="1" fill-rule="nonzero" stroke="none" stroke-width="1.909" d="m 253.5,266 c -1.93299,0 -3.5,1.56701 -3.5,3.5 0,1.93299 1.56701,3.5 3.5,3.5 1.93299,0 3.5,-1.56701 3.5,-3.5 0,-1.93299 -1.56701,-3.5 -3.5,-3.5 z m -2.5,2.96875 5,0 0,1.03125 -5,0 0,-1.03125 z" color="#bebebe" display="inline" enable-background="accumulate" overflow="visible" visibility="visible"/></g></svg>