<svg xmlns="http://www.w3.org/2000/svg" xmlns:svg="http://www.w3.org/2000/svg" id="svg7384" width="16" height="16" version="1.1"><metadata id="metadata90"/><title id="title9167">Gnome Symbolic Icon Theme</title><g id="layer9" display="inline" transform="translate(-221.0002,-257)"><path id="path10898" fill="#f57900" fill-opacity="1" fill-rule="nonzero" stroke="none" stroke-width="2" d="m 229.875,265 c -0.49245,0 -0.875,0.38256 -0.875,0.875 l 0,6.25 c 0,0.49244 0.38255,0.875 0.875,0.875 l 6.25,0 c 0.49245,0 0.875,-0.38256 0.875,-0.875 l 0,-6.25 C 237,265.38256 236.61745,265 236.125,265 l -6.25,0 z m 2.125,1 2,0 0,4 -2,0 0,-4 z m 0,5 2,0 0,1 -2,0 0,-1 z" style="marker:none" class="warning" color="#bebebe" display="inline" overflow="visible" visibility="visible"/><path id="path3520-7-4" fill="#bebebe" fill-opacity="1" stroke="none" d="m 223,261 c -0.5,0 -1,0.5 -1,1 l 0,4 c 0,0.5 0.5,1 1,1 l 1,0 0,-2 4,0 c 0.11796,-0.53925 0.55151,-0.9375 1.125,-0.9375 l 6.875,0 0,-2.0625 c 0,-0.5 -0.5,-1 -1,-1 l -12,0 z"/><path id="path4804-7-9" fill="#bebebe" fill-opacity="1" stroke="none" d="m 225,258 0,2 8,0 0,-2 -8,0 z"/><path id="path4806-9-7" fill="#bebebe" fill-opacity="1" stroke="none" d="m 225,266 0,5 3,0 0,-5 z"/></g></svg>