<svg xmlns="http://www.w3.org/2000/svg" xmlns:svg="http://www.w3.org/2000/svg" id="svg7384" width="16" height="16" version="1.1"><metadata id="metadata90"/><title id="title9167">Gnome Symbolic Icon Theme</title><g id="layer9" display="inline" transform="translate(-381.00015,-357)"><path id="path9587" fill="#bebebe" fill-opacity="1" stroke="none" stroke-width=".991" d="m 388.96875,358.0625 c -3.85777,0 -7,3.14223 -7,7 0,3.85777 3.14223,7 7,7 3.85776,0 7,-3.14223 7,-7 0,-3.85777 -3.14224,-7 -7,-7 z m 0,1 c 3.32116,0 6.03125,2.67883 6.03125,6 0,3.32117 -2.71009,6 -6.03125,6 -3.32117,0 -6,-2.67883 -6,-6 0,-3.32117 2.67883,-6 6,-6 z" baseline-shift="baseline" color="#bebebe" direction="ltr" display="inline" enable-background="accumulate" font-family="Andale Mono" font-size="medium" font-stretch="normal" font-style="normal" font-variant="normal" font-weight="normal" letter-spacing="normal" overflow="visible" text-anchor="start" text-decoration="none" visibility="visible" word-spacing="normal" writing-mode="lr-tb" style="text-indent:0;text-align:start;line-height:normal;text-transform:none;block-progression:tb;marker:none;-inkscape-font-specification:Sans"/><path id="path16544-6" fill="#bebebe" fill-opacity="1" stroke="none" stroke-width="4" d="m 385.6875,363.0625 a 2.0029885,2.0029885 0 1 0 0.21875,4 l 6.125,0 a 2.0002,2.0002 0 1 0 0,-4 l -6.125,0 a 2.0002,2.0002 0 0 0 -0.21875,0 z" baseline-shift="baseline" color="#000" direction="ltr" display="inline" enable-background="accumulate" font-family="Sans" font-size="medium" font-stretch="normal" font-style="normal" font-variant="normal" font-weight="normal" letter-spacing="normal" overflow="visible" text-anchor="start" text-decoration="none" visibility="visible" word-spacing="normal" writing-mode="lr-tb" style="text-indent:0;text-align:start;line-height:normal;text-transform:none;block-progression:tb;marker:none;-inkscape-font-specification:Sans"/></g></svg>