<svg xmlns="http://www.w3.org/2000/svg" xmlns:svg="http://www.w3.org/2000/svg" id="svg7384" width="16" height="16" version="1.1"><metadata id="metadata90"/><title id="title9167">Gnome Symbolic Icon Theme</title><g id="layer9" display="inline" transform="translate(-181.0002,-357)"><path font-size="medium" style="text-indent:0;text-align:start;line-height:normal;text-transform:none;block-progression:tb;marker:none;-inkscape-font-specification:Sans" id="path10365" fill="#bebebe" fill-opacity="1" stroke="none" stroke-width="2" d="m 195.07599,369.90653 a 1.0001,1.0001 0 0 0 -0.0314,-0.12504 1.0001,1.0001 0 0 0 -1,-0.78125 l -1.68749,0 c 0.57793,-0.3823 1.08222,-0.84927 1.5,-1.40624 0.86676,-1.15564 1.25227,-2.53199 1.18749,-3.87501 -0.009,-0.19188 -0.0353,-0.37222 -0.0625,-0.56249 -0.21741,-1.52218 -1.02304,-2.97814 -2.34378,-3.96874 -2.64143,-1.98119 -6.42504,-1.42267 -8.40624,1.21875 -1.98122,2.64147 -1.42266,6.42504 1.21875,8.40624 a 1.0063276,1.0063276 0 0 0 0.59377,0.18747 1.0063276,1.0063276 0 0 0 0.1562,3e-5 l 0.84375,0 10e-6,-0.81251 -3e-5,-0.0938 a 1.0063276,1.0063276 0 0 0 -2e-5,-0.0938 1.0063276,1.0063276 0 0 0 -0.40627,-0.81248 c -1.77675,-1.33265 -2.11391,-3.81701 -0.78125,-5.59376 1.33264,-1.77674 3.81698,-2.11389 5.59375,-0.78124 1.77673,1.33264 2.1139,3.81698 0.78125,5.59374 -0.3221,0.42949 -0.73294,0.76958 -1.1875,1.03125 l -1e-5,-1.43749 a 1.0001,1.0001 0 0 0 -1,-1 1.0001,1.0001 0 0 0 -0.21874,-2e-5 l -0.78124,1e-5 0,0.84375 -3e-5,0.15622 0,4.00001 0,0.99999 1,1e-5 4.00001,-1e-5 a 1.0001,1.0001 0 0 0 0.1875,-8e-5 l 0.81249,0 -10e-6,-0.81251 a 1.0001,1.0001 0 0 0 0.0313,-0.28123 z" baseline-shift="baseline" color="#bebebe" direction="ltr" display="inline" enable-background="accumulate" font-family="Sans" font-stretch="normal" font-style="normal" font-variant="normal" font-weight="normal" letter-spacing="normal" overflow="visible" text-anchor="start" text-decoration="none" visibility="visible" word-spacing="normal" writing-mode="lr-tb"/></g></svg>