<svg xmlns="http://www.w3.org/2000/svg" xmlns:svg="http://www.w3.org/2000/svg" id="svg7384" width="16" height="16" version="1.1"><metadata id="metadata90"/><title id="title9167">Gnome Symbolic Icon Theme</title><g id="layer9" display="inline" transform="translate(-201.0002,-357)"><path id="path10395" fill="#bebebe" fill-opacity="1" stroke="none" stroke-width="2" d="m 208.7502,358 c -1.73094,0.0864 -3.41683,0.92045 -4.53125,2.40625 -0.37148,0.49528 -0.64784,1.03758 -0.84375,1.59375 l 2.21875,0 c 0.0797,-0.13684 0.1525,-0.27626 0.25,-0.40625 1.33264,-1.77674 3.81698,-2.1139 5.59375,-0.78125 1.77673,1.33264 2.1139,3.81699 0.78125,5.59375 -0.3221,0.42949 -0.73294,0.76958 -1.1875,1.03125 l 0,-1.4375 -1.02773,0 0.0277,5 4,0 c 0.0623,0.006 0.12519,0.006 0.1875,0 l 0.8125,0 0,-0.8125 c 0.0237,-0.0916 0.0342,-0.18665 0.0312,-0.28125 -0.008,-0.0423 -0.0182,-0.0841 -0.0312,-0.125 -0.10014,-0.44715 -0.5419,-0.79228 -1,-0.78125 l -1.6875,0 c 0.57793,-0.3823 1.08222,-0.84928 1.5,-1.40625 0.86676,-1.15564 1.25228,-2.53198 1.1875,-3.875 -0.009,-0.19188 -0.0353,-0.37223 -0.0625,-0.5625 -0.21741,-1.52218 -1.02301,-2.97815 -2.34375,-3.96875 -1.15562,-0.86677 -2.52871,-1.25471 -3.875,-1.1875 z" baseline-shift="baseline" color="#bebebe" direction="ltr" display="inline" enable-background="accumulate" font-family="Sans" font-size="medium" font-stretch="normal" font-style="normal" font-variant="normal" font-weight="normal" letter-spacing="normal" overflow="visible" text-anchor="start" text-decoration="none" visibility="visible" word-spacing="normal" writing-mode="lr-tb" style="text-indent:0;text-align:start;line-height:normal;text-transform:none;block-progression:tb;marker:none;-inkscape-font-specification:Sans"/><path id="path10403" fill="#bebebe" fill-opacity="1" stroke="none" stroke-width="1" d="m 205.03125,363.9375 c -1.08877,0 -2,0.87892 -2,1.96875 l 0,1.59375 1,0 0,-1.59375 c 0,-0.55143 0.45371,-0.96875 1,-0.96875 0.54629,0 0.96875,0.41732 0.96875,0.96875 l 0,1.5625 1,0 0,-1.5625 c 0,-1.08983 -0.87998,-1.96875 -1.96875,-1.96875 z" baseline-shift="baseline" color="#000" direction="ltr" display="inline" enable-background="accumulate" font-family="Sans" font-size="medium" font-stretch="normal" font-style="normal" font-variant="normal" font-weight="normal" letter-spacing="normal" overflow="visible" text-anchor="start" text-decoration="none" visibility="visible" word-spacing="normal" writing-mode="lr-tb" style="text-indent:0;text-align:start;line-height:normal;text-transform:none;block-progression:tb;marker:none;-inkscape-font-specification:Sans"/><rect id="rect11173" width="5.966" height="4.063" x="202.065" y="367" fill="#bebebe" fill-opacity="1" fill-rule="nonzero" stroke="none" stroke-width="1" color="#000" display="inline" enable-background="accumulate" overflow="visible" visibility="visible" style="marker:none"/></g></svg>