<svg xmlns="http://www.w3.org/2000/svg" xmlns:osb="http://www.openswatchbook.org/uri/2009/osb" xmlns:svg="http://www.w3.org/2000/svg" id="svg7384" width="16" height="16" enable-background="new" version="1.1"><metadata id="metadata90"/><title id="title8473">Paper Symbolic Icon Theme</title><defs id="defs7386"><linearGradient id="linearGradient5606" osb:paint="solid"><stop id="stop5608" offset="0" stop-color="#000" stop-opacity="1"/></linearGradient><filter id="filter7554" color-interpolation-filters="sRGB"><feBlend id="feBlend7556" in2="BackgroundImage" mode="darken"/></filter></defs><g id="layer9" display="inline" transform="translate(-525.00041,395.01034)"><path id="path10637" fill="#bebebe" fill-opacity="1" stroke="none" stroke-width="2" d="m 533.0002,-395 -6,1.99023 0,7 c 0,2.07164 1.57494,3.52182 2.9375,4.46875 1.36256,0.94693 3.0625,1.54102 3.0625,1.54102 0,0 1.70434,-0.61672 3.0625,-1.57227 1.35816,-0.95555 2.9375,-2.39317 2.9375,-4.4375 l 0,-7 -6,-1.99023 z m 0,2.10742 4,1.32617 0,5.55664 c 0,1.01427 -0.90506,1.97055 -2.08789,2.80274 -0.77536,0.54551 -1.43222,0.77757 -1.92383,0.98242 -0.49007,-0.19878 -1.13734,-0.42191 -1.91016,-0.95898 -1.16983,-0.813 -2.07812,-1.76819 -2.07812,-2.82618 l 0,-5.55664 4,-1.32617 z" baseline-shift="baseline" color="#bebebe" direction="ltr" display="inline" enable-background="accumulate" font-family="Sans" font-size="medium" font-stretch="normal" font-style="normal" font-variant="normal" font-weight="normal" letter-spacing="normal" overflow="visible" text-anchor="start" text-decoration="none" visibility="visible" word-spacing="normal" writing-mode="lr-tb" style="line-height:normal;-inkscape-font-specification:Sans;text-indent:0;text-align:start;text-decoration-line:none;text-transform:none;block-progression:tb;marker:none"/></g></svg>