<svg xmlns="http://www.w3.org/2000/svg" xmlns:osb="http://www.openswatchbook.org/uri/2009/osb" xmlns:svg="http://www.w3.org/2000/svg" id="svg7384" width="16" height="16" enable-background="new" version="1.1"><metadata id="metadata90"/><title id="title8473">Paper Symbolic Icon Theme</title><defs id="defs7386"><linearGradient id="linearGradient5606" osb:paint="solid"><stop id="stop5608" offset="0" stop-color="#000" stop-opacity="1"/></linearGradient><filter id="filter7554" color-interpolation-filters="sRGB"><feBlend id="feBlend7556" in2="BackgroundImage" mode="darken"/></filter></defs><g id="layer9" display="inline" transform="translate(-405.0004,375.00336)"><path id="path6775" fill="#bebebe" fill-opacity="1" stroke="none" d="m 413.0002,-374.28125 c -0.76797,0.75782 -1.50067,1.62857 -2.28125,2.37305 l -2.62695,0 0,2.62695 c -0.74462,0.78061 -1.61513,1.51326 -2.37305,2.28125 0.75788,0.76803 1.62848,1.53183 2.37305,2.3125 l 0,2.59766 2.62695,0 c 0.78061,0.74462 1.51326,1.61317 2.28125,2.37109 0.76803,-0.75788 1.53183,-1.62652 2.3125,-2.37109 l 2.5957,-0.002 0,-2.5957 c 0.74462,-0.78062 1.61513,-1.54451 2.37305,-2.3125 -0.75788,-0.76803 -1.62848,-1.50059 -2.37305,-2.28125 l 0,-2.62891 -2.5957,0.002 c -0.78062,-0.74462 -1.54451,-1.61513 -2.3125,-2.37305 z m 0,3.43359 2.5625,3.84375 -0.0625,0 -1.5,0 0,4.0625 -2,-0.0312 0,-4.03125 -1.5,0 -0.0625,0 c 1.16612,-1.70241 2.24519,-3.35582 2.5625,-3.84375 z"/></g></svg>