<svg xmlns="http://www.w3.org/2000/svg" xmlns:svg="http://www.w3.org/2000/svg" id="svg7384" width="16" height="16" version="1.1"><metadata id="metadata90"/><title id="title9167">Gnome Symbolic Icon Theme</title><g id="layer9" display="inline" transform="translate(-181.0002,-237)"><path id="path5721" fill="#bebebe" fill-opacity="1" fill-rule="nonzero" stroke="none" stroke-width="2" d="m 188.0002,238 c -1.6447,0 -3,1.3553 -3,3 l 0,3 -1,0 c -0.554,0 -1,0.446 -1,1 l 0,0.53125 0,5.46875 5,0 2,0 5,0 0,-5.46875 0,-0.53125 c 0,-0.554 -0.446,-1 -1,-1 l -1,0 0,-3 c 0,-1.6447 -1.3553,-3 -3,-3 l -2,0 z m 0,2 2,0 c 0.5713,0 1,0.4287 1,1 l 0,3 -4,0 0,-3 c 0,-0.5713 0.4287,-1 1,-1 z" color="#bebebe" display="inline" overflow="visible" visibility="visible" style="marker:none"/></g></svg>