<svg xmlns="http://www.w3.org/2000/svg" xmlns:svg="http://www.w3.org/2000/svg" id="svg7384" width="16" height="16" version="1.1"><metadata id="metadata90"/><title id="title9167">Gnome Symbolic Icon Theme</title><g id="layer9" display="inline" transform="translate(-161.03125,-397.00005)"><path id="rect4897-9" fill="#bebebe" fill-opacity="1" stroke="none" d="m 162.0002,399.5 0,11.9688 c 0,1.5312 1.5,1.5312 1.5,1.5312 l 4.5,0 0,-2 -4,0 0,-11 1,0 0,-2 -1.5,0 c 0,0 -1.5,0 -1.5,1.5 z m 10,-1.49995 0,2 1.03125,0 0,4.03125 1.96875,-0.0313 0,-4.5 c 0,-1.50004 -1.5,-1.5 -1.5,-1.5 z m -6.9375,4.03125 0,6.96875 2.9375,-5e-5 0,-3.00191 c 0,0 0,-1.99809 2,-1.99809 l 2,0 0,-2 z"/><rect id="rect4899-7" width="4.969" height="4" x="166.031" y="397" fill="#bebebe" fill-opacity="1" stroke="none" rx=".5" ry=".5"/><path id="path10898-3-1-1-6" fill="#f57900" fill-opacity="1" fill-rule="nonzero" stroke="none" stroke-width="2" d="m 170.0002,405 c -1,0 -1,1 -1,1 l 0,6 c 0,0 0,1 1,1 l 6,0 c 1,0 1,-1 1,-1 l 0,-6 c 0,-1 -1,-1 -1,-1 z m 2,1 2.03125,5e-5 0,4 -2.03125,-5e-5 z m 0,5 2.03125,5e-5 -0.0312,0.99995 -2,0 z" style="marker:none" class="warning" color="#bebebe" display="inline" overflow="visible" visibility="visible"/></g></svg>