<svg xmlns="http://www.w3.org/2000/svg" xmlns:svg="http://www.w3.org/2000/svg" id="svg7384" width="16" height="16" version="1.1"><metadata id="metadata90"/><title id="title9167">Gnome Symbolic Icon Theme</title><g id="layer9" display="inline" transform="translate(-181.03125,-397.00006)"><path id="rect4897-9-4" fill="#bebebe" fill-opacity="1" stroke="none" d="m 183.5002,398 c 0,0 -1.5,0 -1.5,1.5 l 0,11.9688 c 0,0 0,1.5312 1.5,1.5312 l 7.5,0 0,-2 -7.00005,0 0,-11 1.00005,0 0,-2 z m 8.5,0 0,2 1,0 0,7 2,0 0,-7.5 c 0,-1.5 -1.5,-1.5 -1.5,-1.5 z"/><rect id="rect4899-7-8" width="4.969" height="4" x="186.031" y="397" fill="#bebebe" fill-opacity="1" stroke="none" rx=".5" ry=".5"/><path id="path3761-2-3-5-4-8-9-8-9-9-0-6" fill="#bebebe" fill-opacity="1" stroke="none" stroke-width="2" d="m 192,408 1.375,0 1.125,1.09375 L 195.59375,408 197,408 l 0,1.46875 -1.09375,1.0625 L 197,411.59375 197,413 195.5625,413 194.5,411.9375 193.4375,413 192,413 l 0,-1.40625 1.0625,-1.0625 L 192,409.46875 192,408 z" color="#bebebe" display="inline" overflow="visible" visibility="visible" style="marker:none"/></g></svg>