<svg xmlns="http://www.w3.org/2000/svg" xmlns:svg="http://www.w3.org/2000/svg" id="svg7384" width="16" height="16" version="1.1"><metadata id="metadata90"/><title id="title9167">Gnome Symbolic Icon Theme</title><g id="layer9" display="inline" transform="translate(-121,-317)"><path font-stretch="normal" style="text-indent:0;text-align:start;line-height:normal;text-transform:none;block-progression:tb;marker:none;-inkscape-font-specification:Sans" id="rect5837-1" fill="#bebebe" fill-opacity="1" stroke="none" stroke-width="2" d="m 124.03145,317 c -1.66919,0 -3.03125,1.36206 -3.03125,3.03125 l 0,7.9375 c 0,1.66919 1.36206,3.03125 3.03125,3.03125 l 6.96875,0 0,-2 -2,0 0,-2 7,0 0,-6.96875 c 0,-1.66919 -1.36206,-3.03125 -3.03125,-3.03125 z m 0,2 8.9375,0 c 0.59578,0 1.03125,0.43547 1.03125,1.03125 l 0,5.96875 -11,0 0,-5.96875 c 0,-0.59578 0.43547,-1.03125 1.03125,-1.03125 z m -1.03125,8 5,0 0,2 -3.96875,0 c -0.59578,0 -1.03125,-0.43547 -1.03125,-1.03125 z" baseline-shift="baseline" color="#bebebe" direction="ltr" display="inline" enable-background="accumulate" font-family="Sans" font-size="medium" font-style="normal" font-variant="normal" font-weight="normal" letter-spacing="normal" opacity=".5" overflow="visible" text-anchor="start" text-decoration="none" visibility="visible" word-spacing="normal" writing-mode="lr-tb"/><path d="m 132.0002,328 1.375,0 1.125,1.09375 1.09375,-1.09375 1.40625,0 0,1.46875 -1.09375,1.0625 1.09375,1.0625 0,1.40625 -1.4375,0 -1.0625,-1.0625 -1.0625,1.0625 -1.4375,0 0,-1.40625 1.0625,-1.0625 -1.0625,-1.0625 0,-1.46875 z" style="marker:none" id="path3761-2-3-5-4-8-9-8-0-9-3" fill="#bebebe" fill-opacity="1" stroke="none" stroke-width="2" color="#bebebe" display="inline" overflow="visible" visibility="visible"/></g></svg>