<svg xmlns="http://www.w3.org/2000/svg" xmlns:svg="http://www.w3.org/2000/svg" id="svg2" width="16" height="16" version="1.0"><metadata id="metadata7"/><g id="layer3" display="inline" transform="translate(-0.4642613,-2.999982)"><path id="path2892" fill="#bebebe" fill-opacity="1" stroke="none" d="M 8 2 C 4.1340071 2 1 4.4101491 1 8 C 1 11.589851 4.1340071 14 8 14 C 9.064957 14 10.065093 13.770035 10.96875 13.375 L 15 15 L 13.5625 11.4375 C 14.465672 10.342799 15 9.485565 15 8 C 15 4.4101491 11.865993 2 8 2 z M 6 4 L 8 6 L 10 4 L 12 6 L 10 8 L 12 10 L 10 12 L 8 10 L 6 12 L 4 10 L 6 8 L 4 6 L 6 4 z" display="inline" opacity=".45" transform="translate(0.4642613,2.999982)"/></g></svg>