<svg xmlns="http://www.w3.org/2000/svg" xmlns:svg="http://www.w3.org/2000/svg" id="svg2" width="16" height="16" version="1.0"><metadata id="metadata7"/><g id="layer3" display="inline" transform="translate(-0.4642613,-2.999982)"><path id="path2863" fill="#bebebe" fill-opacity="1" stroke="none" d="m 13,8 c 0,2.209139 -2.238576,4 -5,4 C 5.2385763,12 3,10.209139 3,8 3,5.790861 5.2385763,4 8,4 c 0,0 10e-8,0 10e-8,0 L 8,8 z" opacity=".45" transform="translate(0.4642613,2.999982)"/><path id="path2892" fill="#bebebe" fill-opacity="1" stroke="none" d="M 8 2 C 4.1340071 2 1 4.4101491 1 8 C 1 11.589851 4.1340071 14 8 14 C 9.064957 14 10.065093 13.770035 10.96875 13.375 L 15 15 L 13.5625 11.4375 C 14.465672 10.342799 15 9.485565 15 8 C 15 4.4101491 11.865993 2 8 2 z M 8 4 C 10.761424 4 13 5.7908611 13 8 C 13 10.209139 10.761424 12 8 12 C 5.2385763 12 3 10.209139 3 8 C 3 5.7908611 5.2385763 4 8 4 z" display="inline" opacity="1" transform="translate(0.4642613,2.999982)"/></g></svg>