<svg xmlns="http://www.w3.org/2000/svg" xmlns:svg="http://www.w3.org/2000/svg" id="svg7384" width="16" height="16" version="1.1"><metadata id="metadata90"/><title id="title9167">Gnome Symbolic Icon Theme</title><g id="layer13" transform="translate(-482,-176)"><path id="rect4192" fill="#bebebe" fill-opacity="1" stroke="none" stroke-dasharray="none" stroke-dashoffset="0" stroke-linecap="butt" stroke-linejoin="round" stroke-miterlimit="4" stroke-opacity="1" stroke-width="2" d="M 5,0 5,1 2,1 C 1.446,1 1,1.446 1,2 L 1,3 15,3 15,2 C 15,1.446 14.554,1 14,1 l -3,0 0,-1 z m -3,4 0,1 0,1 0,8 c 0,0.554 0.446,1 1,1 l 10,0 c 0.554,0 1,-0.446 1,-1 L 14,6 14,5 14,4 13,4 3,4 Z" opacity="1" transform="translate(482,176)"/></g></svg>