<svg xmlns="http://www.w3.org/2000/svg" xmlns:svg="http://www.w3.org/2000/svg" id="svg2" width="16" height="16" version="1.0"><metadata id="metadata7"/><g id="layer3" display="inline" transform="translate(-0.4642613,-2.999982)"><path id="path2892" fill="#bebebe" fill-opacity="1" stroke="none" d="m 8.4642613,4.999982 c -3.8659929,0 -7,2.4101491 -7,6 0,3.589851 3.1340071,6 7,6 1.064957,0 2.0650927,-0.229965 2.9687497,-0.625 l 4.03125,1.625 -1.4375,-3.5625 c 0.903172,-1.094701 1.4375,-1.951935 1.4375,-3.4375 0,-3.5898509 -3.134007,-6 -6.9999997,-6 z m 0,2 c 2.7614237,0 4.9999997,1.790861 4.9999997,4 0,2.209139 -2.238576,4 -4.9999997,4 -2.7614237,0 -5,-1.790861 -5,-4 0,-2.209139 2.2385763,-4 5,-4 z" display="inline"/></g></svg>