<svg xmlns="http://www.w3.org/2000/svg" xmlns:svg="http://www.w3.org/2000/svg" id="svg7384" width="16" height="16" version="1.1"><metadata id="metadata90"/><title id="title9167">Gnome Symbolic Icon Theme</title><g id="layer9" display="inline" transform="translate(-140.99994,-297)"><path id="path5606" fill="#bebebe" fill-opacity="1" stroke="none" stroke-width="2" d="m 142.78125,302 a 1.0001,1.0001 0 0 0 -0.5,1.71875 l 2,2 0.71875,0.6875 0.71875,-0.6875 2,-2 a 1.016466,1.016466 0 1 0 -1.4375,-1.4375 L 145,303.5625 143.71875,302.28125 A 1.0001,1.0001 0 0 0 142.78125,302 z" baseline-shift="baseline" color="#000" direction="ltr" display="inline" enable-background="accumulate" font-family="Sans" font-size="medium" font-stretch="normal" font-style="normal" font-variant="normal" font-weight="normal" letter-spacing="normal" overflow="visible" text-anchor="start" text-decoration="none" visibility="visible" word-spacing="normal" writing-mode="lr-tb" style="text-indent:0;text-align:start;line-height:normal;text-transform:none;block-progression:tb;marker:none;-inkscape-font-specification:Sans"/><path id="path5608" fill="#bebebe" fill-opacity="1" stroke="none" stroke-width="2" d="m 147,298 c -1.6447,0 -3,1.3553 -3,3 l 0,4 2,0 0,-4 c 0,-0.5713 0.4287,-1 1,-1 l 4,0 c 0.5713,0 1,0.4287 1,1 l 0,8 c 0,0.5713 -0.4287,1 -1,1 l -4,0 0,2 4,0 c 1.6447,0 3,-1.3553 3,-3 l 0,-8 c 0,-1.6447 -1.3553,-3 -3,-3 l -4,0 z" baseline-shift="baseline" color="#000" direction="ltr" display="inline" enable-background="accumulate" font-family="Sans" font-size="medium" font-stretch="normal" font-style="normal" font-variant="normal" font-weight="normal" letter-spacing="normal" overflow="visible" text-anchor="start" text-decoration="none" visibility="visible" word-spacing="normal" writing-mode="lr-tb" style="text-indent:0;text-align:start;line-height:normal;text-transform:none;block-progression:tb;marker:none;-inkscape-font-specification:Sans"/><rect id="rect5610" width="1" height="1" x="-303" y="-148" fill="#bebebe" fill-opacity="1" fill-rule="nonzero" stroke="none" stroke-width="2" color="#000" display="inline" enable-background="accumulate" overflow="visible" transform="matrix(0,-1,-1,0,0,0)" visibility="visible" style="marker:none"/><rect id="rect5612" width="1" height="1" x="-303" y="-143" fill="#bebebe" fill-opacity="1" fill-rule="nonzero" stroke="none" stroke-width="2" color="#000" display="inline" enable-background="accumulate" overflow="visible" transform="matrix(0,-1,-1,0,0,0)" visibility="visible" style="marker:none"/></g></svg>