<svg xmlns="http://www.w3.org/2000/svg" xmlns:svg="http://www.w3.org/2000/svg" id="svg2" width="16" height="16" version="1.0"><metadata id="metadata7"/><g id="layer1"><path d="M 8.5,14.874521 C 8.5,15.522552 8.0604763,16 7.5000004,16 6.9356517,16 6.5,15.526117 6.5,14.874523 6.5,13.98275 7.4999997,13 7.4999997,13 7.4999997,13 8.5,13.983027 8.5,14.874521 z" style="marker:none" id="path3878" fill="#bebebe" fill-opacity="1" fill-rule="nonzero" stroke="none" stroke-width="1" color="#000" display="inline" enable-background="accumulate" overflow="visible" visibility="visible"/><path id="path3901" fill="#bebebe" fill-opacity="1" fill-rule="nonzero" stroke="none" stroke-width="2" d="M 7.5,0 C 5.164201,0 3.253781,1.785153 3.03125,4.0625 1.877066,4.283877 1,5.281256 1,6.5 1,7.880712 2.119288,9 3.5,9 l 4,0 4,0 C 13.432997,9 15,7.432997 15,5.5 15,3.567003 13.432997,2 11.5,2 11.41568,2 11.332827,2.02539 11.25,2.03125 10.446562,0.802689 9.077518,0 7.5,0 z" color="#000" display="inline" enable-background="accumulate" overflow="visible" visibility="visible" style="marker:none"/><path id="path3886" fill="#bebebe" fill-opacity="1" fill-rule="nonzero" stroke="none" stroke-width="1" d="M 11.5,12.874521 C 11.5,13.522552 11.060476,14 10.5,14 9.9356517,14 9.5,13.526117 9.5,12.874523 9.5,11.98275 10.5,11 10.5,11 c 0,0 1,0.983027 1,1.874521 z" color="#000" display="inline" enable-background="accumulate" overflow="visible" visibility="visible" style="marker:none"/><path d="M 5.5,11.874521 C 5.5,12.522552 5.060476,13 4.5,13 3.9356517,13 3.5,12.526117 3.5,11.874523 3.5,10.98275 4.5,10 4.5,10 c 0,0 1,0.983027 1,1.874521 z" style="marker:none" id="path3888" fill="#bebebe" fill-opacity="1" fill-rule="nonzero" stroke="none" stroke-width="1" color="#000" display="inline" enable-background="accumulate" overflow="visible" visibility="visible"/></g></svg>