<svg xmlns="http://www.w3.org/2000/svg" xmlns:svg="http://www.w3.org/2000/svg" id="svg2" width="16" height="16" version="1.0"><metadata id="metadata7"/><g id="layer1"><path d="M 7.5,19 C 6.0502525,19 4.8125789,19.868797 4.28125,21.125 4.033772,21.042976 3.7749966,21 3.5,21 2.1192881,21 1,22.119288 1,23.5 1,24.880712 2.1192881,26 3.5,26 l 4,0 5.5,0 c 1.104569,0 2,-0.895431 2,-2 0,-1.104569 -0.895431,-2 -2,-2 l -0.09375,0 C 12.959892,21.845681 13,21.672589 13,21.5 13,20.671573 12.328427,20 11.5,20 11.054111,20 10.649751,20.191152 10.375,20.5 9.7429986,19.589757 8.6920859,19 7.5,19 z" style="marker:none" id="path3798" fill="red" fill-opacity="1" fill-rule="nonzero" stroke="none" stroke-width="1" color="#000" display="inline" enable-background="accumulate" overflow="visible" visibility="visible"/><path d="m -13,-18 c -1.876884,0 -3.443707,1.287639 -3.875,3.03125 -1.20095,0.18255 -2.125,1.216816 -2.125,2.46875 0,1.380712 1.119288,2.5 2.5,2.5 l 9,0 c 1.380712,0 2.5,-1.119288 2.5,-2.5 0,-1.208123 -0.860792,-2.204384 -2,-2.4375 6.5e-4,-0.02096 0,-0.04138 0,-0.0625 0,-1.104569 -0.895431,-2 -2,-2 -0.379916,0 -0.728742,0.128564 -1.03125,0.3125 C -10.763238,-17.497359 -11.822389,-18 -13,-18 z" style="marker:none" id="path3863" fill="#6e6e6e" fill-opacity="1" fill-rule="nonzero" stroke="none" stroke-width="1" color="#000" display="inline" enable-background="accumulate" overflow="visible" visibility="visible"/><path id="path3090" fill="#bebebe" fill-opacity="1" stroke="none" stroke-width="1.5" d="m 57.707462,7.220267 c -3.484844,2.0649336 -5.544695,0.07251 -5.544695,0.07251 -0.268614,-0.3713631 -0.79862,-0.3309797 -1.031734,0.078611 -0.233115,0.409591 -0.105903,1.0769334 0.247636,1.2990797 0,0 3.075122,2.3817813 7.087555,-0.24115 1.830658,-1.1967033 4.364742,-1.7266232 6.409889,0.059647 -1.457298,-3.1678993 -5.088188,-2.50147 -7.168651,-1.2686978 z" color="#000" direction="ltr" display="inline" enable-background="accumulate" font-family="Abandoned Bitplane" font-size="medium" font-stretch="normal" font-style="normal" font-variant="normal" font-weight="normal" letter-spacing="normal" overflow="visible" text-anchor="start" text-decoration="none" visibility="visible" word-spacing="normal" writing-mode="lr-tb" style="text-indent:0;text-align:start;line-height:normal;text-transform:none;block-progression:tb;marker:none;-inkscape-font-specification:Abandoned Bitplane"/><path id="path3092" fill="#bebebe" fill-opacity="1" stroke="none" stroke-width="1.5" d="m 58.181571,4.63728 c 3.484844,-2.0649339 5.544695,-0.07251 5.544695,-0.07251 0.268614,0.371363 0.79862,0.330979 1.031734,-0.07861 0.233114,-0.409591 0.105903,-1.076934 -0.247636,-1.29908 0,0 -3.075123,-2.381781 -7.087555,0.24115 -1.830658,1.196703 -4.364742,1.726623 -6.409889,-0.05965 1.457298,3.167899 5.088187,2.50147 7.168651,1.268698 z" color="#000" direction="ltr" display="inline" enable-background="accumulate" font-family="Abandoned Bitplane" font-size="medium" font-stretch="normal" font-style="normal" font-variant="normal" font-weight="normal" letter-spacing="normal" overflow="visible" text-anchor="start" text-decoration="none" visibility="visible" word-spacing="normal" writing-mode="lr-tb" style="text-indent:0;text-align:start;line-height:normal;text-transform:none;block-progression:tb;marker:none;-inkscape-font-specification:Abandoned Bitplane"/><path id="path3094" fill="#bebebe" fill-opacity="1" stroke="none" stroke-width="1.5" d="m 58.181571,12.63728 c 3.484844,-2.064934 5.544695,-0.07251 5.544695,-0.07251 0.268614,0.371363 0.79862,0.330979 1.031734,-0.07861 0.233114,-0.409591 0.105903,-1.076934 -0.247636,-1.29908 0,0 -3.075123,-2.381781 -7.087555,0.24115 -1.830658,1.196703 -4.364742,1.726623 -6.409889,-0.05965 1.457298,3.167899 5.088187,2.50147 7.168651,1.268698 z" color="#000" direction="ltr" display="inline" enable-background="accumulate" font-family="Abandoned Bitplane" font-size="medium" font-stretch="normal" font-style="normal" font-variant="normal" font-weight="normal" letter-spacing="normal" overflow="visible" text-anchor="start" text-decoration="none" visibility="visible" word-spacing="normal" writing-mode="lr-tb" style="text-indent:0;text-align:start;line-height:normal;text-transform:none;block-progression:tb;marker:none;-inkscape-font-specification:Abandoned Bitplane"/><rect id="rect3858" width="7" height="2" x="5" y="-17" fill="#bebebe" fill-opacity="1" fill-rule="nonzero" stroke="none" stroke-width="2" color="#000" display="inline" enable-background="accumulate" overflow="visible" rx=".5" visibility="visible" style="marker:none"/><rect id="rect3091" width="8" height="1" x="-45" y="5" fill="#bebebe" fill-opacity="1" fill-rule="nonzero" stroke="none" stroke-width="2" color="#000" display="inline" enable-background="accumulate" overflow="visible" visibility="visible" style="marker:none"/><rect id="rect3093" width="7" height="1" x="-50" y="7" fill="#bebebe" fill-opacity="1" fill-rule="nonzero" stroke="none" stroke-width="2" color="#000" display="inline" enable-background="accumulate" overflow="visible" visibility="visible" style="marker:none"/><rect id="rect3095" width="8" height="1" x="-42" y="7" fill="#bebebe" fill-opacity="1" fill-rule="nonzero" stroke="none" stroke-width="2" color="#000" display="inline" enable-background="accumulate" overflow="visible" visibility="visible" style="marker:none"/><rect id="rect3097" width="9" height="1" x="-47" y="9" fill="#bebebe" fill-opacity="1" fill-rule="nonzero" stroke="none" stroke-width="2" color="#000" display="inline" enable-background="accumulate" overflow="visible" visibility="visible" style="marker:none"/><rect id="rect3099" width="8" height="1" x="-44" y="11" fill="#bebebe" fill-opacity="1" fill-rule="nonzero" stroke="none" stroke-width="2" color="#000" display="inline" enable-background="accumulate" overflow="visible" visibility="visible" style="marker:none"/><rect id="rect3101" width="7" height="2" x="0" y="-14" fill="#bebebe" fill-opacity="1" fill-rule="nonzero" stroke="none" stroke-width="2" color="#000" display="inline" enable-background="accumulate" overflow="visible" rx=".5" visibility="visible" style="marker:none"/><rect id="rect3103" width="7" height="2" x="9" y="-14" fill="#bebebe" fill-opacity="1" fill-rule="nonzero" stroke="none" stroke-width="2" color="#000" display="inline" enable-background="accumulate" overflow="visible" rx=".5" visibility="visible" style="marker:none"/><rect id="rect3105" width="8" height="2" x="3" y="-11" fill="#bebebe" fill-opacity="1" fill-rule="nonzero" stroke="none" stroke-width="2" color="#000" display="inline" enable-background="accumulate" overflow="visible" rx=".5" visibility="visible" style="marker:none"/><rect id="rect3107" width="7" height="2" x="7" y="-8" fill="#bebebe" fill-opacity="1" fill-rule="nonzero" stroke="none" stroke-width="2" color="#000" display="inline" enable-background="accumulate" overflow="visible" rx=".5" visibility="visible" style="marker:none"/><path id="path3109" fill="#bebebe" fill-opacity="1" stroke="none" d="m -21,5 3,-3 3,3 3,-3 3,3 3,-3 3,3 0,2 -3,-3 -3,3 -3,-3 -3,3 -3,-3 -3,3 z"/><path id="path3111" fill="#bebebe" fill-opacity="1" stroke="none" d="m -21,9 3,-3 3,3 3,-3 3,3 3,-3 3,3 0,2 -3,-3 -3,3 -3,-3 -3,3 -3,-3 -3,3 z"/><path id="path3113" fill="#bebebe" fill-opacity="1" stroke="none" d="m -21,13 3,-3 3,3 3,-3 3,3 3,-3 3,3 0,2 -3,-3 -3,3 -3,-3 -3,3 -3,-3 -3,3 z"/><path id="path3883" fill="#bebebe" fill-opacity="1" stroke="none" d="m 22,2 -2,2 0,2 2,-2 2,2 2,-2 2,2 2,-2 2,2 2,-2 2,2 L 36,4 34,2 32,4 30,2 28,4 26,2 24,4 22,2 z"/><path id="path3894" fill="#bebebe" fill-opacity="1" stroke="none" d="m 22,6 -2,2 0,2 2,-2 2,2 2,-2 2,2 2,-2 2,2 2,-2 2,2 L 36,8 34,6 32,8 30,6 28,8 26,6 24,8 22,6 z"/><path id="path3896" fill="#bebebe" fill-opacity="1" stroke="none" d="m 22,10 -2,2 0,2 2,-2 2,2 2,-2 2,2 2,-2 2,2 2,-2 2,2 0,-2 -2,-2 -2,2 -2,-2 -2,2 -2,-2 -2,2 -2,-2 z"/><rect id="rect3904" width="12" height="2" x="4" y="5" fill="#bebebe" fill-opacity="1" fill-rule="nonzero" stroke="none" stroke-width="2" color="#000" display="inline" enable-background="accumulate" overflow="visible" rx=".5" visibility="visible" style="marker:none"/><rect id="rect3906" width="13" height="2" x="0" y="8" fill="#bebebe" fill-opacity="1" fill-rule="nonzero" stroke="none" stroke-width="2" color="#000" display="inline" enable-background="accumulate" overflow="visible" rx=".5" visibility="visible" style="marker:none"/><rect id="rect3908" width="13" height="2" x="2" y="11" fill="#bebebe" fill-opacity="1" fill-rule="nonzero" stroke="none" stroke-width="2" color="#000" display="inline" enable-background="accumulate" overflow="visible" rx=".5" visibility="visible" style="marker:none"/></g></svg>