<svg xmlns="http://www.w3.org/2000/svg" xmlns:svg="http://www.w3.org/2000/svg" id="svg2" width="16" height="16" version="1.0"><metadata id="metadata7"/><g id="layer1"><path id="path3110" fill="#bebebe" fill-opacity="1" fill-rule="nonzero" stroke="none" stroke-width="2" d="M 8.5,7 C 6.164201,7 4.253781,8.785153 4.03125,11.0625 2.877066,11.283877 2,12.281256 2,13.5 2,14.880712 3.119288,16 4.5,16 l 4,0 4,0 C 14.432997,16 16,14.432997 16,12.5 16,10.567003 14.432997,9 12.5,9 12.41568,9 12.332827,9.025386 12.25,9.03125 11.446562,7.802689 10.077518,7 8.5,7 z" color="#000" display="inline" enable-background="accumulate" overflow="visible" visibility="visible" style="marker:none"/><path id="path3085" fill="#bebebe" fill-opacity="1" stroke="none" stroke-width="1.5" d="M 7.96875 2 C 4.6800742 2.0195351 2 4.7071798 2 8 C 2 8.9914475 2.2274277 9.9245987 2.65625 10.75 C 2.8281384 10.644205 3.0007752 10.550527 3.1875 10.46875 C 3.2822718 9.9896735 3.4493497 9.5535047 3.65625 9.125 C 3.5628783 8.7627109 3.5 8.3923671 3.5 8 C 3.5 6.0150917 4.7864763 4.4140218 6.5625 3.8125 C 6.3724566 4.3446346 6.25 4.9006198 6.25 5.5 C 6.25 5.831316 6.2842564 6.1548138 6.34375 6.46875 C 6.8028053 6.2626063 7.2943651 6.1303211 7.8125 6.0625 C 7.7840541 5.8753403 7.75 5.6954437 7.75 5.5 C 7.75 4.6443455 8.0623457 3.8637624 8.5625 3.21875 L 9.5 2 L 7.96875 2 z" baseline-shift="baseline" color="#000" direction="ltr" display="inline" enable-background="accumulate" font-family="Sans" font-size="medium" font-stretch="normal" font-style="normal" font-variant="normal" font-weight="normal" letter-spacing="normal" overflow="visible" text-anchor="start" text-decoration="none" visibility="visible" word-spacing="normal" writing-mode="lr-tb" style="text-indent:0;text-align:start;line-height:normal;text-transform:none;block-progression:tb;marker:none;-inkscape-font-specification:Sans"/></g></svg>