<svg xmlns="http://www.w3.org/2000/svg" xmlns:svg="http://www.w3.org/2000/svg" id="svg2" width="16" height="16" version="1.0"><metadata id="metadata7"/><g id="layer1"><path id="path3098" fill="#bebebe" fill-opacity="1" fill-rule="nonzero" stroke="none" stroke-width="2" d="m 12.5,9 c 1.932997,0 3.5,1.567003 3.5,3.5 0,1.932997 -1.567003,3.5 -3.5,3.5 l -3,0 C 8.119288,16 7,14.880712 7,13.5 7,12.17372 8.03855,11.114742 9.34375,11.03125 9.898474,9.830684 11.090611,9 12.5,9 z" color="#000" display="inline" enable-background="accumulate" overflow="visible" visibility="visible" style="marker:none"/><path id="path3085" fill="#bebebe" fill-opacity="1" stroke="none" stroke-width="1.5" d="M 7.96875 2 C 4.6800742 2.0195351 2 4.7071798 2 8 C 2 10.61632 3.6876898 12.838876 6.03125 13.65625 C 6.0287816 13.603356 6.03125 13.553437 6.03125 13.5 C 6.03125 13.024616 6.1306157 12.589131 6.3125 12.1875 C 4.6622949 11.521834 3.5 9.8949993 3.5 8 C 3.5 6.0150917 4.7864763 4.4140218 6.5625 3.8125 C 6.3724566 4.3446346 6.25 4.9006198 6.25 5.5 C 6.25 7.4639469 7.3607755 9.1392315 8.96875 10.03125 C 9.2480731 9.6227812 9.5861551 9.2446151 9.96875 8.9375 C 8.6567761 8.3552297 7.75 7.034513 7.75 5.5 C 7.75 4.6443455 8.0623457 3.8637624 8.5625 3.21875 L 9.5 2 L 7.96875 2 z" baseline-shift="baseline" color="#000" direction="ltr" display="inline" enable-background="accumulate" font-family="Sans" font-size="medium" font-stretch="normal" font-style="normal" font-variant="normal" font-weight="normal" letter-spacing="normal" overflow="visible" text-anchor="start" text-decoration="none" visibility="visible" word-spacing="normal" writing-mode="lr-tb" style="text-indent:0;text-align:start;line-height:normal;text-transform:none;block-progression:tb;marker:none;-inkscape-font-specification:Sans"/></g></svg>