<svg xmlns="http://www.w3.org/2000/svg" xmlns:svg="http://www.w3.org/2000/svg" id="svg3306" width="22" height="22" version="1.1" viewBox="0 0 22 22"><metadata id="metadata3348"/><path id="path3334" fill="#ed4737" fill-opacity="1" d="m 11.364036,7.997252 -0.736008,0.753273 c 0.906161,0.954683 0.906161,2.416919 0,3.371601 l 0.736008,0.753273 c 1.436403,-1.51863 1.436403,-3.359517 0,-4.878147 z" opacity=".4"/><path id="path3336" fill="#ed4737" fill-opacity="1" d="m 12.468049,7.62263 c 1.4918,1.522658 1.4918,4.479355 0,6.002013 l 1.104011,1.123868 c 2.136798,-2.179255 2.136798,-6.070494 0,-8.2497483 z" opacity=".4"/><path id="path3338" fill="#ed4737" fill-opacity="1" d="m 14.308068,6.1241406 c 2.623513,2.5297084 2.583942,6.4692844 0,8.9989924 L 15.41208,16.247 c 3.430747,-3.371601 3.470317,-7.875126 0,-11.2467267 z" opacity=".4"/><path id="path3342" fill="#ed4737" fill-opacity="1" d="m 9,6.000274 -2,2 0,5 2,2 3.2e-6,-3.003021 L 10.5,10.500274 9,9.000274 Z"/><path id="path3344" fill="#ed4737" fill-opacity="1" d="M 4.7499995,8.000274 C 4.3588707,8.000274 4,8.416196 4,8.836589 l 0,3.32737 c 0,0.483005 0.3266127,0.836315 0.7499995,0.836315 l 2.2500005,0 0,-5 z"/></svg>