<svg xmlns="http://www.w3.org/2000/svg" xmlns:svg="http://www.w3.org/2000/svg" id="svg3140" width="22" height="22" version="1.1" viewBox="0 0 22 22"><metadata id="metadata3190"/><path id="path3334" fill="#ececec" fill-opacity="1" d="m 11.364037,7.997252 -0.736009,0.753273 c 0.906162,0.954683 0.906162,2.416919 0,3.371601 l 0.736009,0.753273 c 1.436403,-1.51863 1.436403,-3.359517 0,-4.878147 z"/><path id="path3336" fill="#ececec" fill-opacity="1" d="m 12.468049,7.62263 c 1.491801,1.522658 1.491801,4.479355 0,6.002013 l 1.104012,1.123868 c 2.136798,-2.179255 2.136798,-6.070494 0,-8.2497484 z"/><path id="path3338" fill="#ececec" fill-opacity="1" d="m 14.308069,6.1241405 c 2.623513,2.5297075 2.583942,6.4692845 0,8.9989925 L 15.412081,16.247 c 3.430747,-3.371601 3.470317,-7.875126 0,-11.2467268 z" opacity=".4"/><path id="path3342-7" fill="#ececec" fill-opacity="1" d="m 9.0000002,6.0002739 -2,2.0000001 0,5 2,2 3.2e-6,-3.003021 L 10.5,10.500274 l -1.4999998,-1.5 z"/><path id="path3344-7" fill="#ececec" fill-opacity="1" d="M 4.7499997,8.000274 C 4.3588709,8.000274 4,8.416196 4,8.836589 l 0,3.32737 c 0,0.483005 0.3266129,0.836315 0.7499997,0.836315 l 2.2500005,0 0,-5 z"/></svg>