<svg xmlns="http://www.w3.org/2000/svg" xmlns:svg="http://www.w3.org/2000/svg" id="svg2" width="22" height="22" display="inline" version="1.0"><metadata id="metadata7"/><g id="layer1" display="inline"><path id="rect3771" fill="#ececec" fill-opacity="1" fill-rule="nonzero" stroke="none" stroke-width="8" d="M 9.5,4 C 9.223,4 9,4.223 9,4.5 L 9,5 7,5 C 6.446,5 6,5.446 6,6 l 0,11 c 0,0.554 0.446,1 1,1 l 8,0 c 0.554,0 1,-0.446 1,-1 L 16,6 C 16,5.446 15.554,5 15,5 L 13,5 13,4.5 C 13,4.223 12.777,4 12.5,4 Z M 10,7 14,13 11.541524,13 12,17 8,11 l 2.503603,0 z" color="#000" display="inline" enable-background="accumulate" overflow="visible" visibility="visible" style="marker:none"/></g></svg>