<svg xmlns="http://www.w3.org/2000/svg" xmlns:svg="http://www.w3.org/2000/svg" xmlns:xlink="http://www.w3.org/1999/xlink" id="svg6530" width="22" height="22" version="1.1" viewBox="0 0 22 22"><defs id="defs6532"><linearGradient id="linearGradient4947"><stop id="stop4949" offset="0" stop-color="#dbdee0" stop-opacity="1"/><stop id="stop4951" offset="1" stop-color="#dbdee0" stop-opacity="0"/></linearGradient><linearGradient id="linearGradient3780" x1="12" x2="23" y1="6" y2="10" gradientTransform="translate(448,368)" gradientUnits="userSpaceOnUse" xlink:href="#linearGradient4947"/><linearGradient id="linearGradient3768"><stop id="stop3770" offset="0" stop-color="#dbdee0" stop-opacity="1"/><stop id="stop3772" offset="1" stop-color="#dbdee0" stop-opacity="0"/></linearGradient><linearGradient id="linearGradient3787" x1="5.875" x2="3.875" y1="31.125" y2="4.125" gradientTransform="matrix(-1,0,0,1,471.875,367.875)" gradientUnits="userSpaceOnUse" xlink:href="#linearGradient3768"/><linearGradient id="linearGradient4963" x1="12" x2="23" y1="6" y2="10" gradientTransform="matrix(0.8660254,0.5,-0.5,0.8660254,455.6077,363.6077)" gradientUnits="userSpaceOnUse" xlink:href="#linearGradient4947"/><linearGradient id="linearGradient4965" x1="5.875" x2="3.875" y1="31.125" y2="4.125" gradientTransform="matrix(-0.8660254,-0.5,-0.5,0.8660254,476.34655,375.43694)" gradientUnits="userSpaceOnUse" xlink:href="#linearGradient3768"/><linearGradient id="linearGradient4977" x1="12" x2="23" y1="6" y2="10" gradientTransform="matrix(0.5,0.8660254,-0.8660254,0.5,464.39231,363.6077)" gradientUnits="userSpaceOnUse" xlink:href="#linearGradient4947"/><linearGradient id="linearGradient4979" x1="5.875" x2="3.875" y1="31.125" y2="4.125" gradientTransform="matrix(-0.5,-0.8660254,-0.8660254,0.5,476.43806,384.22155)" gradientUnits="userSpaceOnUse" xlink:href="#linearGradient3768"/><linearGradient id="linearGradient4991" x1="12" x2="23" y1="6" y2="10" gradientTransform="matrix(0,1,-1,0,472,368)" gradientUnits="userSpaceOnUse" xlink:href="#linearGradient4947"/><linearGradient id="linearGradient4993" x1="5.875" x2="3.875" y1="31.125" y2="4.125" gradientTransform="matrix(0,-1,-1,0,472.125,391.875)" gradientUnits="userSpaceOnUse" xlink:href="#linearGradient3768"/><linearGradient id="linearGradient5061" x1="12" x2="23" y1="6" y2="10" gradientTransform="matrix(-0.5,0.8660254,-0.8660254,-0.5,476.3923,375.6077)" gradientUnits="userSpaceOnUse" xlink:href="#linearGradient4947"/><linearGradient id="linearGradient5063" x1="5.875" x2="3.875" y1="31.125" y2="4.125" gradientTransform="matrix(0.5,-0.8660254,-0.8660254,-0.5,464.56305,396.34656)" gradientUnits="userSpaceOnUse" xlink:href="#linearGradient3768"/><linearGradient id="linearGradient5084" x1="12" x2="23" y1="6" y2="10" gradientTransform="matrix(-0.8660254,0.49999999,-0.49999999,-0.8660254,476.3923,384.39231)" gradientUnits="userSpaceOnUse" xlink:href="#linearGradient4947"/><linearGradient id="linearGradient5086" x1="5.875" x2="3.875" y1="31.125" y2="4.125" gradientTransform="matrix(0.8660254,-0.49999999,-0.49999999,-0.8660254,455.77844,396.43806)" gradientUnits="userSpaceOnUse" xlink:href="#linearGradient3768"/><linearGradient id="linearGradient5128" x1="12" x2="23" y1="6" y2="10" gradientTransform="matrix(-0.99999999,0,0,-0.99999999,471.99999,392)" gradientUnits="userSpaceOnUse" xlink:href="#linearGradient4947"/><linearGradient id="linearGradient5130" x1="5.875" x2="3.875" y1="31.125" y2="4.125" gradientTransform="matrix(0.99999999,0,0,-0.99999999,448.12499,392.125)" gradientUnits="userSpaceOnUse" xlink:href="#linearGradient3768"/><linearGradient id="linearGradient5140" x1="12" x2="23" y1="6" y2="10" gradientTransform="matrix(-0.8660254,-0.49999999,0.49999999,-0.8660254,464.3923,396.3923)" gradientUnits="userSpaceOnUse" xlink:href="#linearGradient4947"/><linearGradient id="linearGradient5142" x1="5.875" x2="3.875" y1="31.125" y2="4.125" gradientTransform="matrix(0.8660254,0.49999999,0.49999999,-0.8660254,443.65344,384.56305)" gradientUnits="userSpaceOnUse" xlink:href="#linearGradient3768"/><linearGradient id="linearGradient5152" x1="12" x2="23" y1="6" y2="10" gradientTransform="matrix(-0.5,-0.86602539,0.86602539,-0.5,455.60769,396.3923)" gradientUnits="userSpaceOnUse" xlink:href="#linearGradient4947"/><linearGradient id="linearGradient5154" x1="5.875" x2="3.875" y1="31.125" y2="4.125" gradientTransform="matrix(0.5,0.86602539,0.86602539,-0.5,443.56194,375.77844)" gradientUnits="userSpaceOnUse" xlink:href="#linearGradient3768"/><linearGradient id="linearGradient5164" x1="12" x2="23" y1="6" y2="10" gradientTransform="matrix(0,-0.99999999,0.99999999,0,448,392)" gradientUnits="userSpaceOnUse" xlink:href="#linearGradient4947"/><linearGradient id="linearGradient5166" x1="5.875" x2="3.875" y1="31.125" y2="4.125" gradientTransform="matrix(0,0.99999999,0.99999999,0,447.875,368.12499)" gradientUnits="userSpaceOnUse" xlink:href="#linearGradient3768"/><linearGradient id="linearGradient5176" x1="12" x2="23" y1="6" y2="10" gradientTransform="matrix(0.49999999,-0.8660254,0.8660254,0.49999999,443.6077,384.39231)" gradientUnits="userSpaceOnUse" xlink:href="#linearGradient4947"/><linearGradient id="linearGradient5178" x1="5.875" x2="3.875" y1="31.125" y2="4.125" gradientTransform="matrix(-0.49999999,0.8660254,0.8660254,0.49999999,455.43695,363.65345)" gradientUnits="userSpaceOnUse" xlink:href="#linearGradient3768"/><linearGradient id="linearGradient5188" x1="12" x2="23" y1="6" y2="10" gradientTransform="matrix(0.86602539,-0.5,0.5,0.86602539,443.6077,375.6077)" gradientUnits="userSpaceOnUse" xlink:href="#linearGradient4947"/><linearGradient id="linearGradient5190" x1="5.875" x2="3.875" y1="31.125" y2="4.125" gradientTransform="matrix(-0.86602539,0.5,0.5,0.86602539,464.22156,363.56195)" gradientUnits="userSpaceOnUse" xlink:href="#linearGradient3768"/></defs><metadata id="metadata6535"/><g id="layer1" transform="translate(-449,-649.36216)"><path id="path12393" fill="#dbdee0" fill-opacity="1" stroke="none" d="m 453.9998,652.36184 c 0,0 -2,0 -2,2.0625 l 0,11.9375 c 0,2 2,2 2,2 l 12,0 c 2,0 2,-2 2,-2 l 0,-12 c 0,0 0,-2 -2,-2 l -12,0 z m 0.0898,4.32422 1.38867,0 1.32617,3.9082 1.33594,-3.9082 1.39453,0 0,7.67578 -0.96094,0 0,-6.78125 -1.36914,4.04687 -0.78515,0 -1.37305,-4.04687 0,6.78125 -0.95703,0 0,-7.67578 z m 9.54687,1.77929 c 0.58612,0 1.02459,0.19276 1.3125,0.58008 0.29135,0.38389 0.43555,0.96655 0.43555,1.74805 l 0,3.56836 -0.95117,0 0,-3.56836 c 0,-0.51757 -0.0898,-0.89727 -0.27149,-1.14063 -0.18166,-0.24336 -0.46619,-0.36523 -0.85351,-0.36523 -0.44216,0 -0.78351,0.15731 -1.02344,0.47265 -0.2365,0.31192 -0.35547,0.76155 -0.35547,1.34766 l 0,3.25391 -0.94531,0 0,-5.75782 0.94531,0 0,0.86329 c 0.16796,-0.32905 0.39763,-0.57814 0.68555,-0.7461 0.28792,-0.17138 0.62731,-0.25586 1.02148,-0.25586 z" color="#bebebe"/><rect stroke="none" style="marker:none" id="rect12399" width="22" height="22" x="449" y="649.362" fill="none" stroke-width="1" color="#bebebe" display="inline" overflow="visible" visibility="visible"/></g></svg>