<svg xmlns="http://www.w3.org/2000/svg" xmlns:svg="http://www.w3.org/2000/svg" xmlns:xlink="http://www.w3.org/1999/xlink" id="svg6530" width="22" height="22" version="1.1" viewBox="0 0 22 22"><defs id="defs6532"><linearGradient id="linearGradient4947"><stop id="stop4949" offset="0" stop-color="#dbdee0" stop-opacity="1"/><stop id="stop4951" offset="1" stop-color="#dbdee0" stop-opacity="0"/></linearGradient><linearGradient id="linearGradient3780" x1="12" x2="23" y1="6" y2="10" gradientTransform="translate(448,368)" gradientUnits="userSpaceOnUse" xlink:href="#linearGradient4947"/><linearGradient id="linearGradient3768"><stop id="stop3770" offset="0" stop-color="#dbdee0" stop-opacity="1"/><stop id="stop3772" offset="1" stop-color="#dbdee0" stop-opacity="0"/></linearGradient><linearGradient id="linearGradient3787" x1="5.875" x2="3.875" y1="31.125" y2="4.125" gradientTransform="matrix(-1,0,0,1,471.875,367.875)" gradientUnits="userSpaceOnUse" xlink:href="#linearGradient3768"/><linearGradient id="linearGradient4963" x1="12" x2="23" y1="6" y2="10" gradientTransform="matrix(0.8660254,0.5,-0.5,0.8660254,455.6077,363.6077)" gradientUnits="userSpaceOnUse" xlink:href="#linearGradient4947"/><linearGradient id="linearGradient4965" x1="5.875" x2="3.875" y1="31.125" y2="4.125" gradientTransform="matrix(-0.8660254,-0.5,-0.5,0.8660254,476.34655,375.43694)" gradientUnits="userSpaceOnUse" xlink:href="#linearGradient3768"/><linearGradient id="linearGradient4977" x1="12" x2="23" y1="6" y2="10" gradientTransform="matrix(0.5,0.8660254,-0.8660254,0.5,464.39231,363.6077)" gradientUnits="userSpaceOnUse" xlink:href="#linearGradient4947"/><linearGradient id="linearGradient4979" x1="5.875" x2="3.875" y1="31.125" y2="4.125" gradientTransform="matrix(-0.5,-0.8660254,-0.8660254,0.5,476.43806,384.22155)" gradientUnits="userSpaceOnUse" xlink:href="#linearGradient3768"/><linearGradient id="linearGradient4991" x1="12" x2="23" y1="6" y2="10" gradientTransform="matrix(0,1,-1,0,472,368)" gradientUnits="userSpaceOnUse" xlink:href="#linearGradient4947"/><linearGradient id="linearGradient4993" x1="5.875" x2="3.875" y1="31.125" y2="4.125" gradientTransform="matrix(0,-1,-1,0,472.125,391.875)" gradientUnits="userSpaceOnUse" xlink:href="#linearGradient3768"/><linearGradient id="linearGradient5061" x1="12" x2="23" y1="6" y2="10" gradientTransform="matrix(-0.5,0.8660254,-0.8660254,-0.5,476.3923,375.6077)" gradientUnits="userSpaceOnUse" xlink:href="#linearGradient4947"/><linearGradient id="linearGradient5063" x1="5.875" x2="3.875" y1="31.125" y2="4.125" gradientTransform="matrix(0.5,-0.8660254,-0.8660254,-0.5,464.56305,396.34656)" gradientUnits="userSpaceOnUse" xlink:href="#linearGradient3768"/><linearGradient id="linearGradient5084" x1="12" x2="23" y1="6" y2="10" gradientTransform="matrix(-0.8660254,0.49999999,-0.49999999,-0.8660254,476.3923,384.39231)" gradientUnits="userSpaceOnUse" xlink:href="#linearGradient4947"/><linearGradient id="linearGradient5086" x1="5.875" x2="3.875" y1="31.125" y2="4.125" gradientTransform="matrix(0.8660254,-0.49999999,-0.49999999,-0.8660254,455.77844,396.43806)" gradientUnits="userSpaceOnUse" xlink:href="#linearGradient3768"/><linearGradient id="linearGradient5128" x1="12" x2="23" y1="6" y2="10" gradientTransform="matrix(-0.99999999,0,0,-0.99999999,471.99999,392)" gradientUnits="userSpaceOnUse" xlink:href="#linearGradient4947"/><linearGradient id="linearGradient5130" x1="5.875" x2="3.875" y1="31.125" y2="4.125" gradientTransform="matrix(0.99999999,0,0,-0.99999999,448.12499,392.125)" gradientUnits="userSpaceOnUse" xlink:href="#linearGradient3768"/><linearGradient id="linearGradient5140" x1="12" x2="23" y1="6" y2="10" gradientTransform="matrix(-0.8660254,-0.49999999,0.49999999,-0.8660254,464.3923,396.3923)" gradientUnits="userSpaceOnUse" xlink:href="#linearGradient4947"/><linearGradient id="linearGradient5142" x1="5.875" x2="3.875" y1="31.125" y2="4.125" gradientTransform="matrix(0.8660254,0.49999999,0.49999999,-0.8660254,443.65344,384.56305)" gradientUnits="userSpaceOnUse" xlink:href="#linearGradient3768"/><linearGradient id="linearGradient5152" x1="12" x2="23" y1="6" y2="10" gradientTransform="matrix(-0.5,-0.86602539,0.86602539,-0.5,455.60769,396.3923)" gradientUnits="userSpaceOnUse" xlink:href="#linearGradient4947"/><linearGradient id="linearGradient5154" x1="5.875" x2="3.875" y1="31.125" y2="4.125" gradientTransform="matrix(0.5,0.86602539,0.86602539,-0.5,443.56194,375.77844)" gradientUnits="userSpaceOnUse" xlink:href="#linearGradient3768"/><linearGradient id="linearGradient5164" x1="12" x2="23" y1="6" y2="10" gradientTransform="matrix(0,-0.99999999,0.99999999,0,448,392)" gradientUnits="userSpaceOnUse" xlink:href="#linearGradient4947"/><linearGradient id="linearGradient5166" x1="5.875" x2="3.875" y1="31.125" y2="4.125" gradientTransform="matrix(0,0.99999999,0.99999999,0,447.875,368.12499)" gradientUnits="userSpaceOnUse" xlink:href="#linearGradient3768"/><linearGradient id="linearGradient5176" x1="12" x2="23" y1="6" y2="10" gradientTransform="matrix(0.49999999,-0.8660254,0.8660254,0.49999999,443.6077,384.39231)" gradientUnits="userSpaceOnUse" xlink:href="#linearGradient4947"/><linearGradient id="linearGradient5178" x1="5.875" x2="3.875" y1="31.125" y2="4.125" gradientTransform="matrix(-0.49999999,0.8660254,0.8660254,0.49999999,455.43695,363.65345)" gradientUnits="userSpaceOnUse" xlink:href="#linearGradient3768"/><linearGradient id="linearGradient5188" x1="12" x2="23" y1="6" y2="10" gradientTransform="matrix(0.86602539,-0.5,0.5,0.86602539,443.6077,375.6077)" gradientUnits="userSpaceOnUse" xlink:href="#linearGradient4947"/><linearGradient id="linearGradient5190" x1="5.875" x2="3.875" y1="31.125" y2="4.125" gradientTransform="matrix(-0.86602539,0.5,0.5,0.86602539,464.22156,363.56195)" gradientUnits="userSpaceOnUse" xlink:href="#linearGradient3768"/></defs><metadata id="metadata6535"/><g id="layer1" transform="translate(-641,-649.36216)"><path id="path12473" fill="#dbdee0" fill-opacity="1" stroke="none" d="m 645.9998,652.36184 c 0,0 -2,0 -2,2.0625 l 0,11.9375 c 0,2 2,2 2,2 l 12,0 c 2,0 2,-2 2,-2 l 0,-12 c 0,0 0,-2 -2,-2 l -12,0 z m 0.0898,4.32422 1.38868,0 1.32617,3.9082 1.33593,-3.9082 1.39454,0 0,7.67578 -0.96094,0 0,-6.78125 -1.36914,4.04687 -0.78516,0 -1.37304,-4.04687 0,6.78125 -0.95704,0 0,-7.67578 z m 6.42774,1.91796 1.00195,0 1.70703,4.50391 1.68164,-4.50391 1.00196,0 -1.51758,3.90625 c -0.15767,0.40104 -0.35821,0.92932 -0.60156,1.58399 -0.33934,0.90489 -0.56706,1.45745 -0.6836,1.65625 -0.15767,0.26735 -0.35334,0.46789 -0.58984,0.60156 -0.23651,0.13367 -0.51279,0.20117 -0.82813,0.20117 l -0.76172,0 0,-0.79297 0.56055,0 c 0.27764,0 0.49468,-0.0811 0.65234,-0.24218 0.15767,-0.1611 0.35821,-0.57624 0.60157,-1.24805 l -2.22461,-5.66602 z" color="#bebebe"/><rect stroke="none" style="marker:none" id="rect12479" width="22" height="22" x="641" y="649.362" fill="none" stroke-width="1" color="#bebebe" display="inline" overflow="visible" visibility="visible"/></g></svg>