<svg xmlns="http://www.w3.org/2000/svg" xmlns:svg="http://www.w3.org/2000/svg" id="svg7384" width="22" height="22" version="1.1"><metadata id="metadata90"/><title id="title9167">Gnome Symbolic Icon Theme</title><g id="layer10" display="inline" transform="translate(-121,-441)"><path id="rect4890" fill="#ececec" fill-opacity="1" fill-rule="nonzero" stroke="none" stroke-width="3" d="m 125,446 c -0.554,0 -1,0.446 -1,1 l 0,10 c 0,0.554 0.446,1 1,1 l 14,0 c 0.554,0 1,-0.446 1,-1 l 0,-10 c 0,-0.554 -0.446,-1 -1,-1 z m 1.0002,2 2,0 0,2 -2,0 z m 3,0 2,0 0,2 -2,0 z m 3,0 2,0 0,2 -2,0 z m 3,0 2,0 0,2 -2,0 z m -8,3 2,0 0,2 -2,0 z m 3,0 2,0 0,2 -2,0 z m 3,0 2,0 0,2 -2,0 z m 3,0 2,0 0,2 -2,0 z m -10,3 2,0 0,2 -2,0 z m 3,0 6,0 0,2 -6,0 z m 7,0 3,0 0,2 -3,0 z" style="marker:none" color="#bebebe" display="inline" enable-background="accumulate" overflow="visible" visibility="visible"/></g></svg>