<svg xmlns="http://www.w3.org/2000/svg" xmlns:svg="http://www.w3.org/2000/svg" id="svg7384" width="22" height="22" version="1.1"><metadata id="metadata90"/><title id="title9167">Gnome Symbolic Icon Theme</title><defs id="defs7386"><clipPath id="clipPath6810-7-87" clipPathUnits="userSpaceOnUse"><rect id="rect6812-2-4" width="14" height="11" x="21" y="281" fill="none" stroke="#fff" stroke-dasharray="none" stroke-dashoffset="0" stroke-linecap="round" stroke-linejoin="round" stroke-miterlimit="4" stroke-opacity="1" stroke-width="2" color="#bebebe" display="inline" overflow="visible" visibility="visible" style="marker:none"/></clipPath></defs><g id="layer9" display="inline" transform="translate(-181,-191.00195)"><rect id="rect12327" width="5" height="10.013" x="187" y="194.987" fill="#ececec" fill-opacity="1" fill-rule="nonzero" stroke="none" stroke-width="2" color="#bebebe" display="inline" overflow="visible" rx="2.5" ry="2.5" visibility="visible" style="marker:none"/><path font-size="medium" style="line-height:normal;-inkscape-font-specification:Sans;text-indent:0;text-align:start;text-decoration-line:none;text-transform:none;block-progression:tb;marker:none" id="rect12329" fill="#ececec" fill-opacity="1" stroke="none" stroke-width="1.003" d="m 27.96875,273.625 c -2.502477,0 -4.53125,2.02877 -4.53125,4.53125 l 0,5.8125 c 0,2.50248 2.028773,4.53125 4.53125,4.53125 2.502477,0 4.53125,-2.02877 4.53125,-4.53125 l 0,-5.8125 c 0,-2.50248 -2.028773,-4.53125 -4.53125,-4.53125 z m 0,1 c 1.964148,0 3.53125,1.5671 3.53125,3.53125 l 0,5.8125 c 0,1.96415 -1.567102,3.53125 -3.53125,3.53125 -1.964148,0 -3.53125,-1.5671 -3.53125,-3.53125 l 0,-5.8125 c 0,-1.96415 1.567102,-3.53125 3.53125,-3.53125 z" baseline-shift="baseline" clip-path="url(#clipPath6810-7-87)" color="#bebebe" direction="ltr" display="inline" enable-background="accumulate" font-family="Sans" font-stretch="normal" font-style="normal" font-variant="normal" font-weight="normal" letter-spacing="normal" overflow="visible" text-anchor="start" text-decoration="none" transform="matrix(0.993968,0,0,1,161.70735,-81.486136)" visibility="visible" word-spacing="normal" writing-mode="lr-tb"/><circle id="path12331" cx="185.5" cy="199.5" r=".5" fill="#ececec" fill-opacity="1" stroke="none" stroke-width="2" color="#bebebe" display="inline" overflow="visible" visibility="visible" style="marker:none"/><circle id="path12333" cx="193.5" cy="199.5" r=".5" fill="#ececec" fill-opacity="1" stroke="none" stroke-width="2" color="#bebebe" display="inline" overflow="visible" visibility="visible" style="marker:none"/><path id="path12335" fill="#ececec" fill-opacity="1" stroke="none" stroke-width="2" d="m 185.87545,208 a 1.0019512,1.0019512 0 1 0 0.125,2 l 7.03125,0 a 1.0001,1.0001 0 1 0 0,-2 l -7.03125,0 a 1.0001,1.0001 0 0 0 -0.125,0 z" baseline-shift="baseline" color="#bebebe" direction="ltr" display="inline" enable-background="accumulate" font-family="Sans" font-size="medium" font-stretch="normal" font-style="normal" font-variant="normal" font-weight="normal" letter-spacing="normal" overflow="visible" text-anchor="start" text-decoration="none" visibility="visible" word-spacing="normal" writing-mode="lr-tb" style="line-height:normal;-inkscape-font-specification:Sans;text-indent:0;text-align:start;text-decoration-line:none;text-transform:none;block-progression:tb;marker:none"/><rect id="rect12337" width="9" height="1" x="185" y="209" fill="#ececec" fill-opacity="1" stroke="none" stroke-width="1" color="#bebebe" display="inline" overflow="visible" visibility="visible" style="marker:none"/><rect id="rect12339" width="3" height="4" x="188" y="206" fill="#ececec" fill-opacity="1" stroke="none" stroke-width="1" color="#bebebe" display="inline" overflow="visible" visibility="visible" style="marker:none"/><ellipse id="path12343" cx="197.001" cy="207" fill="#ececec" fill-opacity="1" stroke="none" stroke-width="1.278" color="#000" display="inline" enable-background="accumulate" overflow="visible" rx="2" ry="2" visibility="visible" style="marker:none"/><ellipse id="path12345" cx="197.001" cy="202" fill="#ececec" fill-opacity="1" stroke="none" stroke-width="1.278" color="#000" display="inline" enable-background="accumulate" overflow="visible" rx="2" ry="2" visibility="visible" style="marker:none"/><ellipse id="path12347" cx="197.001" cy="197" fill="#ececec" fill-opacity="1" stroke="none" stroke-width="1.278" color="#000" display="inline" enable-background="accumulate" overflow="visible" rx="2" ry="2" visibility="visible" style="marker:none"/></g></svg>