<svg xmlns="http://www.w3.org/2000/svg" xmlns:svg="http://www.w3.org/2000/svg" id="svg4148" width="22" height="22" version="1.1" viewBox="0 0 22 22"><metadata id="metadata4153"/><g id="layer1" transform="translate(0,-1030.3622)"><path id="path4700" fill="#ececec" fill-opacity="1" stroke="none" stroke-dasharray="none" stroke-dashoffset="0" stroke-linecap="butt" stroke-linejoin="round" stroke-miterlimit="4" stroke-opacity="1" stroke-width="2" d="M 10.833984,1035.3505 A 11.313713,12.02742 0 0 0 3,1038.872 l 8,8.5039 2,-2.127 0,-1.8867 1.775391,0 L 19,1038.872 a 11.313713,12.02742 0 0 0 -8.166016,-3.5215 z" opacity=".35"/><path id="path5898-0" fill="#ececec" fill-opacity="1" stroke="none" d="m 14,1044.3622 0,1 c 0,0.2761 0.10029,0.5378 0.28125,0.7188 l 0.78125,0.7812 -0.78125,0.7813 C 14.10029,1047.8244 14,1048.0861 14,1048.3622 l 0,1 1,0 c 0.27614,0 0.53779,-0.1003 0.71875,-0.2812 l 0.78125,-0.7813 0.78125,0.7813 c 0.18096,0.1809 0.44261,0.2812 0.71875,0.2812 l 1,0 0,-1 c 0,-0.2761 -0.10029,-0.5378 -0.28125,-0.7187 l -0.78125,-0.7813 0.78125,-0.7812 C 18.89971,1045.9 19,1045.6383 19,1045.3622 l 0,-1 -1,0 c -0.27614,0 -0.53779,0.1003 -0.71875,0.2813 l -0.78125,0.7812 -0.78125,-0.7812 c -0.18096,-0.181 -0.44261,-0.2813 -0.71875,-0.2813 l -1,0 z" display="inline" enable-background="new"/></g></svg>