<svg xmlns="http://www.w3.org/2000/svg" xmlns:svg="http://www.w3.org/2000/svg" id="svg7384" width="22" height="22" version="1.1"><metadata id="metadata90"/><title id="title9167">Gnome Symbolic Icon Theme</title><g id="layer9" display="inline" transform="translate(-141.0002,-251)"><path d="m 144.0222,262.9999 0,3 0,3 1,0 2,0 0,-3 -2,0 0,-3 -1,0 z" style="marker:none" id="rect4162" fill="#ececec" fill-opacity="1" fill-rule="nonzero" stroke="none" stroke-width="3" color="#bebebe" display="inline" opacity=".35" overflow="visible" visibility="visible"/><path d="m 156.0001,254.022 0,7 2,0 0,5 -2,0 0,3 3,0 0,-3 0,-5 0,-1 0,-6 -3,0 z" style="marker:none" id="rect4162-9" fill="#ececec" fill-opacity="1" fill-rule="nonzero" stroke="none" stroke-width="3" color="#bebebe" display="inline" opacity=".35" overflow="visible" visibility="visible"/><path d="m 148.0001,265.9999 0,3 3,0 0,-3 -3,0 z" style="marker:none" id="rect4162-92" fill="#ececec" fill-opacity="1" fill-rule="nonzero" stroke="none" stroke-width="3" color="#bebebe" display="inline" opacity=".35" overflow="visible" visibility="visible"/><path d="m 152.0001,265.9999 0,3 3,0 0,-3 -3,0 z" style="marker:none" id="rect4162-92-3" fill="#ececec" fill-opacity="1" fill-rule="nonzero" stroke="none" stroke-width="3" color="#bebebe" display="inline" opacity=".35" overflow="visible" visibility="visible"/><path d="m 148.0001,259.9999 0,1 3,0 0,-1 -3,0 z" style="marker:none" id="rect4162-92-5" fill="#ececec" fill-opacity="1" fill-rule="nonzero" stroke="none" stroke-width="3" color="#bebebe" display="inline" opacity=".35" overflow="visible" visibility="visible"/><path d="m 152.0001,256.9999 0,4 3,0 0,-4 -3,0 z" style="marker:none" id="rect4162-92-3-0" fill="#ececec" fill-opacity="1" fill-rule="nonzero" stroke="none" stroke-width="3" color="#bebebe" display="inline" opacity=".35" overflow="visible" visibility="visible"/><circle id="path4955-3" cx="147.5" cy="263.5" r="1.5" fill="#ececec" fill-opacity="1" stroke="none" display="inline"/><circle id="path4957-3" cx="151.5" cy="263.5" r="1.5" fill="#ececec" fill-opacity="1" stroke="none" display="inline"/><circle id="path4959-7" cx="155.5" cy="263.5" r="1.5" fill="#ececec" fill-opacity="1" stroke="none" display="inline"/></g></svg>