<svg xmlns="http://www.w3.org/2000/svg" xmlns:svg="http://www.w3.org/2000/svg" id="svg7384" width="22" height="22" version="1.1"><metadata id="metadata90"/><title id="title9167">Gnome Symbolic Icon Theme</title><g id="layer9" display="inline" transform="translate(-321.00021,-171)"><path font-stretch="normal" style="line-height:normal;-inkscape-font-specification:Sans;text-indent:0;text-align:start;text-decoration-line:none;text-transform:none;block-progression:tb;marker:none" id="path16189" fill="#ececec" fill-opacity="1" stroke="none" stroke-width="2" d="m 329.00046,181 c -0.30943,4e-5 -0.61463,0.0905 -0.8125,0.28125 L 324.59421,185 l 3.65625,3.71875 c 0.19771,0.19101 0.44055,0.28124 0.75,0.28125 l 1,0 0,-1 0,-1 4,0 0,-2 0,-2 -4,0 0,-1 0,-1 -1,0 z" baseline-shift="baseline" color="#000" direction="ltr" display="inline" enable-background="accumulate" font-family="Sans" font-size="medium" font-style="normal" font-variant="normal" font-weight="normal" letter-spacing="normal" opacity=".5" overflow="visible" text-anchor="start" text-decoration="none" visibility="visible" word-spacing="normal" writing-mode="lr-tb"/><path font-stretch="normal" style="line-height:normal;-inkscape-font-specification:Sans;text-indent:0;text-align:start;text-decoration-line:none;text-transform:none;block-progression:tb;marker:none" id="path16191" fill="#ececec" fill-opacity="1" stroke="none" stroke-width="2" d="m 334.00046,175 0,1 0,1 -4,0 0,2 0,2 4,0 0,1 0,1 1,0 c 0.30943,-4e-5 0.61463,-0.0905 0.8125,-0.28125 L 339.40671,179 l -3.65625,-3.71875 c -0.19771,-0.19101 -0.44055,-0.28124 -0.75,-0.28125 l -1,0 z" baseline-shift="baseline" color="#000" direction="ltr" display="inline" enable-background="accumulate" font-family="Sans" font-size="medium" font-style="normal" font-variant="normal" font-weight="normal" letter-spacing="normal" opacity="1" overflow="visible" text-anchor="start" text-decoration="none" visibility="visible" word-spacing="normal" writing-mode="lr-tb"/></g></svg>