<svg xmlns="http://www.w3.org/2000/svg" xmlns:svg="http://www.w3.org/2000/svg" id="svg4149" width="22" height="22" version="1.1" viewBox="0 0 22 22"><metadata id="metadata4154"/><g id="layer1" transform="translate(0,-1030.3622)"><path id="rect4699" fill="#ececec" fill-opacity="1" stroke="none" stroke-dasharray="none" stroke-dashoffset="0" stroke-linecap="butt" stroke-linejoin="round" stroke-miterlimit="4" stroke-opacity="1" stroke-width="2" d="m 6,1035.3622 c -1.108,0 -2,0.892 -2,2 l 0,7 c 0,1.108 0.892,2 2,2 l 1,0 1,1 6,0 1,-1 1,0 c 1.108,0 2,-0.892 2,-2 l 0,-7 c 0,-1.108 -0.892,-2 -2,-2 z m 0,2 10,0 0,7 -2,0 -1,1 -4,0 -1,-1 -2,0 z" opacity="1"/><text id="text4135" x="8.989" y="1044.579" fill="#ececec" fill-opacity="1" stroke="none" stroke-linecap="butt" stroke-linejoin="miter" stroke-opacity="1" stroke-width="1" font-family="Sans" font-size="45.253" font-style="normal" font-weight="bold" letter-spacing="0" word-spacing="0" xml:space="preserve" style="line-height:125%;-inkscape-font-specification:'Sans Bold'"><tspan font-size="9.051" style="-inkscape-font-specification:'Droid Sans Bold'" id="tspan4137" x="8.989" y="1044.579" fill="#ececec" fill-opacity="1" font-family="Droid Sans" font-stretch="normal" font-style="normal" font-variant="normal" font-weight="bold">?</tspan></text></g></svg>