<svg xmlns="http://www.w3.org/2000/svg" xmlns:svg="http://www.w3.org/2000/svg" id="svg4148" width="22" height="22" version="1.1" viewBox="0 0 22 22"><metadata id="metadata4153"/><g id="layer1" transform="translate(0,-1030.3622)"><path id="path4700" fill="#ececec" fill-opacity="1" stroke="none" stroke-dasharray="none" stroke-dashoffset="0" stroke-linecap="butt" stroke-linejoin="round" stroke-miterlimit="4" stroke-opacity="1" stroke-width="2" d="M 10.833984,1035.3505 A 11.313713,12.02742 0 0 0 3,1038.872 l 6.6230469,7.041 A 2,2 0 0 1 11,1045.3622 a 2,2 0 0 1 1.375,0.5508 L 19,1038.872 a 11.313713,12.02742 0 0 0 -8.166016,-3.5215 z" opacity=".35"/><path id="rect4229" fill="#ececec" fill-opacity="1" stroke="none" stroke-dasharray="none" stroke-dashoffset="0" stroke-linecap="butt" stroke-linejoin="round" stroke-miterlimit="4" stroke-opacity="1" stroke-width="2" d="m 8,1046.3622 c -0.554,0 -1,0.446 -1,1 0,0.554 0.446,1 1,1 0.554,0 1,-0.446 1,-1 0,-0.554 -0.446,-1 -1,-1 z m 3,0 c -0.554,0 -1,0.446 -1,1 0,0.554 0.446,1 1,1 0.554,0 1,-0.446 1,-1 0,-0.554 -0.446,-1 -1,-1 z m 3,0 c -0.554,0 -1,0.446 -1,1 0,0.554 0.446,1 1,1 0.554,0 1,-0.446 1,-1 0,-0.554 -0.446,-1 -1,-1 z" opacity="1"/></g></svg>