<svg xmlns="http://www.w3.org/2000/svg" xmlns:svg="http://www.w3.org/2000/svg" id="svg4149" width="22" height="22" version="1.1" viewBox="0 0 22 22"><metadata id="metadata4154"/><g id="layer1" transform="translate(0,-1030.3622)"><path id="rect4699" fill="#ececec" fill-opacity="1" stroke="none" stroke-dasharray="none" stroke-dashoffset="0" stroke-linecap="butt" stroke-linejoin="round" stroke-miterlimit="4" stroke-opacity="1" stroke-width="2" d="m 6,1035.3622 c -1.108,0 -2,0.892 -2,2 l 0,7 c 0,1.108 0.892,2 2,2 l 1,0 1,1 6,0 1,-1 1,0 c 1.108,0 2,-0.892 2,-2 l 0,-7 c 0,-1.108 -0.892,-2 -2,-2 z m 0,2 10,0 0,7 -2,0 -1,1 -4,0 -1,-1 -2,0 z" opacity="1"/></g></svg>