<svg xmlns="http://www.w3.org/2000/svg" xmlns:svg="http://www.w3.org/2000/svg" id="svg2" width="22" height="22" version="1.0"><metadata id="metadata7"/><g id="layer3" display="inline" transform="translate(-0.4642613,3.000018)"><path id="path2994" fill="#ececec" fill-opacity="1" stroke="none" d="m 11.464261,1.999982 c -3.8659926,0 -6.9999997,2.4101491 -6.9999997,6 0,3.589851 3.1340071,6 6.9999997,6 1.064957,0 2.065093,-0.229965 2.96875,-0.625 l 4.03125,1.625 -1.4375,-3.5625 c 0.903172,-1.094701 1.4375,-1.951935 1.4375,-3.4375 0,-3.5898509 -3.134007,-6 -7,-6 z m -2.9999997,5 c 0.5522847,0 1,0.447715 1,1 0,0.552285 -0.4477153,1 -1,1 -0.5522847,0 -1,-0.447715 -1,-1 0,-0.552285 0.4477153,-1 1,-1 z m 2.9999997,0 c 0.552285,0 1,0.447715 1,1 0,0.552285 -0.447715,1 -1,1 -0.552284,0 -1,-0.447715 -1,-1 0,-0.552285 0.447716,-1 1,-1 z m 3,0 c 0.552285,0 1,0.447715 1,1 0,0.552285 -0.447715,1 -1,1 -0.552285,0 -1,-0.447715 -1,-1 0,-0.552285 0.447715,-1 1,-1 z" display="inline" opacity="1"/></g></svg>