<svg xmlns="http://www.w3.org/2000/svg" xmlns:svg="http://www.w3.org/2000/svg" id="svg7384" width="16" height="16" version="1.1"><metadata id="metadata90"/><title id="title9167">Gnome Symbolic Icon Theme</title><g id="layer15" display="inline" transform="translate(-501.0002,-381)"><path id="path4597-1" fill="#bebebe" fill-opacity="1" stroke="none" stroke-width="2" d="m 515.90195,383.0005 c -0.0423,0.008 -0.0841,0.0181 -0.125,0.0312 -0.44715,0.10014 -0.79228,0.5419 -0.78125,1 l 0,1.6875 c 0.004,1.31255 0.004,1.31255 -1.5625,1.3125 l -1.4375,0 c -0.52358,5e-5 -0.99995,0.47642 -1,1 -0.008,0.0726 -0.008,0.14613 0,0.21875 l 0,0.78125 6,0 0,-1 0,-4 c 0.006,-0.0623 0.006,-0.12518 0,-0.1875 l 0,-0.8125 -0.8125,0 c -0.0916,-0.0236 -0.18665,-0.0342 -0.28125,-0.0312 z" baseline-shift="baseline" color="#bebebe" direction="ltr" display="inline" enable-background="accumulate" font-family="Sans" font-size="medium" font-stretch="normal" font-style="normal" font-variant="normal" font-weight="normal" letter-spacing="normal" overflow="visible" text-anchor="start" text-decoration="none" visibility="visible" word-spacing="normal" writing-mode="lr-tb" style="text-indent:0;text-align:start;line-height:normal;text-transform:none;block-progression:tb;marker:none;-inkscape-font-specification:Sans"/><path id="path10913" fill="#bebebe" fill-opacity="1" stroke="none" stroke-width="2" d="m 501.0047,389 0,1 0,4 c -0.006,0.0623 -0.006,0.12518 0,0.1875 l 0,0.8125 0.8125,0 c 0.0916,0.0236 0.18665,0.0342 0.28125,0.0312 0.0423,-0.008 0.0841,-0.0181 0.125,-0.0312 0.44715,-0.10014 0.79228,-0.5419 0.78125,-1 l 0,-1.6875 C 503.00029,391 503.00029,391 504.5672,391 l 1.4375,0 c 0.52358,-5e-5 0.99995,-0.47642 1,-1 0.008,-0.0726 0.008,-0.14613 0,-0.21875 l 0,-0.78125 z" baseline-shift="baseline" color="#bebebe" direction="ltr" display="inline" enable-background="accumulate" font-family="Sans" font-size="medium" font-stretch="normal" font-style="normal" font-variant="normal" font-weight="normal" letter-spacing="normal" overflow="visible" text-anchor="start" text-decoration="none" visibility="visible" word-spacing="normal" writing-mode="lr-tb" style="text-indent:0;text-align:start;line-height:normal;text-transform:none;block-progression:tb;marker:none;-inkscape-font-specification:Sans"/><path id="path1483" fill="#bebebe" fill-opacity="1" stroke="none" stroke-width="2.333" d="m 509.0002,382 c -3.15321,0 -5.81948,2.12571 -6.6875,5 l 2.09375,0 c 0.7734,-1.76501 2.53819,-3 4.59375,-3 2.05556,0 3.82035,1.23499 4.59375,3 l 2.09375,0 c -0.86802,-2.87429 -3.53429,-5 -6.6875,-5 z m -6.6875,9 c 0.86802,2.87429 3.53429,5 6.6875,5 3.15321,0 5.81948,-2.12571 6.6875,-5 l -2.09375,0 c -0.7734,1.76501 -2.53819,3 -4.59375,3 -2.05556,0 -3.82035,-1.23499 -4.59375,-3 l -2.09375,0 z" baseline-shift="baseline" color="#000" direction="ltr" display="inline" enable-background="accumulate" font-family="Sans" font-size="medium" font-stretch="normal" font-style="normal" font-variant="normal" font-weight="normal" letter-spacing="normal" overflow="visible" text-anchor="start" text-decoration="none" visibility="visible" word-spacing="normal" writing-mode="lr-tb" style="text-indent:0;text-align:start;line-height:normal;text-transform:none;block-progression:tb;marker:none;-inkscape-font-specification:Sans"/></g></svg>