<svg xmlns="http://www.w3.org/2000/svg" xmlns:svg="http://www.w3.org/2000/svg" id="svg7384" width="16" height="16" version="1.1"><metadata id="metadata90"/><title id="title9167">Gnome Symbolic Icon Theme</title><g id="layer15" display="inline" transform="translate(-462,-381.99998)"><g id="g35541" transform="translate(115.8093,-581.17812)"><path id="path35543" fill="#bebebe" fill-opacity="1" stroke="none" d="m 70,823 c -3.86599,0 -7,3.13401 -7,7 0,3.86599 3.13401,7 7,7 3.86599,0 7,-3.13401 7,-7 0,-3.86599 -3.13401,-7 -7,-7 z m -0.09375,1.96875 A 1.0001,1.0001 0 0 1 71,826 l 0,5 a 1.0001,1.0001 0 1 1 -2,0 l 0,-5 a 1.0001,1.0001 0 0 1 0.78125,-1 1.0001,1.0001 0 0 1 0.125,-0.0313 z M 70,833 c 0.552285,0 1,0.44772 1,1 0,0.55228 -0.447715,1 -1,1 -0.552285,0 -1,-0.44772 -1,-1 0,-0.55228 0.447715,-1 1,-1 z" transform="translate(284.1907,141.17812)"/></g></g></svg>