<svg xmlns="http://www.w3.org/2000/svg" xmlns:svg="http://www.w3.org/2000/svg" id="svg7384" width="16" height="16" version="1.1"><metadata id="metadata90"/><title id="title9167">Gnome Symbolic Icon Theme</title><g id="layer11" transform="translate(-162.0002,-530)"><path d="m 176.0002,530 c 1.19992,0 2,0.7984 2,2 l 0,4 -2,0 0,-3.75 c 0,-0.1238 -0.0566,-0.25 -0.1875,-0.25 l -11.625,0 c -0.1309,0 -0.1875,0.1262 -0.1875,0.25 l 0,11.75 c -1.19992,0 -2,-0.9234 -2,-2.125 l 0,-9.875 c 0,-1.2016 0.80008,-2 2,-2 z" style="marker:none" id="rect5238-9" fill="#bebebe" fill-opacity="1" fill-rule="nonzero" stroke="none" stroke-width="3" color="#bebebe" display="inline" enable-background="accumulate" overflow="visible" visibility="visible"/><path d="m 169.2502,536 c -0.47139,0 -0.74314,0.54175 -0.75,1 l 0,1 -2.5,0 c -0.46865,0.0651 -1,0.5417 -1,1 l 0,6 c 0,0.4583 0.52685,1 1,1 l 10,0 c 0.47315,0 1,-0.5417 1,-1 l 0,-6 c 0,-0.4583 -0.52685,-1 -1,-1 l -2.5,0 0,-1 c 0,-0.4583 -0.34111,-1 -0.8125,-1 z m 1.75,3 c 1.65685,0 3,1.34315 3,3 0,1.65685 -1.34315,3 -3,3 -1.65685,0 -3,-1.34315 -3,-3 0,-1.65685 1.34315,-3 3,-3 z" style="marker:none" id="rect5238-8" fill="#bebebe" fill-opacity="1" fill-rule="nonzero" stroke="none" stroke-width="3" color="#bebebe" display="inline" enable-background="accumulate" overflow="visible" visibility="visible"/><path id="path2998" fill="#bebebe" fill-opacity="1" fill-rule="nonzero" stroke="none" d="m -3.7537768,10.335032 a 0.96899819,1.335031 0 1 1 -1.9379964,0 0.96899819,1.335031 0 1 1 1.9379964,0 z" transform="matrix(2.0639875,0,0,1.4980924,180.74795,526.51717)"/></g></svg>