<svg xmlns="http://www.w3.org/2000/svg" xmlns:svg="http://www.w3.org/2000/svg" id="svg7384" width="16" height="16.033" version="1.1"><metadata id="metadata90"/><title id="title9167">Gnome Symbolic Icon Theme</title><g id="layer11" transform="translate(-263.0002,-648.99035)"><path id="path5241" fill="#bebebe" fill-opacity="1" stroke="none" stroke-width="2" d="M 269.875,649 A 1.0001,1.0001 0 0 0 269,650 l 0,3.5625 -1.28125,-1.28125 a 1.016466,1.016466 0 1 0 -1.4375,1.4375 L 269,656.4375 l 0,1.125 -2.71875,2.71875 a 1.016466,1.016466 0 1 0 1.4375,1.4375 L 269,660.4375 269,664 a 1.0001,1.0001 0 0 0 1.71875,0.71875 l 4,-4 a 1.0001,1.0001 0 0 0 0,-1.4375 L 272.4375,657 l 2.28125,-2.28125 a 1.0001,1.0001 0 0 0 0,-1.4375 l -4,-4 A 1.0001,1.0001 0 0 0 269.875,649 z M 271,652.4375 272.5625,654 271,655.5625 l 0,-3.125 z m 0,6 1.5625,1.5625 -1.5625,1.5625 0,-3.125 z" baseline-shift="baseline" color="#000" direction="ltr" display="inline" enable-background="accumulate" font-family="Sans" font-size="medium" font-stretch="normal" font-style="normal" font-variant="normal" font-weight="normal" letter-spacing="normal" overflow="visible" text-anchor="start" text-decoration="none" visibility="visible" word-spacing="normal" writing-mode="lr-tb" style="text-indent:0;text-align:start;line-height:normal;text-transform:none;block-progression:tb;marker:none;-inkscape-font-specification:Sans"/><rect id="rect5243" width="1" height="1" x="266" y="652" fill="#bebebe" fill-opacity="1" stroke="none"/><rect id="rect5245" width="1" height="1" x="266" y="661" fill="#bebebe" fill-opacity="1" stroke="none"/><rect id="rect5247" width="1" height="1" x="269" y="664" fill="#bebebe" fill-opacity="1" stroke="none"/><rect id="rect5249" width="1" height="1" x="269" y="649" fill="#bebebe" fill-opacity="1" stroke="none"/></g></svg>