<svg xmlns="http://www.w3.org/2000/svg" xmlns:svg="http://www.w3.org/2000/svg" id="svg7384" width="16" height="16" version="1.1"><metadata id="metadata90"/><title id="title9167">Gnome Symbolic Icon Theme</title><g id="layer11" transform="translate(-123.0002,-669)"><path id="path8268-0-7" fill="#bebebe" fill-opacity="1" stroke="none" d="m 125.5002,670 c -1.385,0 -2.5,1.11499 -2.5,2.5 l 0,1.4375 c 0.71291,-0.50478 1.57073,-0.94508 2.5,-0.94508 l 7.0625,0 c 1.26706,0 2.41714,0.69286 3.21875,1.57008 L 139.0002,672 l -4,0 c -0.23235,-1.14125 -1.22562,-2 -2.4375,-2 z"/><path id="path27962" fill="#bebebe" fill-opacity="1" stroke="none" d="m 125.5002,675 c -1.385,0 -2.5,1.11499 -2.5,2.5 l 0,5 c 0,1.385 1.115,2.5 2.5,2.5 l 7.0625,0 c 1.38501,0 2.48022,-1.11514 2.5,-2.5 l 0,-2.375 3.9375,-3.125 -4,0 c -0.23235,-1.14125 -1.22562,-2 -2.4375,-2 l -7.0625,0 z m 3.9375,1 c 1.31394,-0.0736 2.4889,0.93606 2.5625,2.25 -8e-5,1.12109 -0.30842,1.54366 -1.28125,2.28125 -0.15274,0.11491 -0.24173,0.20048 -0.28125,0.25 -0.0395,0.0497 -0.0312,0.0328 -0.0312,0.0312 0.006,0.42265 -0.3898,0.78125 -0.8125,0.78125 -0.4227,0 -0.78685,-0.3586 -0.78125,-0.78125 0,-0.40191 0.17939,-0.75474 0.375,-1 0.19561,-0.24531 0.38054,-0.42561 0.5625,-0.5625 0.16324,-0.12845 0.38116,-0.31388 0.5625,-0.53125 0.0748,-0.0897 0.097,-0.23988 0.0937,-0.34375 l 0,-0.0312 c -0.0253,-0.45059 -0.39316,-0.77528 -0.84375,-0.75 -0.45059,0.0253 -0.77528,0.36191 -0.75,0.8125 l -1.625,0 c -0.0736,-1.31395 0.93606,-2.33257 2.25,-2.40625 z m 0.15625,6.40625 c 0.44182,0 0.8125,0.37067 0.8125,0.8125 0,0.44182 -0.37068,0.78125 -0.8125,0.78125 -0.44182,0 -0.78125,-0.33943 -0.78125,-0.78125 0,-0.44183 0.33943,-0.8125 0.78125,-0.8125 z"/></g></svg>