<svg xmlns="http://www.w3.org/2000/svg" xmlns:svg="http://www.w3.org/2000/svg" id="svg7384" width="16" height="16" version="1.1"><metadata id="metadata90"/><title id="title9167">Gnome Symbolic Icon Theme</title><g id="layer11" transform="translate(-83.0002,-669)"><path d="m 94.983734,679.92188 a 1.984375,1.984375 0 0 1 -1.984375,1.98437 1.984375,1.984375 0 0 1 -1.984375,-1.98437 1.984375,1.984375 0 0 1 1.984375,-1.98438 1.984375,1.984375 0 0 1 1.984375,1.98438 z" style="marker:none" id="path18806-9" fill="#bebebe" fill-opacity="1" fill-rule="nonzero" stroke="none" stroke-width="1" color="#000" display="inline" enable-background="new" overflow="visible" visibility="visible"/><path font-size="medium" style="text-indent:0;text-align:start;line-height:normal;text-transform:none;block-progression:tb;marker:none;isolation:auto;mix-blend-mode:normal;-inkscape-font-specification:sans-serif" id="path11089" fill="#bebebe" fill-opacity="1" stroke="none" stroke-width="2" d="m 84.5,679 a 1.0001,1.0001 0 1 0 0,2 l 13,0 a 1.0001,1.0001 0 1 0 0,-2 l -13,0 z" baseline-shift="baseline" clip-rule="nonzero" color="#000" color-interpolation="sRGB" color-interpolation-filters="linearRGB" color-rendering="auto" direction="ltr" display="inline" enable-background="accumulate" font-family="sans-serif" font-stretch="normal" font-style="normal" font-variant="normal" font-weight="normal" image-rendering="auto" letter-spacing="normal" overflow="visible" paint-order="normal" shape-rendering="auto" text-anchor="start" text-decoration="none" text-rendering="auto" visibility="visible" word-spacing="normal" writing-mode="lr-tb"/><path id="path11091" fill="#bebebe" fill-opacity="1" stroke="none" d="m 84.03145,675.96875 13.9375,0 0,-3.9375 z"/></g></svg>