<svg xmlns="http://www.w3.org/2000/svg" xmlns:svg="http://www.w3.org/2000/svg" id="svg7384" width="16" height="16" version="1.1"><metadata id="metadata90"/><title id="title9167">Gnome Symbolic Icon Theme</title><g id="layer11" transform="translate(-262,-381)"><path d="m 274.1086,387 c 0.61968,0.75088 0.99548,1.7106 0.99548,2.76018 0,2.39905 -1.94483,4.34389 -4.3439,4.34389 -1.04958,0 -2.00928,-0.37579 -2.76018,-0.99547 0.52525,2.23887 2.53308,3.8914 4.93213,3.8914 2.79892,0 5.06787,-2.26897 5.06787,-5.06787 0,-2.39908 -1.65253,-4.40688 -3.8914,-4.93213 z" style="marker:none" id="path5549" fill="#bebebe" fill-opacity="1" fill-rule="nonzero" stroke="none" stroke-width="1" color="#bebebe" display="inline" enable-background="accumulate" overflow="visible" visibility="visible"/><rect id="rect5595" width="1.442" height="1.442" x="267.79" y="383.79" fill="#bebebe" fill-opacity="1" fill-rule="nonzero" stroke="none" stroke-width="1" color="#bebebe" display="inline" enable-background="accumulate" overflow="visible" rx=".721" ry=".721" visibility="visible" style="marker:none"/><rect id="rect5597" width="1.398" height="1.398" x="271.813" y="384.813" fill="#bebebe" fill-opacity="1" fill-rule="nonzero" stroke="none" stroke-width="1" color="#bebebe" display="inline" enable-background="accumulate" overflow="visible" rx=".699" ry=".699" visibility="visible" style="marker:none"/><rect id="rect5599" width="1.442" height="1.442" x="268.79" y="386.79" fill="#bebebe" fill-opacity="1" fill-rule="nonzero" stroke="none" stroke-width="1" color="#bebebe" display="inline" enable-background="accumulate" overflow="visible" rx=".721" ry=".721" visibility="visible" style="marker:none"/><path id="path11638" fill="#bebebe" fill-opacity="1" fill-rule="nonzero" stroke="none" stroke-width="1" d="M 265,393 264.25492,390.74508 262,390 264.25492,389.25492 265,387 265.74508,389.25492 268,390 l -2.25492,0.74508 z" color="#000" display="inline" enable-background="accumulate" overflow="visible" transform="translate(0.50492,-3.495079)" visibility="visible" style="marker:none"/></g></svg>