<svg xmlns="http://www.w3.org/2000/svg" xmlns:svg="http://www.w3.org/2000/svg" id="svg7384" width="16" height="16" version="1.1"><metadata id="metadata90"/><title id="title9167">Gnome Symbolic Icon Theme</title><g id="layer11" transform="translate(-243.0002,-509)"><path d="m 244.5019,517 c -0.83194,0 -1.5017,0.669 -1.5017,1.5 l 0,4 c 0,0.831 0.66976,1.5 1.5017,1.5 l 9.01024,0 c 0.83194,0 1.5017,-0.669 1.5017,-1.5 l 0,-4 c 0,-0.831 -0.66976,-1.5 -1.5017,-1.5 z m 0.0626,1 c 3.18558,0.26867 6.11566,0.23073 8.88509,0 0.30226,-0.0252 0.56314,0.25953 0.56314,0.5625 l 0,2.875 c 0,0.30297 -0.26175,0.52842 -0.56314,0.5625 -3.00415,0.33966 -5.96427,0.32696 -8.88509,0 -0.30144,-0.0337 -0.56314,-0.25953 -0.56314,-0.5625 l 0,-2.875 c 0,-0.30297 0.26089,-0.58799 0.56314,-0.5625 z" style="marker:none" id="rect5333-9" fill="#bebebe" fill-opacity="1" fill-rule="nonzero" stroke="none" stroke-width="1" color="#000" display="inline" enable-background="accumulate" overflow="visible" visibility="visible"/><path d="m 252.511,509 c -0.83194,0 -1.5017,0.669 -1.5017,1.5 l 0,4 c 0,0.831 0.66976,1.5 1.5017,1.5 l 4.00455,0 c 0.83195,0 1.50171,-0.669 1.50171,-1.5 l 0,-4 c 0,-0.831 -0.66976,-1.5 -1.50171,-1.5 z m 0.0626,1 c 1.29314,0.1279 2.58627,0.12207 3.87941,0 0.30197,-0.0285 0.56314,0.25953 0.56314,0.5625 l 0,2.875 c 0,0.30297 -0.26208,0.52562 -0.56314,0.5625 -1.25472,0.1537 -2.54147,0.17922 -3.87941,0 -0.30063,-0.0403 -0.56314,-0.25953 -0.56314,-0.5625 l 0,-2.875 c 0,-0.30297 0.2613,-0.59235 0.56314,-0.5625 z" style="marker:none" id="rect5333-9-8" fill="#bebebe" fill-opacity="1" fill-rule="nonzero" stroke="none" stroke-width="1" color="#000" display="inline" enable-background="accumulate" overflow="visible" visibility="visible"/><path d="m 244.5019,510 c -0.83194,0 -1.5017,0.669 -1.5017,1.5 l 0,3 c 0,0.831 0.66976,1.5 1.5017,1.5 l 4.00455,0 c 0.83195,0 1.50171,-0.669 1.50171,-1.5 l 0,-3 c 0,-0.831 -0.66976,-1.5 -1.50171,-1.5 z m 0.0626,1 c 1.69195,0.19941 2.84796,0.13085 3.8794,0 0.3009,-0.0382 0.56314,0.25953 0.56314,0.5625 l 0,2.875 c 0,0.30297 -0.26231,0.5238 -0.56314,0.5625 -1.21498,0.1563 -2.49789,0.17677 -3.8794,0 -0.30087,-0.0385 -0.56314,-0.25953 -0.56314,-0.5625 l 0,-2.875 c 0,-0.30297 0.2619,-0.598 0.56314,-0.5625 z" style="marker:none" id="path11636" fill="#bebebe" fill-opacity="1" fill-rule="nonzero" stroke="none" stroke-width="1" color="#000" display="inline" enable-background="accumulate" overflow="visible" visibility="visible"/></g></svg>