<svg xmlns="http://www.w3.org/2000/svg" xmlns:svg="http://www.w3.org/2000/svg" id="svg7384" width="16" height="16" version="1.1"><metadata id="metadata90"/><title id="title9167">Gnome Symbolic Icon Theme</title><g id="layer11" transform="translate(-283,-649)"><path id="path8587" fill="#bebebe" fill-opacity="1" stroke="none" stroke-width="2.154" d="m 291.0002,650.00714 c -2.20283,0 -3.99286,1.79004 -3.99286,3.99286 0,2.20282 1.79003,3.99286 3.99286,3.99286 2.20282,0 3.99285,-1.79004 3.99285,-3.99286 0,-2.20282 -1.79003,-3.99286 -3.99285,-3.99286 z m 0,1.05238 c 1.62635,0 2.94047,1.31413 2.94047,2.94048 0,1.62635 -1.31412,2.94048 -2.94047,2.94048 -1.62636,0 -2.94048,-1.31413 -2.94048,-2.94048 0,-1.62635 1.31412,-2.94048 2.94048,-2.94048 z" baseline-shift="baseline" color="#000" direction="ltr" display="inline" enable-background="new" font-family="Sans" font-size="medium" font-stretch="normal" font-style="normal" font-variant="normal" font-weight="normal" letter-spacing="normal" overflow="visible" text-anchor="start" text-decoration="none" visibility="visible" word-spacing="normal" writing-mode="lr-tb" style="text-indent:0;text-align:start;line-height:normal;text-transform:none;block-progression:tb;marker:none;-inkscape-font-specification:Sans"/><path id="path8591" fill="#bebebe" fill-opacity="1" stroke="none" stroke-width="2.154" d="m 287.0002,657.00714 c -2.20283,0 -3.99286,1.79004 -3.99286,3.99286 0,2.20282 1.79003,3.99286 3.99286,3.99286 2.20282,0 3.99285,-1.79004 3.99285,-3.99286 0,-2.20282 -1.79003,-3.99286 -3.99285,-3.99286 z m 0,1.05238 c 1.62635,0 2.94047,1.31413 2.94047,2.94048 0,1.62635 -1.31412,2.94048 -2.94047,2.94048 -1.62636,0 -2.94048,-1.31413 -2.94048,-2.94048 0,-1.62635 1.31412,-2.94048 2.94048,-2.94048 z" baseline-shift="baseline" color="#000" direction="ltr" display="inline" enable-background="new" font-family="Sans" font-size="medium" font-stretch="normal" font-style="normal" font-variant="normal" font-weight="normal" letter-spacing="normal" overflow="visible" text-anchor="start" text-decoration="none" visibility="visible" word-spacing="normal" writing-mode="lr-tb" style="text-indent:0;text-align:start;line-height:normal;text-transform:none;block-progression:tb;marker:none;-inkscape-font-specification:Sans"/><path id="path8593" fill="#bebebe" fill-opacity="1" stroke="none" stroke-width="2.154" d="m -2,321 a 7,7 0 1 1 -14,0 7,7 0 1 1 14,0 z" color="#000" display="inline" enable-background="new" overflow="visible" transform="matrix(0.57130665,0,0,0.57130665,300.14111,477.61056)" visibility="visible" style="marker:none"/><path id="path8595" fill="#bebebe" fill-opacity=".364" stroke="none" stroke-width="2.154" d="m -2,321 a 7,7 0 1 1 -14,0 7,7 0 1 1 14,0 z" color="#000" display="inline" enable-background="new" overflow="visible" transform="matrix(0.49523816,0,0,0.49523816,291.45734,502.02855)" visibility="visible" style="marker:none"/></g></svg>