<svg xmlns="http://www.w3.org/2000/svg" xmlns:svg="http://www.w3.org/2000/svg" id="svg7384" width="16" height="16" version="1.1"><metadata id="metadata90"/><title id="title9167">Gnome Symbolic Icon Theme</title><g id="layer11" transform="translate(-223,-649)"><path id="path24839" fill="#bebebe" fill-opacity="1" stroke="none" stroke-width="2.154" d="m 230.5002,649.01339 c -4.13029,0 -7.48661,3.35631 -7.48661,7.48661 0,4.13029 3.35632,7.48661 7.48661,7.48661 4.13029,0 7.4866,-3.35632 7.4866,-7.48661 0,-4.1303 -3.35631,-7.48661 -7.4866,-7.48661 z m 0,1.97322 c 3.04941,0 5.51339,2.46398 5.51339,5.51339 0,3.04941 -2.46398,5.51339 -5.51339,5.51339 -3.04941,0 -5.5134,-2.46398 -5.5134,-5.51339 0,-3.04941 2.46399,-5.51339 5.5134,-5.51339 z" baseline-shift="baseline" color="#000" direction="ltr" display="inline" enable-background="new" font-family="Sans" font-size="medium" font-stretch="normal" font-style="normal" font-variant="normal" font-weight="normal" letter-spacing="normal" overflow="visible" text-anchor="start" text-decoration="none" visibility="visible" word-spacing="normal" writing-mode="lr-tb" style="text-indent:0;text-align:start;line-height:normal;text-transform:none;block-progression:tb;marker:none;-inkscape-font-specification:Sans"/><path id="path25609" fill="#bebebe" fill-opacity="1" stroke="none" stroke-width="1" d="m 227.3125,652.96875 a 0.50005,0.50005 0 0 0 -0.21875,0.84375 l 3.09375,3.0625 a 0.50005,0.50005 0 0 0 0.0625,0.0312 0.50005,0.50005 0 0 0 0.0625,0.0312 0.50005,0.50005 0 0 0 0.0625,0.0312 0.50005,0.50005 0 0 0 0.0312,0 0.50005,0.50005 0 0 0 0.0625,0.0312 0.50005,0.50005 0 0 0 0.0937,0 l 0.15625,0 2.78125,0 a 0.50005,0.50005 0 1 0 0,-1 l -2.75,0 -2.96875,-2.875 a 0.50005,0.50005 0 0 0 -0.46875,-0.15625 z" baseline-shift="baseline" color="#000" direction="ltr" display="inline" enable-background="new" font-family="Sans" font-size="medium" font-stretch="normal" font-style="normal" font-variant="normal" font-weight="normal" letter-spacing="normal" overflow="visible" text-anchor="start" text-decoration="none" visibility="visible" word-spacing="normal" writing-mode="lr-tb" style="text-indent:0;text-align:start;line-height:normal;text-transform:none;block-progression:tb;marker:none;-inkscape-font-specification:Sans"/></g></svg>