<svg xmlns="http://www.w3.org/2000/svg" xmlns:svg="http://www.w3.org/2000/svg" id="svg7384" width="16" height="16" version="1.1"><metadata id="metadata90"/><title id="title9167">Gnome Symbolic Icon Theme</title><g id="layer11" transform="translate(-203.00045,-529)"><g id="g4649" transform="translate(183.00045,312)"><path font-stretch="normal" style="text-indent:0;text-align:start;line-height:normal;text-transform:none;block-progression:tb;marker:none;-inkscape-font-specification:Sans" id="path4651" fill="#bebebe" fill-opacity="1" stroke="none" stroke-width="2" d="M 1.75,-36 C 0.797797,-36 0,-35.2022 0,-34.25 l 0,4.5 c 0,0.9522 0.797797,1.75 1.75,1.75 l 0.125,0 -0.78125,1.5625 L 0.375,-25 2,-25 8,-25 9.625,-25 8.90625,-26.4375 8.125,-28 8.25,-28 c 0.952203,0 1.75,-0.7978 1.75,-1.75 l 0,-4.5 C 10,-35.2022 9.202203,-36 8.25,-36 l -6.5,0 z m 0.25,2 6,0 0,4 -6,0 0,-4 z" baseline-shift="baseline" color="#bebebe" direction="ltr" display="inline" enable-background="accumulate" font-family="Sans" font-size="medium" font-style="normal" font-variant="normal" font-weight="normal" letter-spacing="normal" overflow="visible" text-anchor="start" text-decoration="none" transform="translate(20,257)" visibility="visible" word-spacing="normal" writing-mode="lr-tb"/></g><path id="path4653" fill="#bebebe" fill-opacity="1" stroke="none" stroke-width="2" d="m 210.7502,530 c -0.9522,0 -1.75,0.7978 -1.75,1.75 l 0,0.25 2,0 0.25,0 5.75,0 0,4 -3,0 0,3.25 c 0,0.6591 -0.25164,1.26982 -0.65625,1.75 l 5.28125,0 -1.5,-3 0.125,0 c 0.9522,0 1.75,-0.7978 1.75,-1.75 l 0,-4.5 c 0,-0.9522 -0.7978,-1.75 -1.75,-1.75 l -6.5,0 z" color="#bebebe" direction="ltr" display="inline" font-family="Andale Mono" font-size="medium" font-stretch="normal" style="text-indent:0;text-align:start;line-height:normal;text-transform:none;marker:none" font-style="normal" font-variant="normal" font-weight="normal" letter-spacing="normal" overflow="visible" text-anchor="start" text-decoration="none" visibility="visible" word-spacing="normal"/></g></svg>