<svg xmlns="http://www.w3.org/2000/svg" xmlns:svg="http://www.w3.org/2000/svg" id="svg7384" width="16" height="16" version="1.1"><metadata id="metadata90"/><title id="title9167">Gnome Symbolic Icon Theme</title><g id="layer11" transform="translate(-323.02908,-649.02581)"><path id="rect68948" fill="#c3c3c3" fill-opacity="1" fill-rule="nonzero" stroke="none" stroke-width="2" d="m 331.9377,653 c 0.0187,0.16677 0.0625,0.32822 0.0625,0.5 0,2.48528 -2.01472,4.5 -4.5,4.5 -0.11769,0 -0.22834,-0.0224 -0.34375,-0.0312 l 0,2.21875 c 0,1.00412 0.80838,1.8125 1.8125,1.8125 l 1.54511,-5e-5 2,2.04688 2.0625,-2.04688 1.61114,0 c 1.00413,0 1.8125,-0.80838 1.8125,-1.8125 l 0,-5.375 c 0,-1.00412 -0.80837,-1.8125 -1.8125,-1.8125 z" color="#000" display="inline" enable-background="accumulate" opacity=".5" overflow="visible" visibility="visible" style="marker:none"/><path id="path68953" fill="#bebebe" fill-opacity="1" fill-rule="nonzero" stroke="none" d="m 327.5002,650 c -1.933,0 -3.5,1.567 -3.5,3.5 0,1.933 1.567,3.5 3.5,3.5 1.933,0 3.5,-1.567 3.5,-3.5 0,-1.933 -1.567,-3.5 -3.5,-3.5 z m -0.53125,1 1.03125,0 -0.0625,1.375 a 0.19951718,0.19951718 0 0 0 0,0.0625 0.19951718,0.19951718 0 0 0 0,0.0312 0.19951718,0.19951718 0 0 0 0.125,0.125 0.19951718,0.19951718 0 0 0 0.0312,0 0.19951718,0.19951718 0 0 0 0.0625,0 0.19951718,0.19951718 0 0 0 0.0625,0 0.19951718,0.19951718 0 0 0 0.0312,-0.0312 l 1.15625,-0.75 0.5,0.90625 -1.21875,0.625 a 0.19951718,0.19951718 0 0 0 -0.0312,0 0.19951718,0.19951718 0 0 0 -0.0312,0.0312 0.19951718,0.19951718 0 0 0 -0.0312,0.0937 0.19951718,0.19951718 0 0 0 0,0.0625 0.19951718,0.19951718 0 0 0 0,0.0312 0.19951718,0.19951718 0 0 0 0.0312,0.0625 0.19951718,0.19951718 0 0 0 0.0312,0.0312 0.19951718,0.19951718 0 0 0 0.0312,0.0312 l 1.25,0.625 -0.53125,0.90625 -1.15625,-0.781 a 0.19951718,0.19951718 0 0 0 -0.0312,0 0.19951718,0.19951718 0 0 0 -0.0625,-0.0312 0.19951718,0.19951718 0 0 0 -0.0625,0 0.19951718,0.19951718 0 0 0 -0.125,0.0937 0.19951718,0.19951718 0 0 0 -0.0312,0.0312 0.19951718,0.19951718 0 0 0 0,0.0312 0.19951718,0.19951718 0 0 0 0,0.0625 l 0.0625,1.3751 -1.03125,0 0.0937,-1.375 a 0.19951718,0.19951718 0 0 0 -0.0312,-0.0937 0.19951718,0.19951718 0 0 0 -0.0312,-0.0625 0.19951718,0.19951718 0 0 0 -0.0625,-0.0312 0.19951718,0.19951718 0 0 0 -0.0625,-0.0312 0.19951718,0.19951718 0 0 0 -0.0312,0 0.19951718,0.19951718 0 0 0 -0.0937,0.0312 l -1.1875,0.78125 -0.5,-0.90625 1.25,-0.625 a 0.19951718,0.19951718 0 0 0 0.0312,-0.0312 0.19951718,0.19951718 0 0 0 0.0312,-0.0312 0.19951718,0.19951718 0 0 0 0.0312,-0.0625 0.19951718,0.19951718 0 0 0 0,-0.0312 0.19951718,0.19951718 0 0 0 0,-0.0625 0.19951718,0.19951718 0 0 0 0,-0.0312 0.19951718,0.19951718 0 0 0 -0.0312,-0.0625 0.19951718,0.19951718 0 0 0 -0.0312,-0.0312 0.19951718,0.19951718 0 0 0 -0.0312,0 l -1.25,-0.625 0.5,-0.90625 1.1875,0.75 a 0.19951718,0.19951718 0 0 0 0.0312,0.0312 0.19951718,0.19951718 0 0 0 0.0625,0 0.19951718,0.19951718 0 0 0 0.0625,0 0.19951718,0.19951718 0 0 0 0.0312,0 0.19951718,0.19951718 0 0 0 0.0312,-0.0312 0.19951718,0.19951718 0 0 0 0.0312,-0.0312 0.19951718,0.19951718 0 0 0 0.0312,-0.0312 0.19951718,0.19951718 0 0 0 0,-0.0312 0.19951718,0.19951718 0 0 0 0.0312,-0.0625 0.19951718,0.19951718 0 0 0 0,-0.0312 L 326.96895,651 z" color="#000" display="inline" enable-background="accumulate" overflow="visible" visibility="visible" style="marker:none"/></g></svg>