<svg xmlns="http://www.w3.org/2000/svg" xmlns:svg="http://www.w3.org/2000/svg" id="svg7384" width="16" height="16" version="1.1"><metadata id="metadata90"/><title id="title9167">Gnome Symbolic Icon Theme</title><g id="layer11" transform="translate(-83.0002,-649)"><path id="path5341" fill="#bebebe" fill-opacity="1" fill-rule="nonzero" stroke="none" stroke-width="2" d="m 95.000206,650 c 1.662,0 3,1.338 3,3 l 0,6 c 0,1.662 -1.338,3 -3,3 l -8,0 c -1.662,0 -3,-1.338 -3,-3 l 0,-6 c 0,-1.662 1.338,-3 3,-3 l 8,0 z m 0,2 -8,0 c -0.554,0 -1,0.446 -1,1 l 0,6 c 0,0.554 0.446,1 1,1 l 8,0 c 0.554,0 1,-0.446 1,-1 l 0,-6 c 0,-0.554 -0.446,-1 -1,-1 z" color="#bebebe" display="inline" enable-background="accumulate" overflow="visible" visibility="visible" style="marker:none"/><path id="path5343" fill="#bebebe" fill-opacity="1" fill-rule="nonzero" stroke="none" stroke-width="2" d="m 91.000206,663 c -5,0 -5,1 -5,1 0,1 1,1 1,1 l 8,0 c 1,0 1,-1 1,-1 0,0 0,-1 -5,-1 z" color="#bebebe" display="inline" enable-background="accumulate" overflow="visible" visibility="visible" style="marker:none"/><path id="rect5771-9" fill="#bebebe" fill-opacity="1" fill-rule="nonzero" stroke="none" stroke-width="2" d="m 87.500202,654 c 0,0 -0.5,0 -0.5,0.5 l 0,4 c 0,0.5 0.5,0.5 0.5,0.5 l 4,0 c 0.5,0 0.5,-0.5 0.5,-0.5 l 0,-4 c 0,-0.5 -0.4373,-0.5 -0.5,-0.5 z m 0.5002,1.99849 3,0 0,1.99986 -3,0 z" color="#bebebe" display="inline" enable-background="accumulate" overflow="visible" visibility="visible" style="marker:none"/><path id="rect7987-0" fill="#bebebe" fill-opacity="1" fill-rule="nonzero" stroke="none" stroke-width="2" d="m 93.500402,653 c 0,0 -0.499898,0 -0.5,0.5 l -2e-4,0.98437 c 0,0 0,0.4995 0.5,0.5 l 0.9998,10e-4 c 0,0 0.499898,0 0.5,-0.5 l 2e-4,-0.98437 c 0,0 0,-0.49931 -0.5,-0.5 z" color="#bebebe" display="inline" enable-background="accumulate" overflow="visible" visibility="visible" style="marker:none"/></g></svg>