<svg xmlns="http://www.w3.org/2000/svg" xmlns:svg="http://www.w3.org/2000/svg" id="svg7384" width="16" height="16" version="1.1"><metadata id="metadata90"/><title id="title9167">Gnome Symbolic Icon Theme</title><g id="layer11" transform="translate(-123.00039,-529.0264)"><path id="path11106-5" fill="#bebebe" fill-opacity="1" stroke="none" d="m 127.95963,537.66101 0,2.36614 -3.59094,0 c -0.20663,0 -0.3683,0.20498 -0.3683,0.46705 l 0,1.05849 c 0,0.26197 0.16167,0.46705 0.3683,0.46705 3.42113,0 6.84225,0 10.26339,0 0.20664,0 0.36831,-0.20508 0.36831,-0.46705 l 0,-1.05849 c 0,-0.26197 -0.16167,-0.46705 -0.36831,-0.46705 l -3.65498,0 0,-2.36614 z" display="inline"/><path id="rect11110-4" fill="#bebebe" fill-opacity="1" stroke="none" stroke-width="2" d="m 126.80038,529.0264 c -0.95124,0 -1.79999,0.79333 -1.79999,1.74593 l 0,6.61339 c 0,0.95261 0.84875,1.74594 1.86792,1.74594 l 5.26416,0 c 1.01917,0 1.86792,-0.79333 1.86792,-1.74594 l 0,-6.61339 c 0,-0.9526 -0.84875,-1.74593 -1.86792,-1.74593 z m 0.20001,2 5,0 c 1e-5,0.31661 0,-0.31595 0,0 l 0,6 0,0 -5,0 c 0,0 0,0.044 0,0 l 0,-6 c 0,-0.0439 0,0 0,0 z" color="#000" direction="ltr" display="inline" enable-background="accumulate" font-family="Bitstream Vera Sans" font-size="medium" font-stretch="normal" font-style="normal" font-variant="normal" font-weight="normal" letter-spacing="normal" overflow="visible" text-anchor="start" text-decoration="none" visibility="visible" word-spacing="normal" writing-mode="lr-tb" style="text-indent:0;text-align:start;line-height:normal;text-transform:none;block-progression:tb;marker:none;-inkscape-font-specification:Bitstream Vera Sans"/><rect id="rect11880-7" width="3" height="1.002" x="128" y="531.998" fill="#bebebe" fill-opacity="1" stroke="none" stroke-width="2" color="#000" display="inline" enable-background="accumulate" overflow="visible" visibility="visible" style="marker:none"/><rect id="rect11882-6" width="1" height="1.002" x="130" y="534.002" fill="#bebebe" fill-opacity="1" stroke="none" stroke-width="2" color="#000" display="inline" enable-background="accumulate" overflow="visible" visibility="visible" style="marker:none"/><path id="path11106-9" fill="#bebebe" fill-opacity="1" stroke="none" d="m 132.22933,532.0264 c 0.0701,0 0,0.20877 0,0.47581 l 0,1.07827 c 0,0.26693 0.0701,0.47581 0.15975,0.47581 1.48385,0 2.96771,0 4.45157,0 0.0896,0 0.15974,-0.20888 0.15974,-0.47581 l 0,-1.07827 c 0,-0.26693 -0.0701,-0.47581 -0.15974,-0.47581 -0.15976,0 -4.5857,0.0631 -4.61132,0 z" display="inline"/><path id="path11106-9-7-0" fill="#bebebe" fill-opacity="1" stroke="none" d="m 128.97378,540.6506 c 0.0792,-0.0594 0.25217,0.0384 0.39407,0.22323 l 0.57302,0.74611 c 0.14184,0.18469 0.19083,0.37577 0.11162,0.43522 -1.31185,0.9846 -2.62371,1.96921 -3.93557,2.95382 -0.0792,0.0594 -0.25222,-0.0385 -0.39407,-0.22323 l -0.57302,-0.74611 c -0.14184,-0.18469 -0.19083,-0.37577 -0.11162,-0.43522 0,0 3.94648,-2.89315 3.93557,-2.95382 z" display="inline"/><path id="path3761-5" fill="#bebebe" fill-opacity="1" stroke="none" d="m 130.027,540.6506 c -0.0792,-0.0594 -0.25217,0.0384 -0.39407,0.22323 l -0.57302,0.74611 c -0.14184,0.18469 -0.19083,0.37577 -0.11162,0.43522 1.31185,0.9846 2.62371,1.96921 3.93557,2.95382 0.0792,0.0594 0.25222,-0.0385 0.39407,-0.22323 l 0.57302,-0.74611 c 0.14184,-0.18469 0.19083,-0.37577 0.11162,-0.43522 0,0 -3.94648,-2.89315 -3.93557,-2.95382 z" display="inline"/></g></svg>