<svg xmlns="http://www.w3.org/2000/svg" xmlns:svg="http://www.w3.org/2000/svg" id="svg7384" width="16" height="16" version="1.1"><metadata id="metadata90"/><title id="title9167">Gnome Symbolic Icon Theme</title><g id="layer11" transform="translate(-303.02908,-629.02581)"><path id="rect18279" fill="#bebebe" fill-opacity="1" fill-rule="nonzero" stroke="none" stroke-width="1" d="m 304.0002,634 0,5 4.0625,0 L 308.0627,634 z m 2,1.9375 1,-0.9375 0,3 L 306.0002,638 Z" clip-rule="nonzero" color="#000" color-interpolation="sRGB" color-interpolation-filters="linearRGB" display="inline" enable-background="accumulate" overflow="visible" visibility="visible" style="marker:none"/><path id="rect18283" fill="#bebebe" fill-opacity="1" fill-rule="nonzero" stroke="none" stroke-width="1" d="m 305.0002,630 c -0.61019,0 -1,0.42165 -1,0.96875 l 0,0.0312 1,0 L 305.0002,630 z m 0,1 0,1 1,0 0,-1 L 305.0002,631 z m 1,0 1,0 0,-1 -1,0 L 306.0002,631 z m 1,0 0,1 1,0 0,-1 L 307.0002,631 z m 0,1 -1,0 0,1 1,0 L 307.0002,632 z m -2,0 -1,0 0,1 1,0 L 305.0002,632 Z" clip-rule="nonzero" color="#000" color-interpolation="sRGB" color-interpolation-filters="linearRGB" display="inline" enable-background="accumulate" overflow="visible" visibility="visible" style="marker:none"/><path id="rect18304" fill="#bebebe" fill-opacity="1" fill-rule="nonzero" stroke="none" stroke-width="1" d="m 309.09395,634 0,5 3.9375,0 L 313.03145,634 z m 0.90625,1 1.04701,0 c 0.77808,0 0.95299,0.39744 0.95299,0.99295 0,0.0763 -0.0231,0.11705 -0.0625,0.2258 L 311.53145,637 l 0.46875,0 0,1.0625 -1.21875,0 -0.8125,0 1.02816,-1.90587 c 0.0469,-0.0937 -8.2e-4,-0.15272 -0.0594,-0.15663 L 310.0002,636 Z" clip-rule="nonzero" color="#000" color-interpolation="sRGB" color-interpolation-filters="linearRGB" display="inline" enable-background="accumulate" overflow="visible" visibility="visible" style="marker:none"/><path id="rect18308" fill="#bebebe" fill-opacity="1" fill-rule="nonzero" stroke="none" stroke-width="1" d="m 309.09395,630 0,1 0.9375,0 0,-1 L 309.09395,630 z m 0.9375,1 0,1 1,0 0,-1 L 310.03145,631 z m 1,0 1,0 0,-1 -1,0 L 311.03145,631 z m 1,0 0,1 1,0 0,-1 L 312.03145,631 z m 0,1 -1,0 0,1 1,0 L 312.03145,632 z m -2,0 -0.9375,0 0,1 0.9375,0 L 310.03145,632 Z" clip-rule="nonzero" color="#000" color-interpolation="sRGB" color-interpolation-filters="linearRGB" display="inline" enable-background="accumulate" overflow="visible" visibility="visible" style="marker:none"/><path id="rect18312" fill="#bebebe" fill-opacity="1" fill-rule="nonzero" stroke="none" stroke-width="1" d="m 314.09395,634 0,5 3.9375,0 L 318.03145,634 z m 0.90625,1 2.03125,0 -0.0312,0.5 0,0.46875 0,0.0937 -0.0625,0.125 -0.15625,0.3125 0.1875,0.34375 0.0625,0.125 0,0.125 0,0.40625 0,0.5 -2.03125,0 0,-1 0.90625,0 -0.125,-0.21875 -0.125,-0.25 0.125,-0.25 L 315.9377,636 315.0002,636 Z" clip-rule="nonzero" color="#000" color-interpolation="sRGB" color-interpolation-filters="linearRGB" display="inline" enable-background="accumulate" overflow="visible" visibility="visible" style="marker:none"/><path id="rect18316" fill="#bebebe" fill-opacity="1" fill-rule="nonzero" stroke="none" stroke-width="1" d="m 314.09395,630 0,1 0.90625,0 L 315.0002,630 z m 0.90625,1 0,1 1,0 L 316.0002,631 z m 1,0 1,0 0,-1 L 316.0002,630 z m 1,0 0,1 1,0 L 318.0002,631 Z M 318.0002,632 z m -1,0 -1,0 0,1 L 317.0002,633 z m -2,0 -0.90625,0 0,1 L 315.0002,633 Z" clip-rule="nonzero" color="#000" color-interpolation="sRGB" color-interpolation-filters="linearRGB" display="inline" enable-background="accumulate" overflow="visible" visibility="visible" style="marker:none"/><path id="path18348" fill="#bebebe" fill-opacity="1" fill-rule="nonzero" stroke="none" stroke-width="1" d="m 309.09395,634 0,5 3.9375,0 L 313.03145,634 z m 0.90625,1 1.04701,0 c 0.77808,0 0.95299,0.39744 0.95299,0.99295 0,0.0763 -0.0231,0.11705 -0.0625,0.2258 L 311.53145,637 l 0.46875,0 0,1.0625 -1.21875,0 -0.8125,0 1.02816,-1.90587 c 0.0469,-0.0937 -8.2e-4,-0.15272 -0.0594,-0.15663 L 310.0002,636 Z" clip-rule="nonzero" color="#000" color-interpolation="sRGB" color-interpolation-filters="linearRGB" display="inline" enable-background="accumulate" overflow="visible" visibility="visible" style="marker:none"/><path id="path18350" fill="#bebebe" fill-opacity="1" fill-rule="nonzero" stroke="none" stroke-width="1" d="m 314.09395,634 0,5 3.9375,0 L 318.03145,634 z m 0.90625,1 2.03125,0 -0.0312,0.5 0,0.46875 0,0.0937 -0.0625,0.125 -0.15625,0.3125 0.1875,0.34375 0.0625,0.125 0,0.125 0,0.40625 0,0.5 -2.03125,0 0,-1 0.90625,0 -0.125,-0.21875 -0.125,-0.25 0.125,-0.25 L 315.9377,636 315.0002,636 Z" clip-rule="nonzero" color="#000" color-interpolation="sRGB" color-interpolation-filters="linearRGB" display="inline" enable-background="accumulate" overflow="visible" visibility="visible" style="marker:none"/><path id="path18386" fill="#bebebe" fill-opacity="1" fill-rule="nonzero" stroke="none" stroke-width="1" d="m 317.0002,643 c 0.61019,0 1,-0.42165 1,-0.96875 l 0,-0.0312 -1,0 L 317.0002,643 z m 0,-1 0,-1 -1,0 0,1 L 317.0002,642 z m -1,0 -1,0 0,1 1,0 L 316.0002,642 z m -1,0 0,-1 -1,0 0,1 L 315.0002,642 z m 0,-1 1,0 0,-1 -1,0 L 315.0002,641 z m 2,0 1,0 0,-1 -1,0 L 317.0002,641 Z" clip-rule="nonzero" color="#000" color-interpolation="sRGB" color-interpolation-filters="linearRGB" display="inline" enable-background="accumulate" overflow="visible" visibility="visible" style="marker:none"/><path id="path18388" fill="#bebebe" fill-opacity="1" fill-rule="nonzero" stroke="none" stroke-width="1" d="m 312.90645,643 0,-1 -0.9375,0 0,1 L 312.90645,643 z m -0.9375,-1 0,-1 -1,0 0,1 L 311.96895,642 z m -1,0 -1,0 0,1 1,0 L 310.96895,642 z m -1,0 0,-1 -1,0 0,1 L 309.96895,642 z m 0,-1 1,0 0,-1 -1,0 L 309.96895,641 z m 2,0 0.9375,0 0,-1 -0.9375,0 L 311.96895,641 Z" clip-rule="nonzero" color="#000" color-interpolation="sRGB" color-interpolation-filters="linearRGB" display="inline" enable-background="accumulate" overflow="visible" visibility="visible" style="marker:none"/><path id="path18390" fill="#bebebe" fill-opacity="1" fill-rule="nonzero" stroke="none" stroke-width="1" d="m 307.90645,643 0,-1 -0.90625,0 L 307.0002,643 z m -0.90625,-1 0,-1 -1,0 L 306.0002,642 z m -1,0 -1,0 0,1 L 306.0002,643 z m -1,0 0,-1 -1,0 L 304.0002,642 Z M 304.0002,641 z m 1,0 1,0 0,-1 L 305.0002,640 z m 2,0 0.90625,0 0,-1 L 307.0002,640 Z" clip-rule="nonzero" color="#000" color-interpolation="sRGB" color-interpolation-filters="linearRGB" display="inline" enable-background="accumulate" overflow="visible" visibility="visible" style="marker:none"/></g></svg>