<svg xmlns="http://www.w3.org/2000/svg" xmlns:svg="http://www.w3.org/2000/svg" id="svg7384" width="16" height="16" version="1.1"><metadata id="metadata90"/><title id="title9167">Gnome Symbolic Icon Theme</title><g id="layer11" transform="translate(-41.000398,-667)"><path id="path5254" fill="#bebebe" fill-opacity="1" stroke="none" stroke-width="1.555" d="m 47.507806,667.99554 c -3.028856,0 -5.510726,2.47905 -5.510726,5.50447 0,3.02541 2.48187,5.50446 5.510726,5.50446 3.028856,0 5.510726,-2.47905 5.510726,-5.50446 0,-3.02542 -2.48187,-5.50447 -5.510726,-5.50447 z m 0,2.00893 c 1.947357,0 3.499512,1.55039 3.499512,3.49554 0,1.94514 -1.552155,3.49553 -3.499512,3.49553 -1.947357,0 -3.499512,-1.55039 -3.499512,-3.49553 0,-1.94515 1.552155,-3.49554 3.499512,-3.49554 z" baseline-shift="baseline" color="#000" direction="ltr" display="inline" enable-background="new" font-family="Sans" font-size="medium" font-stretch="normal" font-style="normal" font-variant="normal" font-weight="normal" letter-spacing="normal" overflow="visible" text-anchor="start" text-decoration="none" visibility="visible" word-spacing="normal" writing-mode="lr-tb" style="text-indent:0;text-align:start;line-height:normal;text-transform:none;block-progression:tb;marker:none;-inkscape-font-specification:Sans"/><path id="path5256" fill="#bebebe" fill-opacity="1" stroke="none" stroke-width="2" d="m 50.8125,676 a 1.0001,1.0001 0 0 0 -0.5,1.71875 l 4,4 a 1.0054782,1.0054782 0 1 0 1.40625,-1.4375 l -4,-4 A 1.0001,1.0001 0 0 0 50.8125,676 z" baseline-shift="baseline" color="#000" direction="ltr" display="inline" enable-background="new" font-family="Sans" font-size="medium" font-stretch="normal" font-style="normal" font-variant="normal" font-weight="normal" letter-spacing="normal" overflow="visible" text-anchor="start" text-decoration="none" visibility="visible" word-spacing="normal" writing-mode="lr-tb" style="text-indent:0;text-align:start;line-height:normal;text-transform:none;block-progression:tb;marker:none;-inkscape-font-specification:Sans"/></g></svg>