<svg xmlns="http://www.w3.org/2000/svg" xmlns:svg="http://www.w3.org/2000/svg" id="svg7384" width="16" height="16" version="1.1"><metadata id="metadata90"/><title id="title9167">Gnome Symbolic Icon Theme</title><g id="layer11" transform="translate(-103.0002,-627)"><path id="rect3773-9" fill="#bebebe" fill-opacity="1" fill-rule="nonzero" stroke="none" stroke-width="2" d="m 115.0002,628 c 1.662,0 3,1.338 3,3 l 0,6 c 0,1.662 -1.338,3 -3,3 l -8,0 c -1.662,0 -3,-1.338 -3,-3 l 0,-6 c 0,-1.662 1.338,-3 3,-3 l 8,0 z m 0,2 -8,0 c -0.554,0 -1,0.446 -1,1 l 0,6 c 0,0.554 0.446,1 1,1 l 8,0 c 0.554,0 1,-0.446 1,-1 l 0,-6 c 0,-0.554 -0.446,-1 -1,-1 z" color="#bebebe" display="inline" enable-background="accumulate" overflow="visible" visibility="visible" style="marker:none"/><path id="rect3778-4" fill="#bebebe" fill-opacity="1" fill-rule="nonzero" stroke="none" stroke-width="2" d="m 111.0002,641 c -5,0 -5,1 -5,1 0,1 1,1 1,1 l 8,0 c 1,0 1,-1 1,-1 0,0 0,-1 -5,-1 z" color="#bebebe" display="inline" enable-background="accumulate" overflow="visible" visibility="visible" style="marker:none"/><path style="marker:none" id="path11753-4" fill="#bebebe" fill-opacity="1" stroke="none" stroke-width="2" d="m 106.0002,629 -1,9.52459 12,-0.52459 z m 1.01829,3.99621 4.98171,4.00379 -4.96497,0.0256 z" color="#bebebe" display="inline" enable-background="accumulate" overflow="visible" visibility="visible"/></g></svg>