<svg xmlns="http://www.w3.org/2000/svg" xmlns:svg="http://www.w3.org/2000/svg" id="svg7384" width="16" height="16" version="1.1"><metadata id="metadata90"/><title id="title9167">Gnome Symbolic Icon Theme</title><g id="layer11" transform="translate(-122,-489.99998)"><path id="rect11749-5-9" fill="#bebebe" fill-opacity="1" stroke="none" stroke-width="2" d="M 124.1875,490 C 122.98196,490 122,491.01672 122,492.21875 l 0,10.5625 c 0,1.20203 0.98197,2.21875 2.1875,2.21875 l 11.625,0 c 1.20553,0 2.1875,-1.01671 2.1875,-2.21875 l 0,-10.5625 C 138,491.01671 137.01804,490 135.8125,490 l -11.625,0 z m 0,2 11.625,0 c 0.1228,0 0.1875,0.0809 0.1875,0.21875 l 0,10.5625 C 136,502.91909 135.93531,503 135.8125,503 l -11.625,0 C 124.06469,503 124,502.9191 124,502.78125 l 0,-10.5625 C 124,492.0809 124.0647,492 124.1875,492 z" color="#bebebe" direction="ltr" display="inline" enable-background="accumulate" font-family="Bitstream Vera Sans" font-size="medium" font-stretch="normal" font-style="normal" font-variant="normal" font-weight="normal" letter-spacing="normal" overflow="visible" text-anchor="start" text-decoration="none" visibility="visible" word-spacing="normal" writing-mode="lr-tb" style="text-indent:0;text-align:start;line-height:normal;text-transform:none;block-progression:tb;marker:none;-inkscape-font-specification:Bitstream Vera Sans"/><path id="path11751-2-3" fill="#bebebe" fill-opacity="1" stroke="none" stroke-width="1.2" d="m 126.3125,495.90625 a 0.60006002,0.60006002 0 0 0 -0.25,1.03125 l 1.5625,1.5625 -1.5625,1.5625 a 0.61871843,0.61871843 0 1 0 0.875,0.875 l 2,-2 a 0.60006002,0.60006002 0 0 0 0,-0.875 l -2,-2 a 0.60006002,0.60006002 0 0 0 -0.625,-0.15625 z" color="#bebebe" direction="ltr" display="inline" enable-background="accumulate" font-family="Bitstream Vera Sans" font-size="medium" font-stretch="normal" font-style="normal" font-variant="normal" font-weight="normal" letter-spacing="normal" overflow="visible" text-anchor="start" text-decoration="none" visibility="visible" word-spacing="normal" writing-mode="lr-tb" style="text-indent:0;text-align:start;line-height:normal;text-transform:none;block-progression:tb;marker:none;-inkscape-font-specification:Bitstream Vera Sans"/><rect id="rect4987" width="3" height="1" x="130" y="500" fill="#bebebe" fill-opacity="1" fill-rule="nonzero" stroke="none" stroke-width="1" color="#bebebe" display="inline" enable-background="accumulate" overflow="visible" visibility="visible" style="marker:none"/></g></svg>