<svg xmlns="http://www.w3.org/2000/svg" xmlns:svg="http://www.w3.org/2000/svg" id="svg7384" width="16" height="16" version="1.1"><metadata id="metadata90"/><title id="title9167">Gnome Symbolic Icon Theme</title><g id="g4953" display="inline" transform="translate(-522.0002,-462)"><path id="rect7157" fill="#bebebe" fill-opacity="1" fill-rule="evenodd" stroke="none" d="m 529.99708,470 c -3.99844,0 -5.99766,3 -5.99766,6 l -1.74932,0 c -0.2499,0 -0.2499,0.15712 -0.2499,0.25 l 0,1.5 c 0,0.25 0.13814,0.25 0.2499,0.25 l 15.49396,0 c 0.19535,0.006 0.2499,-0.12948 0.2499,-0.25 l 0,-1.5 c 0.0212,-0.14605 0,-0.25 -0.2499,-0.25 l -1.74932,0 c 0,-3 -1.99922,-6 -5.99766,-6 z m 0,3 c 2.3501,0 2.99883,1.76177 2.99883,3 l -5.99766,0 c 0,-1.19769 0.70253,-3 2.99883,-3 z" display="inline" enable-background="new"/><path id="path3908-6" fill="#bebebe" fill-opacity="1" fill-rule="nonzero" stroke="none" stroke-width="3" d="m 536.98911,462.59983 c -0.28315,-0.24009 -0.6238,-0.41924 -0.96653,-0.5613 l -0.0217,2.23198 c -0.005,0.45867 -0.4519,0.72949 -1.00572,0.72949 l -0.99961,0 c -0.55376,-0.007 -1.00306,-0.30935 -0.9986,-0.76802 L 533.01865,462 c -0.34541,0.13322 -0.68945,0.3036 -0.9772,0.53638 -1.37728,1.11412 -1.39514,2.94888 -0.0399,4.09805 0.28315,0.24009 0.6238,0.41924 0.96652,0.56131 0.0278,0.0113 0.0278,2.05426 0.0278,2.05426 1.48949,0.75 2.35093,1.75 2.99883,2.75 l 0,-4.74827 c 0.3454,-0.13322 0.66671,-0.32107 0.95447,-0.55384 1.37727,-1.11412 1.39514,-2.94889 0.0399,-4.09806 z" color="#000" direction="ltr" display="inline" enable-background="accumulate" font-family="Sans" font-size="medium" font-stretch="normal" font-style="normal" font-variant="normal" font-weight="normal" letter-spacing="normal" overflow="visible" text-anchor="start" text-decoration="none" visibility="visible" word-spacing="normal" writing-mode="lr-tb" style="text-indent:0;text-align:start;line-height:normal;text-transform:none;block-progression:tb;marker:none;-inkscape-font-specification:Sans"/></g></svg>