<svg xmlns="http://www.w3.org/2000/svg" xmlns:svg="http://www.w3.org/2000/svg" id="svg7384" width="16" height="16" version="1.1"><metadata id="metadata90"/><title id="title9167">Gnome Symbolic Icon Theme</title><g id="g4953" display="inline" transform="translate(-482.00018,-461.99942)"><rect id="rect5455" width="6" height="16" x="482" y="461.999" fill="#bebebe" fill-opacity="1" fill-rule="nonzero" stroke="none" stroke-width="2" color="#000" display="inline" enable-background="accumulate" overflow="visible" rx="2.934" ry="2.986" visibility="visible" style="marker:none"/><path id="path256-4-4" fill="#bebebe" fill-opacity="1" fill-rule="nonzero" stroke="none" stroke-width="2" d="m 487.40645,461.99942 c 0.87799,0.71298 1.46875,1.79213 1.46875,3 l 0,1 2.125,0 c -0.0742,-1.09265 1.2487,-2 2,-2 0.68073,0 1,0.0117 1,1 l 0,1 1.21875,0 c 1.22869,-0.60001 1.78125,-1.96908 1.78125,-2.6875 0,-0.73589 -2.38538,-1.3125 -3.6875,-1.3125 z" color="#000" display="inline" enable-background="accumulate" overflow="visible" visibility="visible" style="marker:none"/><path id="path249-7-76" fill="#bebebe" fill-opacity="1" fill-rule="nonzero" stroke="none" stroke-width="2" d="m 489.0002,467 0,4.3125 c 2.76625,2.66159 6.12501,2.40625 6.12501,2.40625 0,0 0.35286,-1.5209 -1.90624,-4.03125 L 490.84396,467 l -0.625,0 -1.15625,0 c -0.0213,0.002 -0.0412,-0.002 -0.0625,0 z m 2.97505,2.53185 1.68345,1.73676 c -1.799,0.16548 -2.15075,-0.85626 -1.68345,-1.73676 z" color="#000" display="inline" enable-background="accumulate" overflow="visible" visibility="visible" style="marker:none"/></g></svg>