<svg xmlns="http://www.w3.org/2000/svg" xmlns:svg="http://www.w3.org/2000/svg" id="svg7384" width="16" height="16" version="1.1"><metadata id="metadata90"/><title id="title9167">Gnome Symbolic Icon Theme</title><g id="layer14" transform="translate(-561 -301)"><path id="path4983" fill="#bebebe" d="m325.06 97.188a2 3.2361 0 1 1 -4 0 2 3.2361 0 1 1 4 0z" color="#000" enable-background="new" transform="matrix(1 0 0 .61803 241.94 252.93)"/><path id="path5814" fill="#bebebe" d="m563 303v1c0 0.55016 0.45347 1 1 1 4.9706 0 9 4.0294 9 9 0 0.55016 0.45347 1 1 1h1v-1c0-6.0751-4.9249-11-11-11h-1zm0 4v1c0 0.55016 0.45347 1 1 1 2.7614 0 5 2.2386 5 5 0 0.55016 0.45347 1 1 1h1v-1c0-3.866-3.134-7-7-7h-1z" color="#000" enable-background="new"/></g></svg>