<svg xmlns="http://www.w3.org/2000/svg" xmlns:svg="http://www.w3.org/2000/svg" id="svg7384" width="16" height="16" version="1.1"><metadata id="metadata90"/><title id="title9167">Gnome Symbolic Icon Theme</title><g id="layer14" transform="translate(-502.0002,-299.99988)"><path id="path1234-2" fill="#bebebe" fill-opacity="1" stroke="none" stroke-width="2" d="m 504.0002,301.99988 c -0.52358,5e-5 -0.99995,0.47642 -1,1 l 0,10 c 5e-5,0.52358 0.47642,0.99995 1,1 l 3.00009,0 0,-2 c 0,0 -1.99293,-0.0211 -2.00009,10e-5 l 0,-7.99998 10.99999,0 6.6e-4,7.99988 -1.00055,0 0,2 2.0006,0 c 0.5193,0 0.9993,-0.43501 0.9993,-0.99988 l 0,-10 c 7.5e-4,-0.46663 -0.43709,-1.00012 -1,-0.9999 z" baseline-shift="baseline" color="#000" direction="ltr" display="inline" enable-background="accumulate" font-family="Sans" font-size="medium" font-stretch="normal" font-style="normal" font-variant="normal" font-weight="normal" letter-spacing="normal" overflow="visible" text-anchor="start" text-decoration="none" visibility="visible" word-spacing="normal" writing-mode="lr-tb" style="text-indent:0;text-align:start;line-height:normal;text-transform:none;block-progression:tb;marker:none;-inkscape-font-specification:Sans"/><path id="path4136-5" fill="#bebebe" fill-opacity="1" fill-rule="nonzero" stroke="none" d="m 513.99939,308.06279 a 3,3 0 0 1 -5.99868,0 3,3 0 1 1 5.99868,0 z"/><path id="path3655-4-1" fill="#bebebe" fill-opacity="1" fill-rule="evenodd" stroke="none" d="m 510.00036,308.99988 -2.00024,7 1,0 2.00018,-2 1.99982,2 1,0 -1.99987,-7"/></g></svg>