<svg xmlns="http://www.w3.org/2000/svg" xmlns:osb="http://www.openswatchbook.org/uri/2009/osb" xmlns:svg="http://www.w3.org/2000/svg" id="svg2" width="16" height="16" display="inline" version="1.0"><defs id="defs4"><linearGradient id="linearGradient5606" osb:paint="solid"><stop id="stop5608" offset="0" stop-color="#000" stop-opacity="1"/></linearGradient><filter id="filter7554" color-interpolation-filters="sRGB"><feBlend id="feBlend7556" in2="BackgroundImage" mode="darken"/></filter></defs><metadata id="metadata7"/><g id="layer1" display="inline"><path id="path3028" fill="#bebebe" fill-opacity="1" stroke="none" d="M 2,1 C 1.446,1 1.5540001,2 1,2 L 1,2 1,3 15,3 C 15,2.446 14.554,2 14,2 L 7,2 C 7,1.446 6.554,1 6,1 Z" display="inline"/><path id="path3040" fill="#bebebe" fill-opacity="1" stroke="none" d="M 1.5,4 C 0.669,4 0,4.6194446 0,5.3888889 L 0,12.611111 C 0,13.380556 0.669,14 1.5,14 l 13,0 C 15.331,14 16,13.380556 16,12.611111 L 16,5.3888889 C 16,4.6194446 15.331,4 14.5,4 Z" display="inline"/><g id="layer1-1" display="inline" transform="translate(-599,-146.99307)"><path id="path5090" fill="#555" fill-opacity="1" stroke="none" stroke-width="2" d="M 585.84375,183 C 585.5625,183.04687 585,183.25 585,184 l 0,11 c 0,0 0,1 1,1 l 5,0 2,0 5,0 c 0,0 1,0 1,-1 l 0,-9 c 0,-1 -1,-1 -1,-1 l -5,0 -2,-2 -5,0 c 0,0 -0.0625,-0.0156 -0.15625,0 z m 7.75,6 c 1.30915,0 2.48761,0.46868 3.46875,1.1875 L 593.59375,194 590.125,190.21875 C 591.10994,189.49185 592.27448,189 593.59375,189 Z" baseline-shift="baseline" color="#000" direction="ltr" display="inline" enable-background="accumulate" font-family="Sans" font-size="medium" font-stretch="normal" font-style="normal" font-variant="normal" font-weight="normal" letter-spacing="normal" overflow="visible" text-anchor="start" text-decoration="none" visibility="visible" word-spacing="normal" writing-mode="lr-tb" style="line-height:normal;-inkscape-font-specification:Sans;text-indent:0;text-align:start;text-decoration-line:none;text-transform:none;block-progression:tb;marker:none"/></g></g></svg>