<svg xmlns="http://www.w3.org/2000/svg" xmlns:svg="http://www.w3.org/2000/svg" id="svg7384" width="16" height="16" version="1.1"><metadata id="metadata90"/><title id="title9167">Gnome Symbolic Icon Theme</title><g id="layer14" transform="translate(-541.0002,-301)"><path id="rect27790" fill="#bebebe" fill-opacity="1" stroke="none" stroke-width="2" d="m 543.0002,301 c -1.05237,0 -2,0.84508 -2,1.9375 l 0,11.125 c 0,1.09242 0.94763,1.9375 2,1.9375 l 11,0 c 1.05237,0 2,-0.84508 2,-1.9375 l 0,-11.125 c 0,-1.09242 -0.94763,-1.9375 -2,-1.9375 l -11,0 z m 0,5 3.03125,0 0,2 -3.03125,0 0,-2 z m 4.03125,0 2.96875,0 0,2 -2.96875,0 0,-2 z m 3.96875,0 3,0 0,2 -3,0 0,-2 z m -8,3 3.03125,0 0,2 -3.03125,0 0,-2 z m 4.03125,0 2.96875,0 0,2 -2.96875,0 0,-2 z m 3.96875,0 3,0 0,2 -3,0 0,-2 z m -8,3 3.03125,0 0,2 -3.03125,0 0,-2 z m 4.03125,0 2.96875,0 0,2 -2.96875,0 0,-2 z m 3.96875,0 3,0 0,2 -3,0 0,-2 z" baseline-shift="baseline" color="#000" direction="ltr" display="inline" enable-background="new" font-family="Sans" font-size="medium" font-stretch="normal" font-style="normal" font-variant="normal" font-weight="normal" letter-spacing="normal" overflow="visible" text-anchor="start" text-decoration="none" visibility="visible" word-spacing="normal" writing-mode="lr-tb" style="text-indent:0;text-align:start;line-height:normal;text-transform:none;block-progression:tb;marker:none;-inkscape-font-specification:Sans"/><rect stroke-width="1" style="marker:none" id="rect27810" width="3" height="2" x="551" y="309" fill="#bebebe" fill-opacity="1" stroke="none" color="#000" display="inline" enable-background="accumulate" opacity=".35" overflow="visible" visibility="visible"/></g></svg>