<svg xmlns="http://www.w3.org/2000/svg" xmlns:svg="http://www.w3.org/2000/svg" id="svg7384" width="16" height="16" version="1.1"><metadata id="metadata90"/><title id="title9167">Gnome Symbolic Icon Theme</title><g id="layer14" transform="translate(-521,-321.00012)"><path d="m 523.0002,324 0,8 12,0 0,-8 z m 6,1 c 1.10457,0 2,0.89543 2,2 l -2,0 z m -1,1 0,2 2,0 c 0,1.10457 -0.89543,2 -2,2 -1.10457,0 -2,-0.89543 -2,-2 0,-1.10457 0.89543,-2 2,-2 z" style="marker:none" id="rect35810" fill="#bebebe" fill-opacity="1" fill-rule="nonzero" stroke="none" stroke-width="1" color="#000" display="inline" enable-background="accumulate" overflow="visible" visibility="visible"/><path id="path35812" fill="#bebebe" fill-opacity="1" stroke="none" stroke-width="2" d="m 523,323 a 1.001098,1.001098 0 1 0 0.0937,2 l 11.625,0 a 1.0001,1.0001 0 1 0 0,-2 l -11.625,0 A 1.0001,1.0001 0 0 0 523,323 z" baseline-shift="baseline" color="#000" direction="ltr" display="inline" enable-background="accumulate" font-family="Sans" font-size="medium" font-stretch="normal" font-style="normal" font-variant="normal" font-weight="normal" letter-spacing="normal" overflow="visible" text-anchor="start" text-decoration="none" visibility="visible" word-spacing="normal" writing-mode="lr-tb" style="text-indent:0;text-align:start;line-height:normal;text-transform:none;block-progression:tb;marker:none;-inkscape-font-specification:Sans"/><path id="path35814" fill="#bebebe" fill-opacity="1" stroke="none" stroke-width="1" d="M 528.40625,331.5 A 0.50005,0.50005 0 0 0 528,332 l 0,1.75 -1.8125,1.375 a 0.51253811,0.51253811 0 1 0 0.625,0.8125 l 2,-1.53125 L 529,334.25 l 0,-0.25 0,-2 a 0.50005,0.50005 0 0 0 -0.59375,-0.5 z" baseline-shift="baseline" color="#000" direction="ltr" display="inline" enable-background="accumulate" font-family="Sans" font-size="medium" font-stretch="normal" font-style="normal" font-variant="normal" font-weight="normal" letter-spacing="normal" overflow="visible" text-anchor="start" text-decoration="none" visibility="visible" word-spacing="normal" writing-mode="lr-tb" style="text-indent:0;text-align:start;line-height:normal;text-transform:none;block-progression:tb;marker:none;-inkscape-font-specification:Sans"/><path id="path35816" fill="#bebebe" fill-opacity="1" stroke="none" stroke-width="1" d="m 528.375,333.5 a 0.50005,0.50005 0 0 0 -0.1875,0.90625 l 2,1.5625 a 0.51253811,0.51253811 0 1 0 0.625,-0.8125 l -2,-1.5625 A 0.50005,0.50005 0 0 0 528.375,333.5 z" baseline-shift="baseline" color="#000" direction="ltr" display="inline" enable-background="accumulate" font-family="Sans" font-size="medium" font-stretch="normal" font-style="normal" font-variant="normal" font-weight="normal" letter-spacing="normal" overflow="visible" text-anchor="start" text-decoration="none" visibility="visible" word-spacing="normal" writing-mode="lr-tb" style="text-indent:0;text-align:start;line-height:normal;text-transform:none;block-progression:tb;marker:none;-inkscape-font-specification:Sans"/></g></svg>