<svg xmlns="http://www.w3.org/2000/svg" xmlns:svg="http://www.w3.org/2000/svg" id="svg7384" width="16" height="16" version="1.1"><metadata id="metadata90"/><title id="title9167">Gnome Symbolic Icon Theme</title><g id="layer12" transform="translate(-219.99995,-606)"><path id="path4222" fill="#bebebe" fill-opacity="1" stroke="none" stroke-width="1.975" d="M 8 1.03125 C 4.13996 1.03125 1 4.18697 1 8.03125 C 1 11.87553 4.13996 15 8 15 C 11.86004 15 15 11.87553 15 8.03125 C 15 4.18697 11.86004 1.03125 8 1.03125 z M 8 3.03125 C 9.0732117 3.03125 10.061813 3.4015649 10.875 3.96875 L 3.9375 10.90625 C 3.3532745 10.095991 3 9.1151045 3 8.03125 C 3 5.26565 5.22305 3.03125 8 3.03125 z M 12.25 5.40625 C 12.728184 6.1712938 13.03125 7.0593764 13.03125 8.03125 C 13.03125 10.79685 10.77694 13 8 13 C 7.042944 13 6.1649106 12.70449 5.40625 12.25 L 12.25 5.40625 z" baseline-shift="baseline" color="#000" direction="ltr" display="inline" enable-background="accumulate" font-family="Sans" font-size="medium" font-stretch="normal" font-style="normal" font-variant="normal" font-weight="normal" letter-spacing="normal" overflow="visible" text-anchor="start" text-decoration="none" transform="translate(219.99995,606)" visibility="visible" word-spacing="normal" writing-mode="lr-tb" style="text-indent:0;text-align:start;line-height:normal;text-transform:none;block-progression:tb;marker:none;-inkscape-font-specification:Sans"/></g></svg>