<svg xmlns="http://www.w3.org/2000/svg" xmlns:svg="http://www.w3.org/2000/svg" id="svg7384" width="16" height="16" version="1.1"><metadata id="metadata90"/><title id="title9167">Gnome Symbolic Icon Theme</title><g id="layer12" display="inline" transform="translate(-241.0002,-807)"><g id="gtk-no_16" transform="translate(241.0002,412.63785)"><path id="path6935-3" fill="#bebebe" fill-opacity="1" stroke="none" stroke-dasharray="none" stroke-dashoffset="0" stroke-linecap="butt" stroke-linejoin="miter" stroke-miterlimit="4" stroke-opacity="1" stroke-width="2" d="m 8.0000005,395.42465 c -3.86599,0 -7,3.13401 -7,7 0,3.866 3.13401,7 7,7 3.8659895,0 6.9999995,-3.134 6.9999995,-7 0,-3.86599 -3.13401,-7 -6.9999995,-7 z m -3.002,3.97657 0.75,0 c 0.008,-9e-5 0.0156,-3.5e-4 0.0234,0 0.19121,0.008 0.3824,0.0964 0.51562,0.23437 l 1.71094,1.71094 1.73438,-1.71094 c 0.19921,-0.17287 0.3349995,-0.22912 0.5156195,-0.23437 l 0.75,0 0,0.75 c 0,0.21485 -0.0258,0.41298 -0.1875,0.5625 l -1.7109395,1.71093 1.6874995,1.6875 c 0.14114,0.14113 0.21093,0.34009 0.21094,0.53906 l 0,0.75 -0.75,0 c -0.19898,-10e-6 -0.3979395,-0.0698 -0.5390695,-0.21094 l -1.71093,-1.71093 -1.71094,1.71093 c -0.14112,0.14115 -0.34009,0.21094 -0.53906,0.21094 l -0.75,0 0,-0.75 c 0,-0.19896 0.0698,-0.39793 0.21093,-0.53906 l 1.71094,-1.6875 -1.71094,-1.71093 c -0.15805,-0.14598 -0.22736,-0.35194 -0.21093,-0.5625 z" opacity="1"/></g></g></svg>