<svg xmlns="http://www.w3.org/2000/svg" xmlns:svg="http://www.w3.org/2000/svg" id="svg7384" width="16" height="16" version="1.1"><metadata id="metadata90"/><title id="title9167">Gnome Symbolic Icon Theme</title><g id="layer12" display="inline" transform="translate(-261.00011,-807)"><path id="path26815" fill="#bebebe" fill-opacity="1" stroke="none" d="m 273.0002,808 0,1.99673 -2,0 0,1.99673 2,0 0,1.99673 2,0 0,-1.99673 2,0 0,-1.99673 -2,0 0,-1.99673 -2,0 z" display="inline"/><path id="path26788" fill="#bebebe" fill-opacity="1" stroke="none" stroke-width="1" d="M 267.40625,813 A 0.50005,0.50005 0 0 0 267,813.5 l 0,2.5 -1.5,0 a 0.50005,0.50005 0 1 0 0,1 l 2,0 a 0.50005,0.50005 0 0 0 0.5,-0.5 l 0,-3 a 0.50005,0.50005 0 0 0 -0.59375,-0.5 z" baseline-shift="baseline" color="#000" direction="ltr" display="inline" enable-background="accumulate" font-family="Sans" font-size="medium" font-stretch="normal" font-style="normal" font-variant="normal" font-weight="normal" letter-spacing="normal" overflow="visible" text-anchor="start" text-decoration="none" visibility="visible" word-spacing="normal" writing-mode="lr-tb" style="text-indent:0;text-align:start;line-height:normal;text-transform:none;block-progression:tb;marker:none;-inkscape-font-specification:Sans"/><path id="path26792" fill="#bebebe" fill-opacity="1" stroke="none" stroke-width="2.545" d="m 267.5002,810 c -3.57802,0 -6.5,2.92199 -6.5,6.5 0,3.57801 2.92198,6.5 6.5,6.5 3.57799,0 6.5,-2.92199 6.5,-6.5 0,-0.51565 -0.0727,-1.01814 -0.1875,-1.5 l -2.09375,0 c 0.1673,0.47279 0.28125,0.96704 0.28125,1.5 0,2.49712 -2.00289,4.5 -4.5,4.5 -2.49713,0 -4.5,-2.00288 -4.5,-4.5 0,-2.49713 2.00287,-4.5 4.5,-4.5 0.9323,0 1.7895,0.26937 2.5,0.75 l 0,-2.25 c -0.7679,-0.32274 -1.61416,-0.5 -2.5,-0.5 z" baseline-shift="baseline" color="#000" direction="ltr" display="inline" enable-background="accumulate" font-family="Sans" font-size="xx-small" font-stretch="normal" font-style="normal" font-variant="normal" font-weight="normal" letter-spacing="normal" overflow="visible" text-anchor="start" text-decoration="none" visibility="visible" word-spacing="normal" writing-mode="lr-tb" style="text-indent:0;text-align:start;line-height:normal;text-transform:none;block-progression:tb;marker:none;-inkscape-font-specification:Sans"/></g></svg>