<svg xmlns="http://www.w3.org/2000/svg" xmlns:svg="http://www.w3.org/2000/svg" id="svg7384" width="16" height="16" version="1.1"><metadata id="metadata90"/><title id="title9167">Gnome Symbolic Icon Theme</title><g id="layer12" display="inline" transform="translate(-80.0002,-746)"><g id="call-start_16" transform="translate(61.0002,655.63784)"><g id="g4276" display="inline" transform="translate(18.997523,90.362161)"><g id="layer1-8" display="inline"><path id="path4609" fill="#bebebe" fill-opacity="1" d="m 14.460629,5.266059 c -0.06167,0.2809159 -0.480401,1.5083339 -0.679739,1.9921264 -0.276904,0.672062 -0.901898,1.747724 -1.356568,2.334774 C 11.880973,10.294499 11.372162,10.808479 10.395824,11.64208 8.8970603,12.921735 7.4206677,13.783883 5.9100279,14.261601 5.2137875,14.481765 4.9401041,14.522483 4.373013,14.490258 3.2404798,14.426258 2.0338919,13.751547 1.6222481,12.952904 1.5054766,12.726341 1.4935681,12.63533 1.506725,12.069996 1.523461,11.350782 1.568169,11.245677 1.9207536,11.095289 2.4839457,10.855116 4.8145457,10.07914 4.9492105,10.086955 c 0.2222468,0.0129 0.7619386,0.388949 1.1927251,0.831072 0.4782506,0.490827 0.5565247,0.500053 1.2139938,0.143145 1.3425763,-0.728913 2.4039063,-1.6669706 3.2373476,-2.8613476 0.432349,-0.619571 0.89533,-1.4539525 0.905939,-1.6326585 0.01507,-0.2538739 -0.05363,-0.3548693 -0.4812,-0.7077888 C 10.515531,5.4446442 9.9693917,4.895771 9.8894797,4.7252044 c -0.08146,-0.173897 -0.0746,-0.1896497 0.5969813,-1.3738553 0.314814,-0.5551153 0.664649,-1.1753128 0.777436,-1.3782048 0.11276,-0.2029077 0.246062,-0.3987606 0.296223,-0.4352467 0.163606,-0.1190031 1.228176,0.061821 1.595462,0.2710679 0.37272,0.2122983 0.888783,0.8859684 1.094262,1.4284592 0.214022,0.5650291 0.316152,1.5480874 0.210781,2.0286635 z" display="inline"/></g></g></g></g></svg>