<svg xmlns="http://www.w3.org/2000/svg" xmlns:svg="http://www.w3.org/2000/svg" id="svg7384" width="16" height="16" enable-background="new" version="1.1"><metadata id="metadata90"/><title id="title9167">Gnome Symbolic Icon Theme</title><g id="layer12" display="inline" transform="translate(-101.0004,-867)"><g id="call-stop_16" transform="translate(101.0002,757.63784)"><g id="g4294" display="inline" transform="translate(3.9469968e-7,109.1342)"><g id="layer1-7" display="inline"><path id="path2869" fill="#bebebe" fill-opacity="1" d="m 1.5499823,6.6893777 c 0.23971,-0.153412 1.3915468,-0.719261 1.8695439,-0.918298 0.6640059,-0.276497 1.8539796,-0.591837 2.5828856,-0.684465 0.8710681,-0.110688 1.5867302,-0.114305 2.8531712,-0.01443 1.944101,0.153314 3.580411,0.58311 4.971695,1.30586 0.641221,0.3331183 0.861214,0.4961273 1.235467,0.9154769 0.74767,0.83723 1.11983,2.153605 0.849042,3.0004614 -0.07683,0.240236 -0.132172,0.31225 -0.536951,0.698617 -0.514955,0.491534 -0.619782,0.533795 -0.97172,0.392315 C 13.84099,11.158894 11.667273,10.0711 11.578515,9.9714046 11.43203,9.8068706 11.317528,9.1661116 11.32546,8.5553236 11.33426,7.8772456 11.28595,7.8160206 10.576172,7.6057136 9.12672,7.1763236 7.727719,7.0900696 6.3088244,7.3426216 5.5727803,7.4736226 4.6649971,7.7334976 4.5325305,7.8511186 4.344346,8.0182126 4.3217518,8.1369546 4.3739827,8.6830706 c 0.061401,0.641792 0.059488,1.4079884 -0.00394,1.5832514 -0.064677,0.17868 -0.080501,0.1849 -1.3790228,0.543591 C 2.3823171,10.978055 1.7035713,11.167232 1.482686,11.23028 1.2618086,11.29336 1.0314941,11.337125 0.9708661,11.32756 0.7731197,11.29635 0.15475,10.424928 0.0441679,10.021521 -0.0680817,9.6121746 0.0421979,8.7797006 0.2780106,8.2563356 0.5236112,7.7112186 1.1400092,6.951896 1.5500054,6.6893597 Z" display="inline"/></g></g></g></g></svg>