<svg xmlns="http://www.w3.org/2000/svg" xmlns:svg="http://www.w3.org/2000/svg" xmlns:xlink="http://www.w3.org/1999/xlink" id="svg2" width="16" height="16" display="inline" version="1.0"><defs id="defs4"><radialGradient id="radialGradient3897" cx="14.02" cy="18.026" r="10" fx="14.02" fy="18.026" gradientTransform="matrix(1.1,0,0,0.79164213,-6.4223406,-4.2704531)" gradientUnits="userSpaceOnUse" xlink:href="#StandardGradient"/><linearGradient id="StandardGradient" x1="11.999" x2="11.999" y1=".922" y2="19.387" gradientTransform="scale(0.9219544,1.0846523)" gradientUnits="userSpaceOnUse"><stop id="stop3283" offset="0" stop-color="#000" stop-opacity=".235"/><stop id="stop2651" offset="1" stop-color="#000" stop-opacity=".549"/></linearGradient></defs><metadata id="metadata7"/><g id="layer1" display="inline"><path id="path3048" fill="#bebebe" fill-opacity="1" stroke="none" d="m 6,1.03125 0,1 4,0 0,-1 -4,0 z m 0,2 0,1 4,0 0,-1 -4,0 z m 0,2 L 6,7 3,7 l 5,6 5,-6 -3,0 0,-1.96875 -4,0 z M 8,13 c -0.5522847,0 -1,0.447715 -1,1 0,0.552285 0.4477153,1 1,1 0.5522847,0 1,-0.447715 1,-1 0,-0.552285 -0.4477153,-1 -1,-1 z m -3,0 c -0.5522847,0 -1,0.447715 -1,1 0,0.552285 0.4477153,1 1,1 0.5522847,0 1,-0.447715 1,-1 0,-0.552285 -0.4477153,-1 -1,-1 z m 6,0 c -0.552285,0 -1,0.447715 -1,1 0,0.552285 0.447715,1 1,1 0.552285,0 1,-0.447715 1,-1 0,-0.552285 -0.447715,-1 -1,-1 z" display="inline"/></g></svg>