<svg xmlns="http://www.w3.org/2000/svg" xmlns:svg="http://www.w3.org/2000/svg" id="svg7384" width="16" height="16" version="1.1"><metadata id="metadata90"/><title id="title9167">Gnome Symbolic Icon Theme</title><g id="layer12" display="inline" transform="translate(-340,-646)"><g id="document-page-setup_16" transform="translate(321,498.63783)"><g id="g4468" display="inline" transform="translate(19.007204,147.36309)"><g id="layer1-84" display="inline"><path id="path4102" fill="#bebebe" fill-opacity="1" stroke="none" d="M 3.5,1 C 2.7839752,0.99322745 2.1208246,1.5295473 2.03125,2.25 1.9675977,3.1443962 2.0163733,4.0709112 2,4.96875 2.00531,7.8575801 1.981404,10.736606 2,13.625 2.056963,14.348669 2.6716218,14.969063 3.40625,15 c 3.0615834,0.0074 6.1258517,0.0023 9.1875,0 C 13.415923,14.994635 14.029386,14.232873 14,13.4375 13.994662,9.7550749 14.018632,6.0569886 14,2.375 13.942223,1.6152376 13.274267,0.9712817 12.5,1 l -9,0 z m 1,2 C 6.8668374,3.006719 9.2277551,2.9764193 11.59375,3 12.090947,3.1058388 11.991332,3.6850506 12,4.0625 L 12,12.5 C 12.0034,12.99499 11.463698,13.032064 11.09375,13 8.8621325,12.9933 6.6370249,13.02357 4.40625,13 3.9090529,12.894158 4.0086682,12.31495 4,11.9375 L 4,3.5 C 3.9935099,3.231237 4.2311459,2.9935319 4.5,3 Z M 5,4 5,12 11,12 5,4 Z" display="inline" opacity="1"/></g></g></g></g></svg>