<svg xmlns="http://www.w3.org/2000/svg" xmlns:svg="http://www.w3.org/2000/svg" id="svg7384" width="16" height="16" version="1.1"><metadata id="metadata90"/><title id="title9167">Gnome Symbolic Icon Theme</title><g id="layer12" transform="translate(-160.0002,-646)"><g id="document-open_16" transform="translate(84.0002,517.63783)"><g id="g4432" display="inline" transform="translate(76,128.36217)"><g id="layer1-74" display="inline"><path id="Symbol-9" fill="#bebebe" fill-opacity="1" stroke="none" stroke-dasharray="none" stroke-linecap="round" stroke-linejoin="miter" stroke-miterlimit="4" stroke-opacity="1" stroke-width="1" d="M 3,1 C 2.446,1 2,1.446 2,2 L 2,3 14,3 C 14,2.446 13.554,2 13,2 L 7,2 C 7,1.446 6.554,1 6,1 L 3,1 Z M 2.5,4 C 1.669,4 1,4.669 1,5.5 L 1,10 1,11.5 C 1,12.331 1.669,13 2.5,13 L 5,13 5,13.5 C 5,14.331 5.669,15 6.5,15 l 6,0 c 0.831,0 1.5,-0.669 1.5,-1.5 l 0,-0.4375 0.03125,0 0,-0.15625 C 14.603723,12.695291 15,12.147488 15,11.5 L 15,10 15,5.5 C 15,4.669 14.331,4 13.5,4 l -1,0 -6,0 -4,0 z m 5,2 4,0 C 11.777,6 12,6.223 12,6.5 l 0,6 c 0,0.277 -0.223,0.5 -0.5,0.5 l -4,0 C 7.223,13 7,12.777 7,12.5 l 0,-6 C 7,6.223 7.223,6 7.5,6 Z" display="inline"/></g></g></g></g></svg>