<svg xmlns="http://www.w3.org/2000/svg" xmlns:svg="http://www.w3.org/2000/svg" id="svg7384" width="16" height="16.012" version="1.1"><metadata id="metadata90"/><title id="title9167">Gnome Symbolic Icon Theme</title><g id="layer12" display="inline" transform="translate(-243.0002,-767)"><g id="document-send_16" transform="translate(186.0002,600.65012)"><g id="g4634" display="inline" transform="translate(57,166.36217)"><g id="layer1-16" display="inline"><path id="path2851" fill="#bebebe" fill-opacity="1" stroke="none" d="M 6.5,2 C 5.669,2 5,2.669 5,3.5 L 5,9 5,12.5 C 5,13.331 5.669,14 6.5,14 L 9.9999997,14 13.5,14 C 14.331,14 15,13.331 15,12.5 L 15,7 15,3.5 C 15,2.669 14.331,2 13.5,2 L 9.9999997,2 6.5,2 Z M 7.5,4 9.9999997,4 12.5,4 C 12.777,4 13,4.223 13,4.5 l 0,2.5 0,4.5 C 13,11.777 12.777,12 12.5,12 L 9.9999997,12 7.5,12 C 7.223,12 7,11.777 7,11.5 L 7,9 7,4.5 C 7,4.223 7.223,4 7.5,4 Z M 2,5 2,6 4,6 4,5 2,5 Z M 0,8 0,9 4,9 4,8 0,8 Z m 1,3 0,1 3,0 0,-1 -3,0 z" display="inline"/></g></g></g></g></svg>