<svg xmlns="http://www.w3.org/2000/svg" xmlns:svg="http://www.w3.org/2000/svg" id="svg2" width="16" height="16" display="inline" version="1.0"><metadata id="metadata7"/><g id="layer1" display="inline"><path id="Symbol" fill="#bebebe" fill-opacity="1" stroke="none" d="m 2.4469076,2.441606 c -1.92921024,1.9221417 -1.92921015,5.0421399 0,6.964281 1.6818402,1.67568 4.272808,1.898858 6.1889675,0.652902 0.325705,0.01627 0.8509264,0.06108 1.0375613,0.272042 0.2541223,0.287232 -0.1051015,0.958719 0.3822596,1.396485 l 3.031042,3.071231 c 0,0 0.562272,0.600501 1.438025,-0.272043 0.875752,-0.872542 0.273043,-1.432755 0.273043,-1.432755 L 11.766764,10.022517 C 11.327387,9.536941 10.653432,9.894847 10.365145,9.641657 10.153416,9.455706 10.10844,8.9324089 10.092102,8.6078959 11.342639,6.6987578 11.11864,4.1172839 9.4368005,2.441606 c -1.929211,-1.9221415 -5.0606826,-1.9221414 -6.9898929,0 z m 1.1831849,1.1425774 c 0.5964073,-0.5942221 1.4205256,-0.9430797 2.329964,-0.9430798 1.818877,0 3.2947146,1.4704303 3.2947146,3.2826428 0,1.8122135 -1.4758368,3.2826436 -3.2947146,3.2826436 -1.8188757,10e-7 -3.2947148,-1.4704301 -3.2947148,-3.2826436 1e-7,-0.9061061 0.3683435,-1.745341 0.9647508,-2.339563 z"/></g></svg>