<svg xmlns="http://www.w3.org/2000/svg" xmlns:svg="http://www.w3.org/2000/svg" id="svg7384" width="16" height="16" version="1.1"><metadata id="metadata90"/><title id="title9167">Gnome Symbolic Icon Theme</title><g id="layer12" display="inline" transform="translate(-41.0002,-887)"><path style="text-indent:0;text-align:start;line-height:normal;text-transform:none;block-progression:tb;marker:none;-inkscape-font-specification:Bitstream Vera Sans" id="path8864" fill="#bebebe" fill-opacity="1" stroke="none" stroke-width="2" d="M 2 5 L 2 6 L 2 10 L 2 11 L 3 11 C 3.30945 11 3.55232 10.9097 3.75 10.71875 L 6.40625 8 L 3.75 5.28125 C 3.55232 5.0903 3.30945 5 3 5 L 2 5 z" color="#bebebe" direction="ltr" display="inline" enable-background="accumulate" font-family="Bitstream Vera Sans" font-size="medium" font-stretch="normal" font-style="normal" font-variant="normal" font-weight="normal" letter-spacing="normal" overflow="visible" text-anchor="start" text-decoration="none" transform="translate(41.0002,887)" visibility="visible" word-spacing="normal" writing-mode="lr-tb"/><path style="text-indent:0;text-align:start;line-height:normal;text-transform:none;block-progression:tb;marker:none;-inkscape-font-specification:Bitstream Vera Sans" id="path8866" fill="#bebebe" fill-opacity="1" stroke="none" stroke-width="2" d="M 13 5 C 12.69055 5 12.44768 5.0903 12.25 5.28125 L 9.59375 8 L 12.25 10.71875 C 12.44768 10.9097 12.69055 11 13 11 L 14 11 L 14 10 L 14 6 L 14 5 L 13 5 z" color="#bebebe" direction="ltr" display="inline" enable-background="accumulate" font-family="Bitstream Vera Sans" font-size="medium" font-stretch="normal" font-style="normal" font-variant="normal" font-weight="normal" letter-spacing="normal" overflow="visible" text-anchor="start" text-decoration="none" transform="translate(41.0002,887)" visibility="visible" word-spacing="normal" writing-mode="lr-tb"/></g></svg>