<svg xmlns="http://www.w3.org/2000/svg" xmlns:svg="http://www.w3.org/2000/svg" id="svg7384" width="16" height="16" version="1.1"><metadata id="metadata90"/><title id="title9167">Gnome Symbolic Icon Theme</title><g id="layer12" display="inline" transform="translate(-241.0002,-647)"><g id="edit-select-all_16" transform="translate(222.0002,423.63783)"><g id="g4778" display="inline" transform="translate(19,222.36216)"><g id="layer1-34" display="inline"><path id="path2883" fill="#bebebe" fill-opacity="1" stroke="none" d="m 2,2.9999999 0,2 12,0 0,-2 -12,0 z m 0,4 0,2 12,0 0,-2 -12,0 z m 7,3 L 9,11 l 1,0 0,2 -1,0 0,1 3,0 0,-1 -1,0 0,-2 1,0 0,-1.0000001 -3,0 z M 2,11 l 0,2 6,0 0,-2 -6,0 z" display="inline"/></g></g></g></g></svg>