<svg xmlns="http://www.w3.org/2000/svg" xmlns:svg="http://www.w3.org/2000/svg" id="svg2" width="16" height="16" display="inline" version="1.0"><metadata id="metadata7"/><g id="layer1" display="inline"><g id="edit-find-replace_16" transform="translate(-19,-204.36217)"><g id="g4724" display="inline" transform="translate(18.999882,204.35802)"><g id="layer1-78" display="inline"><path id="Symbol-7" fill="#bebebe" fill-opacity="1" stroke="none" d="m 5.9375,1 c -1.2651705,0 -2.5353948,0.4764293 -3.5,1.4375 -1.9292101,1.9221417 -1.92921008,5.046609 0,6.96875 1.6818403,1.675679 4.2713406,1.902205 6.1875,0.65625 0.3257053,0.01628 0.875865,0.0703 1.0625,0.28125 0.2541228,0.287232 -0.112362,0.937235 0.375,1.375 l 3.03125,3.09375 c 0,0 0.561748,0.591294 1.4375,-0.28125 0.875752,-0.872543 0.28125,-1.4375 0.28125,-1.4375 l -3.03125,-3.0625 C 11.341874,9.5456737 10.663287,9.90944 10.375,9.65625 10.163271,9.470299 10.110088,8.918263 10.09375,8.59375 11.344287,6.684612 11.119341,4.1131779 9.4375,2.4375 8.4728947,1.4764293 7.2026705,0.99999999 5.9375,1 Z M 5.96875,2.65625 C 7.7876271,2.65625 9.25,4.1252875 9.25,5.9375 9.2499998,7.7497133 7.7876277,9.21875 5.96875,9.21875 4.1498744,9.2187515 2.65625,7.7497134 2.65625,5.9375 2.6562502,5.0313938 3.0285928,4.1879721 3.625,3.59375 4.2214074,2.9995279 5.0593116,2.6562501 5.96875,2.65625 Z M 2,13 c -0.552,0 -1,0.448 -1,1 0,0.552 0.4480001,1 1,1 0.552,0 1.0000001,-0.448 1,-1 0,-0.552 -0.4479999,-1 -1,-1 z m 3,0 c -0.552,0 -0.9999999,0.448 -1,1 0,0.552 0.4480001,1 1,1 0.552,0 1.0000001,-0.448 1,-1 0,-0.552 -0.4479999,-1 -1,-1 z m 3,0 c -0.552,0 -0.9999999,0.448 -1,1 0,0.552 0.4480001,1 1,1 0.552,0 1.0000001,-0.448 1,-1 0,-0.552 -0.4479999,-1 -1,-1 z" display="inline"/></g></g></g></g></svg>