<svg xmlns="http://www.w3.org/2000/svg" xmlns:svg="http://www.w3.org/2000/svg" id="svg2" width="16" height="16" display="inline" version="1.0"><metadata id="metadata7"/><g id="layer1" display="inline"><g id="edit-paste_16" transform="translate(-38,-204.36217)"><g id="g4742" display="inline" transform="translate(37.984375,204.36217)"><g id="layer1-88" display="inline"><path id="Symbol-6" fill="#bebebe" fill-opacity="1" stroke="none" d="m 5,0.9999996 0,0.96875 -1.46875,0 c -0.8309999,0 -1.5,0.669 -1.5,1.5 l 0,8.0312504 c 0,0.810431 0.6351935,1.468004 1.4375,1.5 0.020363,8.12e-4 0.041931,0 0.0625,0 L 4,13 5,13 5,13.5 C 5,14.331 5.669,15 6.5,15 l 6,0 c 0.831,0 1.5,-0.669 1.5,-1.5 l 0,-7.0000004 c 0,-0.657875 -0.412983,-1.2029937 -1,-1.40625 l 0,-1.625 c 0,-0.8309999 -0.669,-1.5 -1.5,-1.5 l -1.5,0 0,-0.96875 z m 1,1 3,0 0,1 -3,0 z m 1.5,5 4,0 c 0.277,0 0.5,0.223 0.5,0.5 L 12,12.5 c 0,0.277 -0.223,0.5 -0.5,0.5 l -4,0 C 7.223,13 7,12.777 7,12.5 L 7,7.4999996 c 0,-0.277 0.223,-0.5 0.5,-0.5 z" display="inline"/></g></g></g></g></svg>