<svg xmlns="http://www.w3.org/2000/svg" xmlns:svg="http://www.w3.org/2000/svg" id="svg2" width="16" height="16" display="inline" version="1.0"><metadata id="metadata7"/><g id="layer1" display="inline"><g id="edit-copy_16" transform="translate(-19,-185.36217)"><g id="g4670" display="inline" transform="translate(19,185.36217)"><g id="layer1-11" display="inline"><path id="Symbol-1" fill="#bebebe" fill-opacity="1" stroke="none" d="M 6.5,1 C 5.669,1 5,1.669 5,2.5 l 0,8 C 5,11.331 5.669,12 6.5,12 l 6,0 c 0.831,0 1.5,-0.669 1.5,-1.5 l 0,-8 C 14,1.669 13.331,1 12.5,1 l -6,0 z m 1,2 4,0 C 11.777,3 12,3.223 12,3.5 l 0,6 C 12,9.777 11.777,10 11.5,10 l -4,0 C 7.223,10 7,9.777 7,9.5 l 0,-6 C 7,3.223 7.223,3 7.5,3 Z m -4,1 C 2.669,4 2,4.669 2,5.5 l 0,8 C 2,14.331 2.669,15 3.5,15 l 6,0 c 0.831,0 1.5,-0.669 1.5,-1.5 l 0,-0.5 -2.5,0 -4,0 C 4.223,13 4,12.777 4,12.5 L 4,6.5 4,4 3.5,4 Z" display="inline"/></g></g></g></g></svg>