<svg xmlns="http://www.w3.org/2000/svg" xmlns:svg="http://www.w3.org/2000/svg" id="svg7384" width="16" height="16" version="1.1"><metadata id="metadata90"/><title id="title9167">Gnome Symbolic Icon Theme</title><g id="layer12" display="inline" transform="translate(-201.0002,-767)"><path id="path36048" fill="#bebebe" fill-opacity="1" stroke="none" stroke-width="2" d="m 211.875,767.0625 a 1.0001,1.0001 0 0 0 -0.6875,0.5 l -3.3125,5.625 a 1.0077822,1.0077822 0 1 0 1.75,1 l 3.3125,-5.625 a 1.0001,1.0001 0 0 0 -1.0625,-1.5 z" baseline-shift="baseline" color="#000" direction="ltr" display="inline" enable-background="new" font-family="Sans" font-size="medium" font-stretch="normal" font-style="normal" font-variant="normal" font-weight="normal" letter-spacing="normal" overflow="visible" text-anchor="start" text-decoration="none" visibility="visible" word-spacing="normal" writing-mode="lr-tb" style="text-indent:0;text-align:start;line-height:normal;text-transform:none;block-progression:tb;marker:none;-inkscape-font-specification:Sans"/><path d="m 206.53145,771.71875 4.94742,3.05384 c 0.60355,0.31472 0.68739,0.89216 0.20883,1.50866 l -0.625,0.8125 -6.59375,-3.875 0.55118,-1.06136 c 0.28883,-0.58524 0.75466,-0.81586 1.51132,-0.43864 z" style="marker:none" id="path36050" fill="#bebebe" fill-opacity="1" fill-rule="nonzero" stroke="none" stroke-width=".551" color="#000" display="inline" enable-background="new" overflow="visible" visibility="visible"/><path d="m 204.55512,774.57767 c 0,0 -2.85468,3.03618 -1.33265,4.69914 1.6875,1.84375 4.75797,1.76738 5.86282,1.72319 l 4.00866,0 c -1.875,-0.375 -3.83708,-1.81564 -2.90273,-3.24464 z" style="marker:none" id="path36052" fill="#bebebe" fill-opacity="1" fill-rule="nonzero" stroke="none" stroke-width=".551" color="#000" display="inline" enable-background="new" overflow="visible" visibility="visible"/></g></svg>