<svg xmlns="http://www.w3.org/2000/svg" xmlns:svg="http://www.w3.org/2000/svg" id="svg7384" width="16.007" height="16.008" version="1.1"><metadata id="metadata90"/><title id="title9167">Gnome Symbolic Icon Theme</title><g id="layer12" display="inline" transform="translate(-180.96716,-806.99245)"><path id="path4640" fill="#bebebe" fill-opacity="1" stroke="none" stroke-width="2.156" d="m 188.3752,807 c -0.22882,0.0437 -0.41035,0.2667 -0.40625,0.5 l 0,0.59375 c -3.16079,0.24582 -5.67637,2.75322 -5.9375,5.90625 l -0.5,0 c -0.031,-0.003 -0.0627,-0.003 -0.0937,0 -0.26195,0.0238 -0.49328,0.30019 -0.46875,0.5625 0.0246,0.26231 0.3007,0.46288 0.5625,0.4375 l 0.5,0 c 0.23256,3.18201 2.7559,5.75257 5.9375,6 l 0,0.5 c -0.004,0.26416 0.23626,0.53125 0.5,0.53125 0.26374,0 0.50372,-0.26709 0.5,-0.53125 l 0,-0.5 c 3.20261,-0.23774 5.75016,-2.82717 5.96875,-6.03125 l 0.53125,0 c 0.26372,0.004 0.5,-0.23582 0.5,-0.5 0,-0.26418 -0.23628,-0.50374 -0.5,-0.5 l -0.53125,0 c -0.27588,-3.14608 -2.80782,-5.64035 -5.96875,-5.875 l 0,-0.59375 c 0.005,-0.29617 -0.30327,-0.55555 -0.59375,-0.5 z m 0.0937,3.0625 c 2.49225,0 4.5,1.9794 4.5,4.46875 0,2.48935 -2.00775,4.5 -4.5,4.5 -0.0213,0 -0.0413,2.9e-4 -0.0625,0 -2.46253,-0.0337 -4.40625,-2.03188 -4.40625,-4.5 6.7e-4,-0.01 0,-0.0213 0,-0.0312 0.0169,-2.47452 1.98714,-4.4375 4.46875,-4.4375 z" baseline-shift="baseline" color="#000" direction="ltr" display="inline" enable-background="accumulate" font-family="Sans" font-size="medium" font-stretch="normal" font-style="normal" font-variant="normal" font-weight="normal" letter-spacing="normal" overflow="visible" text-anchor="start" text-decoration="none" visibility="visible" word-spacing="normal" writing-mode="lr-tb" style="text-indent:0;text-align:start;line-height:normal;text-transform:none;block-progression:tb;marker:none;-inkscape-font-specification:Sans"/><path id="path5428" fill="#bebebe" fill-opacity="1" stroke="none" stroke-width="2" d="m -91,478 a 1,1 0 1 1 -2,0 1,1 0 1 1 2,0 z" color="#000" display="inline" enable-background="new" overflow="visible" transform="matrix(3.5030816,0,0,3.50887,510.76439,-862.731)" visibility="visible" style="marker:none"/></g></svg>