<svg xmlns="http://www.w3.org/2000/svg" xmlns:osb="http://www.openswatchbook.org/uri/2009/osb" xmlns:svg="http://www.w3.org/2000/svg" id="svg7384" width="16" height="16" enable-background="new" version="1.1"><metadata id="metadata90"/><title id="title8473">Paper Symbolic Icon Theme</title><defs id="defs7386"><linearGradient id="linearGradient5606" osb:paint="solid"><stop id="stop5608" offset="0" stop-color="#000" stop-opacity="1"/></linearGradient><filter id="filter7554" color-interpolation-filters="sRGB"><feBlend id="feBlend7556" in2="BackgroundImage" mode="darken"/></filter></defs><g id="layer12" display="inline" transform="translate(-285.0002,-200.99001)"><g id="folder-new_16" transform="translate(247.0002,-41.372159)"><g id="g4866" display="inline" transform="translate(38,242.36217)"><g id="layer1-02" display="inline"><path id="path3046" fill="#bebebe" fill-opacity="1" stroke="none" d="M 3,1 C 2.446,1 2,1.446 2,2 L 2,3 14,3 C 14,2.446 13.554,2 13,2 L 7,2 C 7,1.446 6.554,1 6,1 Z M 2.5,4 C 1.669,4 1,4.669 1,5.5 l 0,8 C 1,14.331 1.669,15 2.5,15 l 11,0 c 0.831,0 1.5,-0.669 1.5,-1.5 l 0,-8 C 15,4.669 14.331,4 13.5,4 Z m 4.5,2 2,0 0,2 2,0 0,2 -2,0 0,2 -2,0 0,-2 -2,0 0,-2 2,0 z" display="inline"/></g></g></g></g></svg>