<svg xmlns="http://www.w3.org/2000/svg" xmlns:svg="http://www.w3.org/2000/svg" id="svg7384" width="16" height="16" version="1.1"><metadata id="metadata90"/><title id="title9167">Gnome Symbolic Icon Theme</title><g id="layer12" display="inline" transform="translate(-241,-827)"><path id="path26548" fill="#bebebe" fill-opacity="1" stroke="none" stroke-width="2" d="M 0 5 L 0 6 L 0 10 L 0 11 L 1 11 C 1.30945 11 1.55232 10.9097 1.75 10.71875 L 4.40625 8 L 1.75 5.28125 C 1.55232 5.0903 1.30945 5 1 5 L 0 5 z" color="#bebebe" direction="ltr" display="inline" enable-background="accumulate" font-family="Bitstream Vera Sans" font-size="medium" font-stretch="normal" font-style="normal" font-variant="normal" font-weight="normal" letter-spacing="normal" overflow="visible" text-anchor="start" text-decoration="none" transform="translate(241,827)" visibility="visible" word-spacing="normal" writing-mode="lr-tb" style="text-indent:0;text-align:start;line-height:normal;text-transform:none;block-progression:tb;marker:none;-inkscape-font-specification:Bitstream Vera Sans"/><path id="path26550" fill="#bebebe" fill-opacity="1" stroke="none" stroke-width="2" d="M 15 5 C 14.69055 5 14.44768 5.0903 14.25 5.28125 L 11.59375 8 L 14.25 10.71875 C 14.44768 10.9097 14.69055 11 15 11 L 16 11 L 16 10 L 16 6 L 16 5 L 15 5 z" color="#bebebe" direction="ltr" display="inline" enable-background="accumulate" font-family="Bitstream Vera Sans" font-size="medium" font-stretch="normal" font-style="normal" font-variant="normal" font-weight="normal" letter-spacing="normal" overflow="visible" text-anchor="start" text-decoration="none" transform="translate(241,827)" visibility="visible" word-spacing="normal" writing-mode="lr-tb" style="text-indent:0;text-align:start;line-height:normal;text-transform:none;block-progression:tb;marker:none;-inkscape-font-specification:Bitstream Vera Sans"/><path id="path11643-3-2-67" fill="#bebebe" fill-opacity="1" stroke="none" stroke-width="2" d="m 248,830 0,2 1.90625,0 c -0.0552,0 0.0937,0.17104 0.0937,0.0937 l 0,0.9375 -1,0 c -1.71588,0 -3.03787,1.10986 -3.0625,2.46875 -0.0123,0.67944 0.3195,1.35323 0.875,1.8125 0.5555,0.45927 1.30959,0.71875 2.1875,0.71875 l 2,0 1,0 0,-1 0,-4.9375 C 252,830.92256 251.10309,830 249.90625,830 L 248,830 z m 1,5.03125 1,0 0,1 -1,0 c -0.51941,0 -0.78011,-0.14571 -0.90625,-0.25 -0.12614,-0.10429 -0.15755,-0.17804 -0.15625,-0.25 0.003,-0.14393 0.0927,-0.5 1.0625,-0.5 z" baseline-shift="baseline" color="#000" direction="ltr" display="inline" enable-background="accumulate" font-family="Sans" font-size="medium" font-stretch="normal" font-style="normal" font-variant="normal" font-weight="normal" letter-spacing="normal" overflow="visible" text-anchor="start" text-decoration="none" visibility="visible" word-spacing="normal" writing-mode="lr-tb" style="text-indent:0;text-align:start;line-height:normal;text-transform:none;block-progression:tb;marker:none;-inkscape-font-specification:Sans"/></g></svg>