<svg xmlns="http://www.w3.org/2000/svg" xmlns:svg="http://www.w3.org/2000/svg" id="svg2" width="16" height="16" display="inline" version="1.0"><metadata id="metadata7"/><g id="layer1" display="inline"><path id="path2914" fill="#bebebe" fill-opacity="1" stroke="none" d="M 1 1 L 1 3 L 15 3 L 15 1 L 1 1 z M 1 4 L 1 6 L 15 6 L 15 4 L 1 4 z M 1 7 L 1 9 L 15 9 L 15 7 L 1 7 z M 6 10 L 2 12.5 L 6 15 L 6 13 L 7 13 L 9 13 L 10 13 L 10 15 L 14 12.5 L 10 10 L 10 12 L 9 12 L 7 12 L 6 12 L 6 10 z" display="inline"/></g></svg>