<svg xmlns="http://www.w3.org/2000/svg" xmlns:svg="http://www.w3.org/2000/svg" id="svg7384" width="16" height="16" version="1.1"><metadata id="metadata90"/><title id="title9167">Gnome Symbolic Icon Theme</title><g id="layer12" display="inline" transform="translate(-361.0001,-627)"><g id="go-jump_16" transform="translate(361.0001,270.63785)"><path id="Symbol-62" fill="#bebebe" fill-opacity="1" stroke="none" d="m 9.9687497,358.36215 0,2.0625 1.0312503,0 c 1.70792,0 1.94931,0.36591 1.96875,2 9.6e-4,0.0809 0,0.13128 0,0.21875 l 0,2.5 0,0.1875 c -0.0169,1.65943 -0.25076,2 -1.96875,2 l -1.0312503,0 0,-2.0625 -4.9999997,3.09375 4.9999997,2.96874 0,-1.93749 2.2187503,0 c 1.55051,0 2.8125,-0.79324 2.8125,-2.34375 l 0,-1.71875 0,-2.90625 0,-1.71875 c 0,-1.55052 -1.26199,-2.34375 -2.8125,-2.34375 l -2.2187503,0 z m -6.9999997,8.5 c -0.82843,0 -1.5,0.67157 -1.5,1.5 0,0.82843 0.67157,1.5 1.5,1.5 0.82842,0 1.5,-0.67157 1.5,-1.5 0,-0.82843 -0.67158,-1.5 -1.5,-1.5 z" display="inline"/></g></g></svg>