<svg xmlns="http://www.w3.org/2000/svg" xmlns:svg="http://www.w3.org/2000/svg" id="svg7384" width="16" height="16" version="1.1"><metadata id="metadata90"/><title id="title9167">Gnome Symbolic Icon Theme</title><g id="layer12" display="inline" transform="translate(-141.0002,-747)"><path id="path1681" fill="#bebebe" fill-opacity="1" stroke="none" stroke-width="2" d="m 144.78125,749 a 1.0001,1.0001 0 0 0 -0.5,1.71875 L 148.5625,755 l -4.28125,4.28125 a 1.016466,1.016466 0 1 0 1.4375,1.4375 l 5,-5 0.6875,-0.71875 -0.6875,-0.71875 -5,-5 A 1.0001,1.0001 0 0 0 144.78125,749 z" baseline-shift="baseline" color="#000" direction="ltr" display="inline" enable-background="accumulate" font-family="Sans" font-size="medium" font-stretch="normal" font-style="normal" font-variant="normal" font-weight="normal" letter-spacing="normal" overflow="visible" text-anchor="start" text-decoration="none" visibility="visible" word-spacing="normal" writing-mode="lr-tb" style="text-indent:0;text-align:start;line-height:normal;text-transform:none;block-progression:tb;marker:none;-inkscape-font-specification:Sans"/><rect id="rect8360" width="2" height="12" x="152" y="749" fill="#bebebe" fill-opacity="1" fill-rule="nonzero" stroke="none" stroke-width="2" color="#bebebe" display="inline" enable-background="accumulate" overflow="visible" rx="0" ry="0" visibility="visible" style="marker:none"/><rect id="rect8362" width="1" height="1" x="-145" y="749" fill="#bebebe" fill-opacity="1" stroke="none" rx="0" ry="1" transform="scale(-1,1)"/><rect id="rect8366" width="1" height="1" x="-145" y="760" fill="#bebebe" fill-opacity="1" stroke="none" rx="0" ry="1" transform="scale(-1,1)"/></g></svg>