<svg xmlns="http://www.w3.org/2000/svg" xmlns:svg="http://www.w3.org/2000/svg" id="svg7384" width="16" height="16" version="1.1"><metadata id="metadata90"/><title id="title9167">Gnome Symbolic Icon Theme</title><g id="layer12" display="inline" transform="translate(-221.0002,-747)"><path id="path8432" fill="#bebebe" fill-opacity="1" stroke="none" stroke-width="2" d="m 229,752.59375 -0.71875,0.6875 -5,5 a 1.016466,1.016466 0 1 0 1.4375,1.4375 L 229,755.4375 l 4.28125,4.28125 a 1.016466,1.016466 0 1 0 1.4375,-1.4375 l -5,-5 L 229,752.59375 z" baseline-shift="baseline" color="#000" direction="ltr" display="inline" enable-background="accumulate" font-family="Sans" font-size="medium" font-stretch="normal" font-style="normal" font-variant="normal" font-weight="normal" letter-spacing="normal" overflow="visible" text-anchor="start" text-decoration="none" visibility="visible" word-spacing="normal" writing-mode="lr-tb" style="text-indent:0;text-align:start;line-height:normal;text-transform:none;block-progression:tb;marker:none;-inkscape-font-specification:Sans"/><rect id="rect8436" width="2" height="12" x="-752" y="-235" fill="#bebebe" fill-opacity="1" fill-rule="nonzero" stroke="none" stroke-width="2" color="#bebebe" display="inline" enable-background="accumulate" overflow="visible" rx="0" ry="0" transform="matrix(0,-1,-1,0,0,0)" visibility="visible" style="marker:none"/><rect id="rect8438" width="1" height="1" x="759" y="-235" fill="#bebebe" fill-opacity="1" stroke="none" rx="0" ry="1" transform="matrix(0,1,-1,0,0,0)"/><rect id="rect8442" width="1" height="1" x="759" y="-224" fill="#bebebe" fill-opacity="1" stroke="none" rx="0" ry="1" transform="matrix(0,1,-1,0,0,0)"/></g></svg>