<svg xmlns="http://www.w3.org/2000/svg" xmlns:svg="http://www.w3.org/2000/svg" id="svg7384" width="16" height="15.982" version="1.1"><metadata id="metadata90"/><title id="title9167">Gnome Symbolic Icon Theme</title><g id="layer12" display="inline" transform="translate(-61.0002,-807.03638)"><g id="insert-link_16" transform="translate(4.0002,374.65606)"><g id="g5556" display="inline" transform="translate(57,432.36216)"><g id="layer1-26" display="inline"><path id="path4117" fill="#bebebe" fill-opacity="1" stroke="none" d="M 1.5,4 C 0.669,4 0,4.669 0,5.5 l 0,3 C 0,9.331 0.669,10 1.5,10 L 4,10 4,8 2.5,8 C 2.223,8 2,7.777 2,7.5 l 0,-1 C 2,6.223 2.223,6 2.5,6 l 6,0 C 8.777,6 9,6.223 9,6.5 L 9,7 11,7 11,5.5 C 11,4.669 10.331,4 9.5,4 l -8,0 z M 12,4 12,6 13.5,6 C 13.777,6 14,6.223 14,6.5 l 0,1 C 14,7.777 13.777,8 13.5,8 l -6,0 C 7.223,8 7,7.777 7,7.5 L 7,7 5,7 5,8.5 C 5,9.331 5.669,10 6.5,10 l 8,0 C 15.331,10 16,9.331 16,8.5 l 0,-3 C 16,4.669 15.331,4 14.5,4 L 12,4 Z m -7,8 3,3 3,-3 -6,0 z" font-family="Sans" font-size="6.933" font-stretch="normal" font-style="normal" font-variant="normal" font-weight="bold" text-anchor="start" writing-mode="lr-tb" style="line-height:125%;-inkscape-font-specification:'Abandoned Bitplane Bold';text-align:start"/></g></g></g></g></svg>