<svg xmlns="http://www.w3.org/2000/svg" xmlns:svg="http://www.w3.org/2000/svg" id="svg7384" width="16" height="16" version="1.1"><metadata id="metadata90"/><title id="title9167">Gnome Symbolic Icon Theme</title><g id="layer12" display="inline" transform="translate(-81.000135,-807)"><g id="insert-text_16" transform="translate(62.000135,355.63778)"><g id="g5588" display="inline" transform="translate(18.984375,451.36216)"><g id="layer1-98" display="inline"><path id="text2852" fill="#bebebe" fill-opacity="1" stroke="none" d="m 3.5,3 -2.4375,7.03125 1.71875,0 L 3.1875,8.75 l 2.65625,0 0.4375,1.28125 1.71875,0 L 5.53125,3 3.5,3 Z m 5.53125,0 0,7.03125 1.78125,0 0,-0.75 c 0.242906,0.3081021 0.517068,0.5084872 0.8125,0.65625 0.295426,0.144619 0.615938,0.218749 1,0.21875 0.679484,-10e-7 1.250915,-0.2344012 1.6875,-0.75 0.436573,-0.5187415 0.656244,-1.1857295 0.65625,-2 -6e-6,-0.8142652 -0.219677,-1.4843971 -0.65625,-2 C 13.875915,4.8875126 13.304484,4.6250054 12.625,4.625 c -0.384062,5.4e-6 -0.704574,0.070992 -1,0.21875 -0.295432,0.1446242 -0.569594,0.3794032 -0.8125,0.6875 L 10.8125,3 9.03125,3 Z m -4.5,1.65625 0.90625,2.78125 -1.8125,0 0.90625,-2.78125 z m 7.4375,1.1875 c 0.37749,4.2e-6 0.678042,0.1421669 0.875,0.40625 0.200234,0.2640907 0.281245,0.65323 0.28125,1.15625 -5e-6,0.5030252 -0.08102,0.8921646 -0.28125,1.15625 -0.196958,0.2640883 -0.49751,0.3750011 -0.875,0.375 -0.377497,1.1e-6 -0.671484,-0.1109117 -0.875,-0.375 C 10.893516,8.2952707 10.812497,7.9061313 10.8125,7.40625 10.812497,6.9063739 10.89351,6.5140906 11.09375,6.25 11.297266,5.982773 11.591253,5.8437542 11.96875,5.84375 Z M 5,12 l 3,3 3,-3 -6,0 z" font-family="Sans" font-size="6.933" font-stretch="normal" font-style="normal" font-variant="normal" font-weight="bold" text-anchor="start" writing-mode="lr-tb" style="line-height:125%;-inkscape-font-specification:'Abandoned Bitplane Bold';text-align:start"/></g></g></g></g></svg>