<svg xmlns="http://www.w3.org/2000/svg" xmlns:osb="http://www.openswatchbook.org/uri/2009/osb" xmlns:svg="http://www.w3.org/2000/svg" id="svg7384" width="16" height="16" enable-background="new" version="1.1"><metadata id="metadata90"/><title id="title8473">Paper Symbolic Icon Theme</title><defs id="defs7386"><linearGradient id="linearGradient5606" osb:paint="solid"><stop id="stop5608" offset="0" stop-color="#000" stop-opacity="1"/></linearGradient><filter id="filter7554" color-interpolation-filters="sRGB"><feBlend id="feBlend7556" in2="BackgroundImage" mode="darken"/></filter></defs><g id="layer12" display="inline" transform="translate(-325.00021,-101)"><g id="insert-image_16" transform="translate(287.00021,-331.36215)"><g id="g5540" display="inline" transform="translate(38,432.33091)"><g id="layer1-214" display="inline"><path id="path3907" fill="#bebebe" fill-opacity="1" stroke="none" d="m 3,2.03125 c -0.554,0 -1,0.446 -1,1 L 2,10 c 0,0.554 0.446,1 1,1 l 9.96875,0 c 0.554,0 1,-0.446 1,-1 l 0,-6.96875 c 0,-0.554 -0.446,-1 -1,-1 L 3,2.03125 Z M 11.5,3 C 12.328427,3 13,3.6715729 13,4.5 13,5.3284271 12.328427,6 11.5,6 10.671573,6 10,5.3284271 10,4.5 10,3.6715729 10.671573,3 11.5,3 Z M 6,5 8,7 9,6 13,10 3,10 3,8 6,5 Z m -1,7 3,3 3,-3 -6,0 z" font-family="Sans" font-size="6.933" font-stretch="normal" font-style="normal" font-variant="normal" font-weight="bold" text-anchor="start" writing-mode="lr-tb" style="line-height:125%;-inkscape-font-specification:'Abandoned Bitplane Bold';text-align:start"/></g></g></g></g></svg>