<svg xmlns="http://www.w3.org/2000/svg" xmlns:svg="http://www.w3.org/2000/svg" id="svg7384" width="16" height="16" version="1.1"><metadata id="metadata90"/><title id="title9167">Gnome Symbolic Icon Theme</title><g id="layer12" display="inline" transform="translate(-101.00014,-927)"><g id="insert-object_16" transform="translate(101.00014,475.63778)"><g id="g5572" display="inline" transform="translate(0,451.24831)"><g id="layer1-42" display="inline" transform="translate(0,-6)"><path id="path3648" fill="#bebebe" fill-opacity="1" stroke="none" d="M 4.2499992,7 C 3.5574996,7 3,7.5287956 3,8.1856406 l 0,7.6365364 c 0,0.656853 0.5574996,1.185646 1.2499992,1.185646 l 7.5000008,0 c 0.692503,0 1.25,-0.528794 1.25,-1.185646 L 13,8.1856406 C 13,7.5287956 12.442503,7 11.75,7 Z m 1.1683341,2.0023931 5.1733357,0 c 0.230835,0 0.416662,0.1762653 0.416662,0.3952138 l 0,5.2117881 c 0,0.218947 -0.185827,0.395211 -0.416662,0.395211 l -5.1733357,0 c -0.2308336,0 -0.4166667,-0.176264 -0.4166667,-0.395211 l 0,-5.2117881 c 0,-0.2189485 0.1858331,-0.3952138 0.4166667,-0.3952138 z M 4.6666664,18 8.0000002,21.227692 11.33333,18 Z" font-family="Sans" font-size="8.997" font-stretch="normal" font-style="normal" font-variant="normal" font-weight="bold" text-anchor="start" writing-mode="lr-tb" style="line-height:125%;-inkscape-font-specification:'Abandoned Bitplane Bold';text-align:start"/></g></g></g></g></svg>