<svg xmlns="http://www.w3.org/2000/svg" xmlns:svg="http://www.w3.org/2000/svg" id="svg7384" width="16" height="16" version="1.1"><metadata id="metadata90"/><title id="title9167">Gnome Symbolic Icon Theme</title><g id="layer12" display="inline" transform="translate(-81.0004,-847)"><rect id="rect38609" width="10" height="2" x="84.001" y="850" fill="#bebebe" fill-opacity="1" stroke="none" stroke-width="1" color="#bebebe" display="inline" overflow="visible" visibility="visible" style="marker:none"/><rect id="rect38611" width="3" height="2" x="91" y="854" fill="#bebebe" fill-opacity="1" stroke="none" stroke-width="1" color="#bebebe" display="inline" overflow="visible" visibility="visible" style="marker:none"/><rect id="rect38613" width="3" height="2" x="91" y="858" fill="#bebebe" fill-opacity="1" stroke="none" stroke-width="1" color="#bebebe" display="inline" overflow="visible" visibility="visible" style="marker:none"/><path id="rect38615" fill="#bebebe" fill-opacity="1" stroke="none" stroke-width="1" d="m 82,853.0625 0,0.5 0,6.96875 0,0.5 0.5,0 7,0 0.5,0 0,-0.5 0,-6.96875 0,-0.5 -0.5,0 -7,0 -0.5,0 z m 1,1 6,0 0,5.96875 -6,0 0,-5.96875 z" baseline-shift="baseline" color="#000" direction="ltr" display="inline" enable-background="new" font-family="Sans" font-size="medium" font-stretch="normal" font-style="normal" font-variant="normal" font-weight="normal" letter-spacing="normal" overflow="visible" text-anchor="start" text-decoration="none" visibility="visible" word-spacing="normal" writing-mode="lr-tb" style="text-indent:0;text-align:start;line-height:normal;text-transform:none;block-progression:tb;marker:none;-inkscape-font-specification:Sans"/><path id="path38617" fill="#bebebe" fill-opacity="1" stroke="none" stroke-width="2" d="m 84.03125,856 0,2 4.03125,0 0,-2 -4.03125,0 z" baseline-shift="baseline" color="#000" direction="ltr" display="inline" enable-background="new" font-family="Sans" font-size="medium" font-stretch="normal" font-style="normal" font-variant="normal" font-weight="normal" letter-spacing="normal" overflow="visible" text-anchor="start" text-decoration="none" visibility="visible" word-spacing="normal" writing-mode="lr-tb" style="text-indent:0;text-align:start;line-height:normal;text-transform:none;block-progression:tb;marker:none;-inkscape-font-specification:Sans"/></g></svg>