<svg xmlns="http://www.w3.org/2000/svg" xmlns:svg="http://www.w3.org/2000/svg" xmlns:xlink="http://www.w3.org/1999/xlink" id="svg2" width="16" height="16" version="1.0"><defs id="defs4"><linearGradient id="SpecificGradient" x1="12.438" x2="12.438" y1="6" y2="16" gradientUnits="userSpaceOnUse"><stop id="stop3292" offset="0" stop-color="#ad0707" stop-opacity="1"/><stop id="stop3294" offset="1" stop-color="#f75535" stop-opacity="1"/></linearGradient><linearGradient id="linearGradient3634" x1="12.438" x2="12.438" y1="6" y2="16" gradientTransform="translate(-20,0)" gradientUnits="userSpaceOnUse" xlink:href="#SpecificGradient"/><clipPath id="clipPath3645" clipPathUnits="userSpaceOnUse"><path id="path3647" fill="#f0f" fill-opacity="1" stroke="none" d="m -17,2.9995677 0,16.0000003 16,0 0,-16.0000003 -16,0 z m 5.3125,3 2.6875,2.6875 2.6875,-2.6875 2.3125,2.3125 -2.6875,2.6875003 2.6875,2.6875 -2.3125,2.3125 -2.6875,-2.6875 -2.6875,2.6875 -2.3125,-2.3125 2.6875,-2.6875 L -14,8.3120677 l 2.3125,-2.3125 z" display="inline"/></clipPath><linearGradient id="linearGradient3782" x1="12.438" x2="12.438" y1="6" y2="16" gradientUnits="userSpaceOnUse" xlink:href="#SpecificGradient"/><linearGradient id="linearGradient3786" x1="12.438" x2="12.438" y1="6" y2="16" gradientTransform="translate(-3,-2.9995677)" gradientUnits="userSpaceOnUse" xlink:href="#SpecificGradient"/></defs><metadata id="metadata7"/><g id="layer3" display="inline" transform="translate(-3,-2.9995677)"><path id="Symbol" fill="#bebebe" fill-opacity="1" stroke="none" d="m 6,10.011314 0,1.973107 10,-10e-7 0,-1.973106 z" display="inline"/></g></svg>