<svg xmlns="http://www.w3.org/2000/svg" xmlns:svg="http://www.w3.org/2000/svg" xmlns:xlink="http://www.w3.org/1999/xlink" id="svg2" width="16" height="16" display="inline" version="1.0"><defs id="defs4"><linearGradient id="StandardGradient" x1="11.999" x2="11.999" y1=".922" y2="19.387" gradientTransform="scale(0.9219544,1.0846523)" gradientUnits="userSpaceOnUse"><stop id="stop3283" offset="0" stop-color="#000" stop-opacity=".863"/><stop id="stop2651" offset="1" stop-color="#000" stop-opacity=".471"/></linearGradient><linearGradient id="linearGradient2549" x1="11.999" x2="11.999" y1=".922" y2="17.478" gradientTransform="matrix(0.9247229,0,0,1.0872097,-2.0600562,0.9976422)" gradientUnits="userSpaceOnUse" xlink:href="#StandardGradient"/><linearGradient id="linearGradient2418" x1="11.999" x2="11.999" y1=".922" y2="17.478" gradientTransform="matrix(0.9247229,0,0,1.0872097,-4.0600562,-3.0023583)" gradientUnits="userSpaceOnUse" xlink:href="#StandardGradient"/><linearGradient id="linearGradient2422" x1="11.999" x2="11.999" y1=".922" y2="17.478" gradientTransform="matrix(0.9247229,0,0,1.0872097,-5.0600562,-1.0023583)" gradientUnits="userSpaceOnUse" xlink:href="#StandardGradient"/><linearGradient id="linearGradient2403" x1="11.999" x2="11.999" y1=".922" y2="17.478" gradientTransform="matrix(0.9247229,0,0,1.0872097,-4.0600562,-3.0023583)" gradientUnits="userSpaceOnUse" xlink:href="#StandardGradient"/><linearGradient id="linearGradient2406" x1="11.999" x2="11.999" y1=".922" y2="17.478" gradientTransform="matrix(0.9247229,0,0,1.0872097,-4.0600562,-3.0023583)" gradientUnits="userSpaceOnUse" xlink:href="#StandardGradient"/><linearGradient id="linearGradient2409" x1="11.999" x2="11.999" y1="3.68" y2="15.639" gradientTransform="matrix(0.9247229,0,0,1.0872097,-6.0600562,-2.0023583)" gradientUnits="userSpaceOnUse" xlink:href="#StandardGradient"/><linearGradient id="linearGradient2416" x1="11.999" x2="11.999" y1="2.762" y2="15.639" gradientTransform="matrix(0.9247229,0,0,1.0872097,-6.0600562,-2.0023583)" gradientUnits="userSpaceOnUse" xlink:href="#StandardGradient"/><linearGradient id="linearGradient3634" x1="11.999" x2="11.999" y1="2.762" y2="15.639" gradientTransform="matrix(0.9247229,0,0,1.0872097,-26.060056,-2.0023583)" gradientUnits="userSpaceOnUse" xlink:href="#StandardGradient"/><clipPath id="clipPath3641" clipPathUnits="userSpaceOnUse"><path id="path3643" fill="#f0f" fill-opacity="1" stroke="none" d="m -20,0 0,16 16,0 0,-16 -16,0 z m 3,1 3,0 c 0.554,0 1,0.446 1,1 l 6,0 c 0.554,0 1,0.446 1,1 l -12,0 0,-1 c 0,-0.554 0.446,-1 1,-1 z m -0.5,3 11,0 C -5.669,4 -5,4.669 -5,5.5 l 0,6 c 0,0.831 -0.669,1.5 -1.5,1.5 l -5.5,0 0,-3 -2,0 0,-2 -4,0 0,2 -1,0 0,-4.5 C -19,4.669 -18.331,4 -17.5,4 z m 0.5,5 2,0 0,2 2,0 0,2 -2,0 0,2 -2,0 0,-2 -2,0 0,-2 2,0 0,-2 z" display="inline"/></clipPath><linearGradient id="linearGradient2855" x1="11.999" x2="11.999" y1="2.762" y2="15.639" gradientTransform="matrix(0.9247229,0,0,1.0872097,-6.0600562,-3.0023583)" gradientUnits="userSpaceOnUse" xlink:href="#StandardGradient"/><linearGradient id="linearGradient2882" x1="11.999" x2="11.999" y1="3.681" y2="15.639" gradientTransform="matrix(0.9247229,0,0,1.0872097,-6.0600562,-3.0023583)" gradientUnits="userSpaceOnUse" xlink:href="#StandardGradient"/><linearGradient id="linearGradient2888" x1="11.999" x2="11.999" y1="3.681" y2="15.639" gradientTransform="matrix(0.9247229,0,0,1.0872097,-6.0600562,-2.0023583)" gradientUnits="userSpaceOnUse" xlink:href="#StandardGradient"/><linearGradient id="linearGradient2890" x1="11.999" x2="11.999" y1="3.681" y2="15.639" gradientTransform="matrix(0.9247229,0,0,1.0872097,-6.0600562,-3.0023583)" gradientUnits="userSpaceOnUse" xlink:href="#StandardGradient"/><linearGradient id="linearGradient3667" x1="11.999" x2="11.999" y1="3.681" y2="15.639" gradientTransform="matrix(0.9247229,0,0,1.0872097,-6.0600562,-2.0023583)" gradientUnits="userSpaceOnUse" xlink:href="#StandardGradient"/><linearGradient id="linearGradient3671" x1="11.999" x2="11.999" y1="3.681" y2="15.639" gradientTransform="matrix(0.9247229,0,0,1.0872097,-6.0600562,-3.0023583)" gradientUnits="userSpaceOnUse" xlink:href="#StandardGradient"/><linearGradient id="linearGradient3680" x1="11.999" x2="11.999" y1="3.681" y2="15.639" gradientTransform="matrix(0.9247229,0,0,1.0872097,-26.060056,-2.0023583)" gradientUnits="userSpaceOnUse" xlink:href="#StandardGradient"/><clipPath id="clipPath3685" clipPathUnits="userSpaceOnUse"><path id="path3687" fill="#f0f" fill-opacity="1" stroke="none" d="m -20,0 0,16 16,0 0,-16 -16,0 z m 2,2 12,0 c 0.554,0 1,0.446 1,1 l 0,9 c 0,0.554 -0.446,1 -1,1 l -6,0 0,-2 4,0 -2.5,-2.5 -1.5,1.5 -5,-5 0,3 -1,0 0,2 -1,0 0,-7 c 0,-0.554 0.446,-1 1,-1 z m 2,2 4,4 4,-4 -8,0 z M -7,5 -9.5,7.5 -7,10 -7,5 z m -10,4 2,0 0,2 2,0 0,2 -2,0 0,2 -2,0 0,-2 -2,0 0,-2 2,0 0,-2 z" display="inline"/></clipPath><linearGradient id="linearGradient2863" x1="11.999" x2="11.999" y1="3.681" y2="15.639" gradientTransform="matrix(0.9247229,0,0,1.0872097,-26.060056,-3.0023583)" gradientUnits="userSpaceOnUse" xlink:href="#StandardGradient"/><clipPath id="clipPath2870" clipPathUnits="userSpaceOnUse"><path id="path2872" fill="#f0f" fill-opacity="1" stroke="none" d="m -20,0 0,16 16,0 0,-16 -16,0 z m 2,1 12,0 c 0.554,0 1,0.446 1,1 l 0,9 c 0,0.554 -0.446,1 -1,1 l -6,0 0,-2 4,0 -2.5,-2.5 -1.5,1.5 -5,-5 0,3 -1,0 0,2 -1,0 0,-7 c 0,-0.554 0.446,-1 1,-1 z m 2,2 4,4 4,-4 -8,0 z M -7,4 -9.5,6.5 -7,9 -7,4 z m -10,4 2,0 0,2 2,0 0,2 -2,0 0,2 -2,0 0,-2 -2,0 0,-2 2,0 0,-2 z" display="inline"/></clipPath><linearGradient id="linearGradient3660" x1="7.483" x2="7.483" y1=".483" y2="15.009" gradientTransform="translate(0,1)" gradientUnits="userSpaceOnUse" xlink:href="#StandardGradient"/><linearGradient id="linearGradient3662" x1="7.483" x2="7.483" y1=".483" y2="15.009" gradientUnits="userSpaceOnUse" xlink:href="#StandardGradient"/><linearGradient id="linearGradient3668" x1="7.483" x2="7.483" y1=".483" y2="15.009" gradientTransform="translate(0,1)" gradientUnits="userSpaceOnUse" xlink:href="#StandardGradient"/><linearGradient id="linearGradient3672" x1="7.483" x2="7.483" y1=".483" y2="15.009" gradientUnits="userSpaceOnUse" xlink:href="#StandardGradient"/><linearGradient id="linearGradient3677" x1="7.483" x2="7.483" y1=".483" y2="15.009" gradientTransform="translate(-20,0)" gradientUnits="userSpaceOnUse" xlink:href="#StandardGradient"/><clipPath id="clipPath3686" clipPathUnits="userSpaceOnUse"><path id="path3688" fill="#f0f" fill-opacity="1" stroke="none" d="m -20,0 0,16 16,0 0,-16 -16,0 z m 9,1 4,0 0,4 2,0 -4,4 -4,-4 2,0 0,-4 z m -4,6 4,4 -2,0 0,4 -4,0 0,-4 -2,0 4,-4 z" display="inline"/></clipPath><linearGradient id="linearGradient5060" x1="7.483" x2="7.483" y1=".483" y2="15.009" gradientUnits="userSpaceOnUse" xlink:href="#StandardGradient"/><linearGradient id="linearGradient5064" x1="7.483" x2="7.483" y1=".483" y2="15.009" gradientUnits="userSpaceOnUse" xlink:href="#StandardGradient"/></defs><metadata id="metadata7"/><g id="layer1" display="inline"><path id="path3710" fill="#bebebe" fill-opacity="1" stroke="none" d="M 9 1 L 9 5 L 7 5 L 11 9 L 15 5 L 13 5 L 13 1 L 9 1 z M 5 7 L 1 11 L 3 11 L 3 15 L 7 15 L 7 11 L 9 11 L 5 7 z" display="inline"/></g></svg>