<svg xmlns="http://www.w3.org/2000/svg" xmlns:svg="http://www.w3.org/2000/svg" id="svg7384" width="16" height="16" version="1.1"><metadata id="metadata90"/><title id="title9167">Gnome Symbolic Icon Theme</title><g id="layer12" display="inline" transform="translate(-360.00021,-786)"><path id="path9296" fill="#bebebe" fill-opacity="1" stroke="none" d="m 361.0002,786 0,2 c 0.55228,0 1,0.44772 1,1 0,0.55228 -0.44772,1 -1,1 l 0,1 c 0.55229,0 1,0.44772 1,1 0,0.55228 -0.44771,1 -1,1 l 0,1 c 0.55228,0 1,0.44772 1,1 0,0.55228 -0.44772,1 -1,1 l 0,1 c 0.55228,0 1,0.44772 1,1 0,0.55228 -0.44772,1 -1,1 l 0,2 2,0 c 0,-0.55228 0.44772,-1 1,-1 0.55228,0 1,0.44772 1,1 l 1,0 c 0,-0.55228 0.44772,-1 1,-1 0.55228,0 1,0.44772 1,1 l 1,0 c 0,-0.55228 0.44772,-1 1,-1 0.55229,0 1,0.44772 1,1 l 1,0 c 0,-0.55228 0.44771,-1 1,-1 0.55229,0 1,0.44772 1,1 l 2,0 0,-2 c -0.55229,0 -1,-0.44772 -1,-1 0,-0.55228 0.44771,-1 1,-1 l 0,-1 c -0.55229,0 -1,-0.44772 -1,-1 0,-0.55228 0.44771,-1 1,-1 l 0,-1 c -0.55229,0 -1,-0.44772 -1,-1 0,-0.55228 0.44771,-1 1,-1 l 0,-1 c -0.55229,0 -1,-0.44772 -1,-1 0,-0.55228 0.44771,-1 1,-1 l 0,-2 -2,0 c 0,0.55228 -0.44771,1 -1,1 -0.55229,0 -1,-0.44772 -1,-1 l -1,0 c 0,0.55228 -0.44771,1 -1,1 -0.55228,0 -1,-0.44772 -1,-1 l -1,0 c 0,0.55228 -0.44772,1 -1,1 -0.55228,0 -1,-0.44772 -1,-1 l -1,0 c 0,0.55228 -0.44772,1 -1,1 -0.55228,0 -1,-0.44772 -1,-1 l -2,0 z m 2,2 11,0 0,11 -2,0 0,-2.0625 c 0,-1.0667 -0.77865,-1.98042 -1.71875,-2.25 -0.49379,0.47964 -1.07039,0.6875 -1.78125,0.6875 -0.71086,0 -1.28746,-0.20786 -1.78125,-0.6875 -0.77657,0.27945 -1.71772,0.97676 -1.71875,2.21875 l 0,2.09375 -2,0 0,-11 z"/><path style="marker:none" id="path9298" fill="#bebebe" fill-opacity="1" fill-rule="nonzero" stroke="none" stroke-width="2" d="m 52,342.5 a 2.5,2.5 0 1 1 -5,0 2.5,2.5 0 1 1 5,0 z" color="#bebebe" display="inline" enable-background="accumulate" overflow="visible" transform="matrix(0.92307481,0,0,0.92307481,322.80799,476.15456)" visibility="visible"/></g></svg>