<svg xmlns="http://www.w3.org/2000/svg" xmlns:svg="http://www.w3.org/2000/svg" id="svg7384" width="16" height="16" version="1.1"><metadata id="metadata90"/><title id="title9167">Gnome Symbolic Icon Theme</title><g id="layer12" transform="translate(-60.000202,-606)"><g id="g3940" display="inline" transform="translate(39.99995,119)"><path id="path3807-1-1-4-7-2" fill="#bebebe" fill-opacity="1" fill-rule="nonzero" stroke="none" stroke-width="2" d="m 34.00005,491 c -0.177384,0.008 -0.351174,0.0592 -0.5,0.15625 l -5,3 c -0.282396,0.17971 -0.4375,0.51173 -0.4375,0.84375 0,0.33202 0.155104,0.66404 0.4375,0.84375 l 5,3 c 0.148826,0.097 0.322616,0.14825 0.5,0.15625 l 0.15625,0 0.84375,0 0,-8 -0.84375,0 z" color="#000" direction="ltr" display="inline" enable-background="accumulate" font-family="Bitstream Vera Sans" font-size="medium" font-stretch="normal" font-style="normal" font-variant="normal" font-weight="normal" letter-spacing="normal" overflow="visible" text-anchor="start" text-decoration="none" visibility="visible" word-spacing="normal" writing-mode="lr-tb" style="text-indent:0;text-align:start;line-height:normal;text-transform:none;block-progression:tb;marker:none;-inkscape-font-specification:Bitstream Vera Sans"/><path id="path3807-1-1-4-7-2-0" fill="#bebebe" fill-opacity="1" fill-rule="nonzero" stroke="none" stroke-width="2" d="m 27.00005,491 c -0.177384,0.008 -0.351174,0.0592 -0.5,0.15625 l -5,3 c -0.282396,0.17971 -0.4375,0.51173 -0.4375,0.84375 0,0.33202 0.155104,0.66404 0.4375,0.84375 l 5,3 c 0.148826,0.097 0.322616,0.14825 0.5,0.15625 l 0.15625,0 0.84375,0 0,-8 -0.84375,0 z" color="#000" direction="ltr" display="inline" enable-background="accumulate" font-family="Bitstream Vera Sans" font-size="medium" font-stretch="normal" font-style="normal" font-variant="normal" font-weight="normal" letter-spacing="normal" overflow="visible" text-anchor="start" text-decoration="none" visibility="visible" word-spacing="normal" writing-mode="lr-tb" style="text-indent:0;text-align:start;line-height:normal;text-transform:none;block-progression:tb;marker:none;-inkscape-font-specification:Bitstream Vera Sans"/></g></g></svg>