<svg xmlns="http://www.w3.org/2000/svg" xmlns:svg="http://www.w3.org/2000/svg" id="svg7384" width="16" height="16" version="1.1"><metadata id="metadata90"/><title id="title9167">Gnome Symbolic Icon Theme</title><g id="layer12" display="inline" transform="translate(-281.00015,-667)"><g id="object-rotate-left_16" transform="translate(281.00015,63.637815)"><g id="g6206" display="inline" transform="translate(-0.00201706,602.36489)"><g id="layer1-12" display="inline"><path id="path2839" fill="#bebebe" fill-opacity="1" stroke="none" d="M 8,1 4,4 8,7 8,5.03125 C 9.3799006,5.03372 10.729146,5.7189679 11.46875,7 12.573319,8.9131705 11.91317,11.36418 10,12.46875 8.0868295,13.573319 5.63582,12.91317 4.53125,11 L 2.8125,12 C 4.469354,14.869756 8.1302447,15.844354 11,14.1875 12.972957,13.048413 14.055263,10.97154 14,8.84375 13.97488,7.8765729 13.705267,6.8967987 13.1875,6 12.077089,4.0767117 10.071823,3.0017616 8,3 L 8,1 Z M 8,7.5 C 7.1715728,7.5 6.5,8.1715729 6.5,9 6.5,9.8284271 7.1715728,10.5 8,10.5 8.8284272,10.5 9.5,9.8284271 9.5,9 9.5,8.1715729 8.8284272,7.5 8,7.5 Z" display="inline"/></g></g></g></g></svg>