<svg xmlns="http://www.w3.org/2000/svg" xmlns:svg="http://www.w3.org/2000/svg" id="svg7384" width="16" height="16" version="1.1"><metadata id="metadata90"/><title id="title9167">Gnome Symbolic Icon Theme</title><g id="layer12" display="inline" transform="translate(-181.0002,-747)"><g id="g2996" transform="matrix(0,0.75119209,-0.75119209,0,755.91624,612.80636)"><path id="path8393" fill="#bebebe" fill-opacity="1" stroke="none" stroke-width="2" d="m 183.78125,751 a 1.0001,1.0001 0 0 0 -0.5,1.71875 l 5,5 0.71875,0.6875 0.71875,-0.6875 5,-5 a 1.016466,1.016466 0 1 0 -1.4375,-1.4375 L 189,755.5625 184.71875,751.28125 A 1.0001,1.0001 0 0 0 183.78125,751 z" baseline-shift="baseline" color="#000" direction="ltr" display="inline" enable-background="accumulate" font-family="Sans" font-size="medium" font-stretch="normal" font-style="normal" font-variant="normal" font-weight="normal" letter-spacing="normal" overflow="visible" text-anchor="start" text-decoration="none" visibility="visible" word-spacing="normal" writing-mode="lr-tb" style="text-indent:0;text-align:start;line-height:normal;text-transform:none;block-progression:tb;marker:none;-inkscape-font-specification:Sans"/><rect id="rect8399" width="1" height="1" x="-752" y="-195" fill="#bebebe" fill-opacity="1" stroke="none" rx="0" ry="1" transform="matrix(0,-1,-1,0,0,0)"/><rect id="rect8403" width="1" height="1" x="-752" y="-184" fill="#bebebe" fill-opacity="1" stroke="none" rx="0" ry="1" transform="matrix(0,-1,-1,0,0,0)"/></g></g></svg>