<svg xmlns="http://www.w3.org/2000/svg" xmlns:svg="http://www.w3.org/2000/svg" id="svg7384" width="16" height="16" version="1.1"><metadata id="metadata90"/><title id="title9167">Gnome Symbolic Icon Theme</title><g id="layer12" display="inline" transform="translate(-321.0002,-827)"><path d="m 329.0002,827.6875 c -1.00052,-0.004 -1.56313,3.54025 -2.375,4.125 -0.81155,0.58452 -4.34351,-0.0125 -4.65625,0.9375 -0.31286,0.95036 2.88225,2.57842 3.1875,3.53125 0.30513,0.95245 -1.3381,4.12776 -0.53125,4.71875 0.80717,0.59122 3.34323,-1.94163 4.34375,-1.9375 1.00013,0.004 3.5011,2.58473 4.3125,2 0.81172,-0.58496 -0.81311,-3.79972 -0.5,-4.75 0.31298,-0.9499 3.52413,-2.54763 3.21875,-3.5 -0.3055,-0.95275 -3.84924,-0.37732 -4.65625,-0.96875 -0.8067,-0.5912 -1.34362,-4.15238 -2.34375,-4.15625 z m -1,4.3125 2,0 0,2 2,0 0,2 -2,0 0,2 -2,0 0,-2 -2,0 0,-2 2,0 z" style="marker:none" id="path11922-4" fill="#bebebe" fill-opacity="1" fill-rule="nonzero" stroke="none" stroke-width="2" color="#000" display="inline" enable-background="accumulate" overflow="visible" visibility="visible"/></g></svg>