<svg xmlns="http://www.w3.org/2000/svg" xmlns:svg="http://www.w3.org/2000/svg" xmlns:xlink="http://www.w3.org/1999/xlink" id="svg2" width="16" height="16" display="inline" version="1.0"><defs id="defs4"><linearGradient id="linearGradient4081"><stop id="stop4083" offset="0" stop-color="#aaa" stop-opacity="1"/><stop id="stop4085" offset="1" stop-color="#f0f0f0" stop-opacity="1"/></linearGradient><linearGradient id="linearGradient3527" x1="6.839" x2="6.839" y1="16.3" y2="6.053" gradientTransform="translate(-39,0)" gradientUnits="userSpaceOnUse" xlink:href="#linearGradient4081"/><linearGradient id="linearGradient3538" x1="16.5" x2="16.5" y1="19.543" y2="2.5" gradientTransform="translate(-39,0)" gradientUnits="userSpaceOnUse" xlink:href="#linearGradient4081"/><linearGradient id="linearGradient3540" x1="14.525" x2="14.525" y1="17.419" y2="4.625" gradientTransform="translate(-39,0)" gradientUnits="userSpaceOnUse" xlink:href="#linearGradient4081"/><linearGradient id="linearGradient3542" x1="10.505" x2="10.505" y1="15.281" y2="6.746" gradientTransform="translate(-39,0)" gradientUnits="userSpaceOnUse" xlink:href="#linearGradient4081"/><linearGradient id="linearGradient3266" x1="9" x2="14" y1="4.5" y2="4.5" gradientTransform="matrix(0,-1,1,0,6,16)" gradientUnits="userSpaceOnUse" xlink:href="#linearGradient4081"/><linearGradient id="linearGradient3274" x1="11.984" x2="11.984" y1="20" y2="7.969" gradientUnits="userSpaceOnUse" xlink:href="#linearGradient4081"/><linearGradient id="linearGradient3280" x1="9" x2="14" y1="4.5" y2="4.5" gradientTransform="matrix(0,-1,1,0,7,16)" gradientUnits="userSpaceOnUse" xlink:href="#linearGradient4081"/><linearGradient id="linearGradient3287" x1="9" x2="14" y1="4.5" y2="4.5" gradientTransform="matrix(0,-1,1,0,7,16)" gradientUnits="userSpaceOnUse" xlink:href="#linearGradient4081"/><linearGradient id="linearGradient3293" x1="11.984" x2="11.984" y1="20" y2="7.969" gradientTransform="translate(-1,0)" gradientUnits="userSpaceOnUse" xlink:href="#linearGradient4081"/><linearGradient id="linearGradient3180" x1="-13" x2="-13" y1="17.009" y2="-.7" gradientUnits="userSpaceOnUse" xlink:href="#linearGradient4081"/><linearGradient id="linearGradient3833-8" x1="54" x2="59" y1="3.5" y2="3.5" gradientTransform="translate(-58,53.861161)" gradientUnits="userSpaceOnUse" xlink:href="#StandardGradient-1"/><linearGradient id="StandardGradient-1" x1="10.71" x2="10.71" y1="1.996" y2="18.974" gradientTransform="matrix(0.9984539,0,0,0.9984539,-0.0459776,0.05767558)" gradientUnits="userSpaceOnUse"><stop id="stop3277-4" offset="0" stop-color="#000" stop-opacity=".863"/><stop id="stop3279-3" offset="1" stop-color="#000" stop-opacity=".471"/></linearGradient><linearGradient id="linearGradient3829-0" x1="54" x2="59" y1="3.5" y2="3.5" gradientTransform="translate(-50,53.861161)" gradientUnits="userSpaceOnUse" xlink:href="#SpecificGradient-5"/><linearGradient id="SpecificGradient-5" x1="10.762" x2="10.762" y1="4" y2="18.011" gradientUnits="userSpaceOnUse"><stop id="stop3292-8" offset="0" stop-color="#a50000" stop-opacity="1"/><stop id="stop3294-0" offset="1" stop-color="#e73800" stop-opacity="1"/></linearGradient><linearGradient id="linearGradient3664" x1="5" x2="5" y1="1" y2="14" gradientTransform="translate(0,1)" gradientUnits="userSpaceOnUse" xlink:href="#StandardGradient-1"/><linearGradient id="linearGradient3668" x1="5" x2="5" y1="1" y2="14" gradientTransform="translate(0.8611607,0.9999999)" gradientUnits="userSpaceOnUse" xlink:href="#StandardGradient-1"/><linearGradient id="linearGradient3673" x1="5" x2="5" y1="1" y2="14" gradientTransform="translate(-29.138839,0.9999999)" gradientUnits="userSpaceOnUse" xlink:href="#StandardGradient-1"/><clipPath id="clipPath3679" clipPathUnits="userSpaceOnUse"><path id="path3681" fill="#f0f" fill-opacity="1" stroke="none" d="m -29.138839,0.9999999 0,16.0000001 16,0 0,-16.0000001 -16,0 z m 7.5,1 1,0 c 0.277,0 0.5,0.223 0.5,0.5 l 0,5 c 0,0.2770001 -0.223,0.5 -0.5,0.5 l -1,0 c -0.277,1e-7 -0.5,-0.223 -0.5,-0.5 l 0,-5 c 0,-0.277 0.223,-0.5 0.5,-0.5 z m -1.5,1.34375 0,2.21875 c -1.193787,0.6923393 -2,1.9590539 -2,3.4375 0,2.2080001 1.792,4.0000001 4,4.0000001 2.208,0 4,-1.792 4,-4.0000001 0,-1.4784459 -0.806213,-2.7451607 -2,-3.4375 l 0,-2.21875 c 2.330779,0.8236389 4,3.0446 4,5.65625 0,3.3120001 -2.688,6.0000001 -6,6.0000001 -3.312,0 -6,-2.688 -6,-6.0000001 0,-2.61165 1.669221,-4.8326111 4,-5.65625 z" display="inline"/></clipPath><linearGradient id="linearGradient3961" x1="5" x2="5" y1="1" y2="14" gradientUnits="userSpaceOnUse" xlink:href="#StandardGradient-1"/><linearGradient id="linearGradient3965" x1="5" x2="5" y1="1" y2="14" gradientUnits="userSpaceOnUse" xlink:href="#StandardGradient-1"/></defs><metadata id="metadata7"/><g id="layer1" display="inline" transform="translate(-0.8611607,-0.9999999)"><path id="path2401" fill="#bebebe" fill-opacity="1" fill-rule="nonzero" stroke="none" stroke-dasharray="none" stroke-dashoffset="0" stroke-linecap="square" stroke-linejoin="round" stroke-miterlimit="4" stroke-opacity="1" stroke-width="2" d="M 7.5 1 C 7.223 1 7.0000001 1.223 7 1.5 L 7 6.5 C 7 6.777 7.2230001 7.0000001 7.5 7 L 8.5 7 C 8.777 7 9.0000001 6.7770001 9 6.5 L 9 1.5 C 9 1.223 8.7770001 0.99999998 8.5 1 L 7.5 1 z M 6 2.34375 C 3.6692215 3.1673889 2 5.38835 2 8 C 2 11.312 4.6880002 14 8 14 C 11.312 14 14 11.312 14 8 C 14 5.38835 12.330779 3.1673889 10 2.34375 L 10 4.5625 C 11.193787 5.2548393 12 6.5215541 12 8 C 12 10.208 10.208 12 8 12 C 5.7920001 12 4 10.208 4 8 C 4 6.5215539 4.8062133 5.2548393 6 4.5625 L 6 2.34375 z" opacity="1" transform="translate(0.8611607,0.9999999)"/></g></svg>