<svg xmlns="http://www.w3.org/2000/svg" xmlns:svg="http://www.w3.org/2000/svg" xmlns:xlink="http://www.w3.org/1999/xlink" id="svg2" width="16" height="16" version="1.0"><defs id="defs4"><linearGradient id="StandardGradient" x1="11.347" x2="11.347" y1="6" y2="16.013" gradientTransform="translate(-3,-2.9995677)" gradientUnits="userSpaceOnUse"><stop id="stop3177" offset="0" stop-color="#000" stop-opacity=".863"/><stop id="stop3179" offset="1" stop-color="#000" stop-opacity=".471"/></linearGradient><linearGradient id="linearGradient2409" x1="11.347" x2="11.347" y1="4.995" y2="17.001" gradientTransform="translate(-3,-2.9995677)" gradientUnits="userSpaceOnUse" xlink:href="#StandardGradient"/><linearGradient id="linearGradient3206" x1="11.347" x2="11.347" y1="4.995" y2="17.001" gradientTransform="translate(0,-1.0312503)" gradientUnits="userSpaceOnUse" xlink:href="#StandardGradient"/><linearGradient id="linearGradient3667" x1="9" x2="9" y1="0" y2="16.031" gradientTransform="translate(3,3.9995677)" gradientUnits="userSpaceOnUse" xlink:href="#StandardGradient"/><linearGradient id="linearGradient3669" x1="9" x2="9" y1="0" y2="16.031" gradientUnits="userSpaceOnUse" xlink:href="#StandardGradient"/><linearGradient id="linearGradient3674" x1="9" x2="9" y1="0" y2="16.031" gradientTransform="translate(-17,2.9995677)" gradientUnits="userSpaceOnUse" xlink:href="#StandardGradient"/><linearGradient id="linearGradient3678" x1="9" x2="9" y1="0" y2="16.031" gradientTransform="translate(0,1)" gradientUnits="userSpaceOnUse" xlink:href="#StandardGradient"/><linearGradient id="linearGradient3682" x1="9" x2="9" y1="0" y2="16.031" gradientTransform="translate(3,2.9995677)" gradientUnits="userSpaceOnUse" xlink:href="#StandardGradient"/><clipPath id="clipPath3698" clipPathUnits="userSpaceOnUse"><path id="path3700" fill="#f0f" fill-opacity="1" stroke="none" d="m -17,2.9995677 0,8.0000003 3,-3.0000003 0,6.0000003 -3,-3 0,8 8,0 -3,-3 6,0 -3,3 8,0 0,-8 -3,3 0,-6.0000003 3,3.0000003 0,-8.0000003 -8,0 3,3 -6,0 3,-3 -8,0 z m 4.5,4 7,0 c 0.277,0 0.5,0.223 0.5,0.5 l 0,7.0000003 c 0,0.277 -0.223,0.5 -0.5,0.5 l -7,0 c -0.277,0 -0.5,-0.223 -0.5,-0.5 l 0,-7.0000003 c 0,-0.277 0.223,-0.5 0.5,-0.5 z m 1.5,1 0,1 1,0 0,-1 -1,0 z m 2,0 0,1 1,0 0,-1 -1,0 z m 2,0 0,1 1,0 0,-1 -1,0 z m -4,2 0,3.0000003 4,0 0,-3.0000003 -4,0 z" display="inline"/></clipPath><linearGradient id="linearGradient4518" x1="9" x2="9" y1="0" y2="16.031" gradientUnits="userSpaceOnUse" xlink:href="#StandardGradient"/><linearGradient id="linearGradient4522" x1="9" x2="9" y1="0" y2="16.031" gradientUnits="userSpaceOnUse" xlink:href="#StandardGradient"/><radialGradient id="radialGradient3834" cx="9" cy="10.192" r="7" fx="9" fy="10.192" gradientTransform="matrix(1.5714286,2.2066772e-8,-1.604856e-8,1.1428571,-5.142857,-1.6483515)" gradientUnits="userSpaceOnUse" xlink:href="#StandardGradient-7"/><linearGradient id="StandardGradient-7" x1="11.999" x2="11.999" y1=".922" y2="19.387" gradientTransform="scale(0.9219544,1.0846523)" gradientUnits="userSpaceOnUse"><stop id="stop3283" offset="0" stop-color="#000" stop-opacity=".235"/><stop id="stop2651" offset="1" stop-color="#000" stop-opacity=".549"/></linearGradient></defs><metadata id="metadata7"/><g id="layer3" display="inline" transform="translate(-3,-2.9995677)"><path d="m 12,3.9995677 2,2 -2,2 2,2 2,-2 2,2 0,-6 z m -6.5,6 c -0.831,0 -1.5,0.6690003 -1.5,1.5000003 l 0,6.5 8,0 0,-6.5 c 0,-0.831 -0.669,-1.5000003 -1.5,-1.5000003 z m 4.5,1.0000003 1,0 0,1 -1,0 z m -4,2 4,0 0,3 -4,0 z" style="marker:none" id="path3832" fill="#bebebe" fill-opacity="1" fill-rule="nonzero" stroke="none" stroke-width=".8" color="#000" display="inline" enable-background="accumulate" overflow="visible" visibility="visible"/></g></svg>