<svg xmlns="http://www.w3.org/2000/svg" xmlns:svg="http://www.w3.org/2000/svg" xmlns:xlink="http://www.w3.org/1999/xlink" id="svg2" width="16" height="16" version="1.0"><defs id="defs4"><linearGradient id="StandardGradient" x1="9.075" x2="9.075" y1="2.216" y2="13.952" gradientTransform="scale(1.0784122,0.9272892)" gradientUnits="userSpaceOnUse"><stop id="stop3280" offset="0" stop-color="#000" stop-opacity=".863"/><stop id="stop3282" offset="1" stop-color="#000" stop-opacity=".471"/></linearGradient><linearGradient id="linearGradient3625" x1="9.075" x2="9.075" y1="2.216" y2="13.952" gradientTransform="matrix(1.0784122,0,0,0.9272892,-20,0)" gradientUnits="userSpaceOnUse" xlink:href="#StandardGradient"/><clipPath id="clipPath3632" clipPathUnits="userSpaceOnUse"><path id="path3634" fill="#f0f" fill-opacity="1" stroke="none" d="m -20,0 0,16 16,0 0,-16 -16,0 z m 8.09375,2.0625 c 0.173909,-0.017258 0.321577,0 0.5,0 2.967459,0 5.375001,2.4264215 5.375,5.4375 0,2.864578 -2.17034,5.215497 -4.9375,5.4375 l 0,-1.84375 C -9.191791,10.880677 -7.8125,9.3611571 -7.8125,7.5 c 0,-2.0073863 -1.615444,-3.624999 -3.59375,-3.625 -1.86764,0 -3.365967,1.4304651 -3.53125,3.28125 l 1.875,0 -2.90625,4.09375 -2.71875,-4.09375 1.9375,0 c 0.162577,-2.6743762 2.235116,-4.834874 4.84375,-5.09375 z" display="inline"/></clipPath><linearGradient id="linearGradient3999" x1="9.075" x2="9.075" y1="2.216" y2="13.952" gradientTransform="scale(1.0784122,0.9272892)" gradientUnits="userSpaceOnUse" xlink:href="#StandardGradient"/><linearGradient id="linearGradient4003" x1="9.075" x2="9.075" y1="2.216" y2="13.952" gradientTransform="scale(1.0784122,0.9272892)" gradientUnits="userSpaceOnUse" xlink:href="#StandardGradient"/></defs><metadata id="metadata7"/><g id="layer3" display="inline"><path id="Symbol" fill="#bebebe" fill-opacity="1" stroke="none" d="M 7.9794075,1.0271227 C 4.8737018,1.3353271 2.4062439,3.9075048 2.2126878,7.0914796 l -2.3066878,0 3.2368039,4.8738084 3.4600318,-4.8738084 -2.2322786,0 C 4.5673345,4.8880303 6.3511657,3.1849921 8.5746818,3.1849921 c 2.3552692,1.2e-6 4.2785342,1.9258477 4.2785342,4.3157386 0,2.2157979 -1.642113,4.0248603 -3.7576692,4.2785343 l 0,2.195074 C 12.389985,13.710033 14.97388,10.91115 14.97388,7.5007307 c 1e-6,-3.5848353 -2.866294,-6.473608 -6.3991982,-6.473608 -0.2124206,0 -0.3882273,-0.020547 -0.5952743,0 z"/></g></svg>