<svg xmlns="http://www.w3.org/2000/svg" xmlns:svg="http://www.w3.org/2000/svg" id="svg7384" width="16" height="16" version="1.1"><metadata id="metadata90"/><title id="title9167">Gnome Symbolic Icon Theme</title><g id="layer12" display="inline" transform="translate(-161,-866.99988)"><path id="rect7352-7-94" fill="#bebebe" fill-opacity="1" stroke="none" stroke-width="2" d="m 162,867 0,1 0,11 0,1 1,0 10,0 1,0 0,-1 0,-11 0,-1 -1,0 -10,0 -1,0 z m 2,2 8,0 0,9 -8,0 0,-9 z" baseline-shift="baseline" color="#bebebe" direction="ltr" display="inline" enable-background="accumulate" font-family="Sans" font-size="medium" font-stretch="normal" font-style="normal" font-variant="normal" font-weight="normal" letter-spacing="normal" overflow="visible" text-anchor="start" text-decoration="none" visibility="visible" word-spacing="normal" writing-mode="lr-tb" style="text-indent:0;text-align:start;line-height:normal;text-transform:none;block-progression:tb;marker:none;-inkscape-font-specification:Sans"/><path id="rect7352-7-9-6" fill="#bebebe" fill-opacity="1" stroke="none" stroke-width="2" d="m 175.0002,869.99988 0,11 -10,0 0,2 12,0 0,-13 z" baseline-shift="baseline" color="#bebebe" direction="ltr" display="inline" enable-background="accumulate" font-family="Sans" font-size="medium" font-stretch="normal" font-style="normal" font-variant="normal" font-weight="normal" letter-spacing="normal" overflow="visible" text-anchor="start" text-decoration="none" visibility="visible" word-spacing="normal" writing-mode="lr-tb" style="text-indent:0;text-align:start;line-height:normal;text-transform:none;block-progression:tb;marker:none;-inkscape-font-specification:Sans"/><rect id="rect42942-5-3-1-4-0-0" width="4" height="2" x="-170" y="871" fill="#bebebe" fill-opacity="1" stroke="none" stroke-width="1" color="#bebebe" display="inline" opacity=".35" overflow="visible" rx=".375" ry=".375" transform="scale(-1,1)" visibility="visible" style="marker:none"/><rect id="rect42944-7-5-3-5-1-5-0-8-7" width="4" height="2" x="-170" y="874" fill="#bebebe" fill-opacity="1" stroke="none" stroke-width="1" color="#bebebe" display="inline" opacity=".35" overflow="visible" rx=".375" ry=".375" transform="scale(-1,1)" visibility="visible" style="marker:none"/></g></svg>