<svg xmlns="http://www.w3.org/2000/svg" xmlns:svg="http://www.w3.org/2000/svg" id="svg2" width="16" height="16" display="inline" version="1.0"><metadata id="metadata7"/><g id="layer1" display="inline" transform="translate(0,-6)"><rect id="rect2999" width="7" height="10" x="24" y="10" fill="#4e9a06" fill-opacity="1" fill-rule="nonzero" stroke="none" stroke-width="1.5" color="#000" display="inline" enable-background="accumulate" overflow="visible" rx=".5" visibility="visible" style="marker:none"/><path id="path3775" fill="#bebebe" fill-opacity="1" stroke="none" d="m -18,20.75 c 0,0.6925 0.5575,1.25 1.25,1.25 l 8.5,0 C -7.5575,22 -7,21.4425 -7,20.75 L -7,9.25 C -7,8.5575 -7.5575,8 -8.25,8 L -10,8 -10,7 -10,6.5 C -10,6.223 -10.223,6 -10.5,6 l -0.5,0 -3,0 -0.5,0 C -14.777,6 -15,6.223 -15,6.5 l 0,0.5 0,1 -1.75,0 C -17.4425,8 -18,8.5575 -18,9.25 l 0,11.5 z m 2,-1.5 0,-8.5 c 0,-0.4155 0.3345,-0.75 0.75,-0.75 l 5.5,0 c 0.4155,0 0.75,0.3345 0.75,0.75 l 0,8.5 C -9,19.6655 -9.3345,20 -9.75,20 l -5.5,0 C -15.6655,20 -16,19.6655 -16,19.25 z" display="inline"/><rect id="rect3011" width="7" height="10" x="-16" y="10" fill="#bebebe" fill-opacity="1" fill-rule="nonzero" stroke="none" stroke-width="1.5" color="#000" display="inline" enable-background="accumulate" opacity=".45" overflow="visible" rx=".5" visibility="visible" style="marker:none"/><path id="path3000" fill="#ececec" fill-opacity="1" fill-rule="nonzero" stroke="none" stroke-width="8" d="M 6.5,7 C 6.223,7 6,7.223 6,7.5 L 6,8 4,8 C 3.446,8 3,8.446 3,9 l 0,11 c 0,0.554 0.446,1 1,1 l 8,0 c 0.554,0 1,-0.446 1,-1 L 13,9 C 13,8.446 12.554,8 12,8 L 10,8 10,7.5 C 10,7.223 9.777,7 9.5,7 z" color="#000" display="inline" enable-background="accumulate" opacity=".4" overflow="visible" visibility="visible" style="marker:none"/><path id="rect3771" fill="#bebebe" fill-opacity="1" fill-rule="nonzero" stroke="none" stroke-width="8" d="M 7,30 11,36 8.5415237,36 9,40 5,34 7.5036033,34 z" color="#000" display="inline" enable-background="accumulate" overflow="visible" visibility="visible" style="marker:none"/><path id="path3002" fill="#ececec" fill-opacity="1" fill-rule="nonzero" stroke="none" stroke-width="8" d="m 3,14 0,6 c 0,0.554 0.446,1 1,1 l 8,0 c 0.554,0 1,-0.446 1,-1 l 0,-6 z" color="#000" display="inline" enable-background="accumulate" overflow="visible" visibility="visible" style="marker:none"/></g></svg>