<svg xmlns="http://www.w3.org/2000/svg" xmlns:svg="http://www.w3.org/2000/svg" id="svg7384" width="16" height="16.001" version="1.1"><metadata id="metadata90"/><title id="title9167">Gnome Symbolic Icon Theme</title><defs id="defs7386"><clipPath id="clipPath6810-7-87" clipPathUnits="userSpaceOnUse"><rect id="rect6812-2-4" width="14" height="11" x="21" y="281" fill="none" stroke="#fff" stroke-dasharray="none" stroke-dashoffset="0" stroke-linecap="round" stroke-linejoin="round" stroke-miterlimit="4" stroke-opacity="1" stroke-width="2" color="#bebebe" display="inline" overflow="visible" visibility="visible" style="marker:none"/></clipPath></defs><g id="layer9" display="inline" transform="translate(-141,-197)"><path id="path8179" fill="#ececec" fill-opacity="1" stroke="none" stroke-width="1.278" d="m 154.0002,198 c -1.10457,0 -2,0.89543 -2,2 0,1.10457 0.89543,2 2,2 1.10457,0 2,-0.89543 2,-2 0,-1.10457 -0.89543,-2 -2,-2 z m 0,1 c 0.55228,0 1,0.44771 1,1 0,0.55228 -0.44772,1 -1,1 -0.55229,0 -1,-0.44772 -1,-1 0,-0.55229 0.44771,-1 1,-1 z" color="#000" display="inline" enable-background="accumulate" opacity=".5" overflow="visible" visibility="visible" style="marker:none"/><rect id="rect12259" width="5" height="10" x="144" y="198" fill="#ececec" fill-opacity="1" fill-rule="nonzero" stroke="none" stroke-width="2" color="#bebebe" display="inline" overflow="visible" rx="2.5" ry="2.5" visibility="visible" style="marker:none"/><path font-size="medium" style="text-indent:0;text-align:start;line-height:normal;text-transform:none;block-progression:tb;marker:none;-inkscape-font-specification:Sans" id="rect12261" fill="#ececec" fill-opacity="1" stroke="none" stroke-width="1.003" d="m 27.96875,273.625 c -2.502477,0 -4.53125,2.02877 -4.53125,4.53125 l 0,5.8125 c 0,2.50248 2.028773,4.53125 4.53125,4.53125 2.502477,0 4.53125,-2.02877 4.53125,-4.53125 l 0,-5.8125 c 0,-2.50248 -2.028773,-4.53125 -4.53125,-4.53125 z m 0,1 c 1.964148,0 3.53125,1.5671 3.53125,3.53125 l 0,5.8125 c 0,1.96415 -1.567102,3.53125 -3.53125,3.53125 -1.964148,0 -3.53125,-1.5671 -3.53125,-3.53125 l 0,-5.8125 c 0,-1.96415 1.567102,-3.53125 3.53125,-3.53125 z" baseline-shift="baseline" clip-path="url(#clipPath6810-7-87)" color="#bebebe" direction="ltr" display="inline" enable-background="accumulate" font-family="Sans" font-stretch="normal" font-style="normal" font-variant="normal" font-weight="normal" letter-spacing="normal" overflow="visible" text-anchor="start" text-decoration="none" transform="matrix(0.993968,0,0,1,118.7069,-78.486135)" visibility="visible" word-spacing="normal" writing-mode="lr-tb"/><path id="path12263" fill="#ececec" fill-opacity="1" stroke="none" stroke-width="2" d="m 24,361 a 1,1 0 0 1 -1,1 1,1 0 0 1 -1,-1 1,1 0 0 1 1,-1 1,1 0 0 1 1,1 z" color="#bebebe" display="inline" overflow="visible" transform="matrix(0.5,0,0,0.5,131,22)" visibility="visible" style="marker:none"/><path id="path12265" fill="#ececec" fill-opacity="1" stroke="none" stroke-width="2" d="m 24,361 a 1,1 0 0 1 -1,1 1,1 0 0 1 -1,-1 1,1 0 0 1 1,-1 1,1 0 0 1 1,1 z" color="#bebebe" display="inline" overflow="visible" transform="matrix(0.5,0,0,0.5,139,22)" visibility="visible" style="marker:none"/><path id="path12267" fill="#ececec" fill-opacity="1" stroke="none" stroke-width="2" d="M 142.90625,211 A 1.001098,1.001098 0 1 0 143,213 l 7,0 a 1.0001,1.0001 0 1 0 0,-2 l -7,0 a 1.0001,1.0001 0 0 0 -0.0937,0 z" baseline-shift="baseline" color="#bebebe" direction="ltr" display="inline" enable-background="accumulate" font-family="Sans" font-size="medium" font-stretch="normal" font-style="normal" font-variant="normal" font-weight="normal" letter-spacing="normal" overflow="visible" text-anchor="start" text-decoration="none" visibility="visible" word-spacing="normal" writing-mode="lr-tb" style="text-indent:0;text-align:start;line-height:normal;text-transform:none;block-progression:tb;marker:none;-inkscape-font-specification:Sans"/><rect id="rect12269" width="9" height="1" x="142" y="212" fill="#ececec" fill-opacity="1" stroke="none" stroke-width="1" color="#bebebe" display="inline" overflow="visible" visibility="visible" style="marker:none"/><rect id="rect12271" width="3" height="4" x="145" y="209" fill="#ececec" fill-opacity="1" stroke="none" stroke-width="1" color="#bebebe" display="inline" overflow="visible" visibility="visible" style="marker:none"/><path id="path12275" fill="#ececec" fill-opacity="1" stroke="none" stroke-width="1.278" d="M -186.0625,184.0625 A 1.9375,1.9375 0 0 1 -188,186 a 1.9375,1.9375 0 0 1 -1.9375,-1.9375 1.9375,1.9375 0 0 1 1.9375,-1.9375 1.9375,1.9375 0 0 1 1.9375,1.9375 z" color="#000" display="inline" enable-background="accumulate" overflow="visible" transform="matrix(1.0322581,0,0,1.0322551,348.06472,20.000543)" visibility="visible" style="marker:none"/><path id="path8174" fill="#ececec" fill-opacity="1" stroke="none" stroke-width="1.278" d="m 154.0002,203 c -1.10457,0 -2,0.89543 -2,2 0,1.10457 0.89543,2 2,2 1.10457,0 2,-0.89543 2,-2 0,-1.10457 -0.89543,-2 -2,-2 z m 0,1 c 0.55228,0 1,0.44771 1,1 0,0.55228 -0.44772,1 -1,1 -0.55228,0 -1,-0.44772 -1,-1 0,-0.55229 0.44772,-1 1,-1 z" color="#000" display="inline" enable-background="accumulate" opacity=".5" overflow="visible" visibility="visible" style="marker:none"/></g></svg>