<svg xmlns="http://www.w3.org/2000/svg" xmlns:svg="http://www.w3.org/2000/svg" id="svg4149" width="16" height="16" version="1.1" viewBox="0 0 16 16"><metadata id="metadata4154"/><g id="layer1" transform="translate(0,-1036.3622)"><path id="rect4699" fill="#ececec" fill-opacity="1" stroke="none" stroke-dasharray="none" stroke-dashoffset="0" stroke-linecap="butt" stroke-linejoin="round" stroke-miterlimit="4" stroke-opacity="1" stroke-width="2" d="M 3,2 C 1.892,2 1,2.8919904 1,4 l 0,7 c 0,1.10801 0.892,2 2,2 l 1,0 1,1 6,0 1,-1 1,0 c 1.108,0 2,-0.89199 2,-2 L 15,4 C 15,2.8919904 14.108,2 13,2 Z m 0,2 10,0 0,7 -2,0 -1,1 -4,0 -1,-1 -2,0 z" opacity=".4" transform="translate(0,1036.3622)"/></g></svg>