<svg xmlns="http://www.w3.org/2000/svg" xmlns:svg="http://www.w3.org/2000/svg" id="svg4149" width="16" height="16" version="1.1" viewBox="0 0 16 16"><metadata id="metadata4154"/><g id="layer1" transform="translate(0,-1036.3622)"><path id="rect4699" fill="#ececec" fill-opacity="1" stroke="none" stroke-dasharray="none" stroke-dashoffset="0" stroke-linecap="butt" stroke-linejoin="round" stroke-miterlimit="4" stroke-opacity="1" stroke-width="2" d="M 3 2 C 1.892 2 1 2.8919904 1 4 L 1 11 C 1 12.10801 1.892 13 3 13 L 4 13 L 5 14 L 8.2636719 14 A 4.5 4.5 0 0 1 8 12.5 A 4.5 4.5 0 0 1 8.03125 12 L 6 12 L 5 11 L 3 11 L 3 4 L 13 4 L 13 8.03125 A 4.5 4.5 0 0 1 15 8.7597656 L 15 4 C 15 2.8919904 14.108 2 13 2 L 3 2 z" opacity="1" transform="translate(0,1036.3622)"/><path id="path16215" fill="#ef2929" fill-opacity="1" fill-rule="nonzero" stroke="none" stroke-width="1.909" d="m 12.5,1045.3622 c -1.93299,0 -3.5,1.567 -3.5,3.5 0,1.933 1.56701,3.5 3.5,3.5 1.93299,0 3.5,-1.567 3.5,-3.5 0,-1.933 -1.56701,-3.5 -3.5,-3.5 z m -2.5,2.9688 5,0 0,1.0312 -5,0 0,-1.0312 z" class="error" color="#bebebe" display="inline" enable-background="accumulate" overflow="visible" visibility="visible" style="marker:none"/></g></svg>