<svg xmlns="http://www.w3.org/2000/svg" xmlns:svg="http://www.w3.org/2000/svg" id="svg7384" width="16" height="16" version="1.1"><metadata id="metadata90"/><title id="title9167">Gnome Symbolic Icon Theme</title><g id="layer9" display="inline" transform="translate(-141.0002,-257)"><path d="m 141.02205,266 0,3 0,3 1,0 2,0 0,-3 -2,0 0,-3 -1,0 z" style="marker:none" id="rect4162" fill="#ececec" fill-opacity="1" fill-rule="nonzero" stroke="none" stroke-width="3" color="#bebebe" display="inline" opacity=".35" overflow="visible" visibility="visible"/><path d="m 152.99995,257.0221 0,7 2,0 0,5 -2,0 0,3 3,0 0,-3 0,-5 0,-1 0,-6 -3,0 z" style="marker:none" id="rect4162-9" fill="#ececec" fill-opacity="1" fill-rule="nonzero" stroke="none" stroke-width="3" color="#bebebe" display="inline" opacity=".35" overflow="visible" visibility="visible"/><path d="m 144.99995,269 0,3 3,0 0,-3 -3,0 z" style="marker:none" id="rect4162-92" fill="#ececec" fill-opacity="1" fill-rule="nonzero" stroke="none" stroke-width="3" color="#bebebe" display="inline" opacity=".35" overflow="visible" visibility="visible"/><path d="m 148.99995,269 0,3 3,0 0,-3 -3,0 z" style="marker:none" id="rect4162-92-3" fill="#ececec" fill-opacity="1" fill-rule="nonzero" stroke="none" stroke-width="3" color="#bebebe" display="inline" opacity=".35" overflow="visible" visibility="visible"/><path d="m 144.99995,263 0,1 3,0 0,-1 -3,0 z" style="marker:none" id="rect4162-92-5" fill="#ececec" fill-opacity="1" fill-rule="nonzero" stroke="none" stroke-width="3" color="#bebebe" display="inline" opacity=".35" overflow="visible" visibility="visible"/><path d="m 148.99995,260 0,4 3,0 0,-4 -3,0 z" style="marker:none" id="rect4162-92-3-0" fill="#ececec" fill-opacity="1" fill-rule="nonzero" stroke="none" stroke-width="3" color="#bebebe" display="inline" opacity=".35" overflow="visible" visibility="visible"/><path id="path4955-3" fill="#ececec" fill-opacity="1" stroke="none" d="m 29,209 a 1,1 0 0 1 -1,1 1,1 0 0 1 -1,-1 1,1 0 0 1 1,-1 1,1 0 0 1 1,1 z" display="inline" transform="matrix(1.5,0,0,1.5,102.5,-46.999999)"/><path id="path4957-3" fill="#ececec" fill-opacity="1" stroke="none" d="m 29,209 a 1,1 0 0 1 -1,1 1,1 0 0 1 -1,-1 1,1 0 0 1 1,-1 1,1 0 0 1 1,1 z" display="inline" transform="matrix(1.5,0,0,1.5,106.5,-46.999999)"/><path id="path4959-7" fill="#ececec" fill-opacity="1" stroke="none" d="m 29,209 a 1,1 0 0 1 -1,1 1,1 0 0 1 -1,-1 1,1 0 0 1 1,-1 1,1 0 0 1 1,1 z" display="inline" transform="matrix(1.5,0,0,1.5,110.49995,-46.999999)"/></g></svg>