<svg xmlns="http://www.w3.org/2000/svg" xmlns:svg="http://www.w3.org/2000/svg" id="svg6530" width="16" height="16" version="1.1" viewBox="0 0 16 16"><metadata id="metadata6535"/><g id="layer1" transform="translate(-56.000227,-868.36054)"><rect id="rect11033" width="2" height="7.003" x="63" y="869.361" fill="#5394e2" fill-opacity="1" stroke="none" color="#bebebe" rx="1" ry="1"/><path display="inline" style="line-height:normal;text-indent:0;text-align:start;text-decoration-line:none;text-decoration-style:solid;text-decoration-color:#000;text-transform:none;block-progression:tb;white-space:normal;isolation:auto;mix-blend-mode:normal;solid-color:#000;solid-opacity:1" id="path11035" fill="#5394e2" fill-opacity="1" fill-rule="nonzero" stroke="none" stroke-dasharray="none" stroke-dashoffset="0" stroke-linecap="round" stroke-linejoin="round" stroke-miterlimit="4" stroke-opacity="1" stroke-width="2" d="m 66.939453,871.35156 a 1.0001,1.0001 0 0 0 -0.542969,1.8086 c 1.377865,1.03068 1.941042,2.81632 1.404297,4.45117 -0.536744,1.63485 -2.048879,2.73855 -3.769531,2.75195 -1.720652,0.0134 -3.250363,-1.06707 -3.8125,-2.69336 -0.562137,-1.62629 -0.02571,-3.41868 1.335938,-4.4707 a 1.0004892,1.0004892 0 1 0 -1.222657,-1.58399 c -2.034984,1.57224 -2.842067,4.27849 -2.001953,6.70899 0.840114,2.43049 3.145281,4.05908 5.716797,4.03906 2.571516,-0.02 4.852131,-1.68367 5.654297,-4.12695 0.802165,-2.44328 -0.0482,-5.13738 -2.107422,-6.67774 a 1.0001,1.0001 0 0 0 -0.654297,-0.20703 z" baseline-shift="baseline" clip-rule="nonzero" color="#000" color-interpolation="sRGB" color-interpolation-filters="linearRGB" color-rendering="auto" direction="ltr" enable-background="accumulate" font-family="sans-serif" font-size="medium" font-stretch="normal" font-style="normal" font-variant="normal" font-weight="normal" image-rendering="auto" letter-spacing="normal" opacity="1" overflow="visible" shape-rendering="auto" text-anchor="start" text-decoration="none" text-rendering="auto" visibility="visible" word-spacing="normal" writing-mode="lr-tb"/></g></svg>