<svg xmlns="http://www.w3.org/2000/svg" xmlns:svg="http://www.w3.org/2000/svg" id="svg2" width="16" height="16" version="1.0"><metadata id="metadata7"/><g id="layer3" display="inline" transform="translate(-0.4642613,-2.999982)"><path id="path2994" fill="#ececec" fill-opacity="1" stroke="none" d="M 8 2 C 4.1340071 2 1 4.4101491 1 8 C 1 11.589851 4.1340071 14 8 14 C 9.064957 14 10.065093 13.770035 10.96875 13.375 L 15 15 L 13.5625 11.4375 C 14.465672 10.342799 15 9.485565 15 8 C 15 4.4101491 11.865993 2 8 2 z M 5 7 C 5.5522847 7 6 7.4477153 6 8 C 6 8.5522847 5.5522847 9 5 9 C 4.4477153 9 4 8.5522847 4 8 C 4 7.4477153 4.4477153 7 5 7 z M 8 7 C 8.5522847 7 9 7.4477153 9 8 C 9 8.5522847 8.5522847 9 8 9 C 7.4477153 9 7 8.5522847 7 8 C 7 7.4477153 7.4477153 7 8 7 z M 11 7 C 11.552285 7 12 7.4477153 12 8 C 12 8.5522847 11.552285 9 11 9 C 10.447715 9 10 8.5522847 10 8 C 10 7.4477153 10.447715 7 11 7 z" display="inline" opacity="1" transform="translate(0.4642613,2.999982)"/></g></svg>