<svg xmlns="http://www.w3.org/2000/svg" xmlns:svg="http://www.w3.org/2000/svg" id="svg2" width="16" height="16" version="1.0"><metadata id="metadata7"/><g id="layer1"><path id="path3094" fill="#ececec" fill-opacity="1" fill-rule="nonzero" stroke="none" stroke-width="2" d="M 7,6 A 3,3 0 1 1 1,6 3,3 0 1 1 7,6 z" color="#000" display="inline" enable-background="accumulate" overflow="visible" transform="translate(-12,-20)" visibility="visible" style="marker:none"/><path id="path3096" fill="#ececec" fill-opacity="1" fill-rule="nonzero" stroke="none" stroke-width="2" d="M 7,6 A 3,3 0 1 1 1,6 3,3 0 1 1 7,6 z" color="#000" display="inline" enable-background="accumulate" overflow="visible" transform="matrix(1.5,0,0,1.5,-18.5,-24.5)" visibility="visible" style="marker:none"/><rect id="rect3100" width="5" height="4" x="-13" y="-15" fill="#ececec" fill-opacity="1" fill-rule="nonzero" stroke="none" stroke-width="2" color="#000" display="inline" enable-background="accumulate" overflow="visible" visibility="visible" style="marker:none"/><path id="path3126" fill="#ececec" fill-opacity="1" fill-rule="nonzero" stroke="none" stroke-width="2" d="M 7.5 0 C 5.164201 0 3.253781 1.7851525 3.03125 4.0625 C 1.877066 4.2838766 1 5.2812563 1 6.5 C 1 7.8807119 2.119288 9 3.5 9 L 4.71875 9 L 5.03125 7.75 A 0.99228672 0.99228672 0 0 1 5.90625 7 A 0.99228672 0.99228672 0 0 1 6 7 L 9 7 A 0.99228672 0.99228672 0 0 1 9.875 8.4375 L 9.59375 9 L 10.09375 9 L 11.5 9 C 13.432997 9 15 7.4329967 15 5.5 C 15 3.5670033 13.432997 2 11.5 2 C 11.415681 2 11.332827 2.0253863 11.25 2.03125 C 10.446562 0.80268909 9.077518 0 7.5 0 z" color="#000" display="inline" enable-background="accumulate" overflow="visible" visibility="visible" style="marker:none"/><path id="path3134" fill="#ececec" fill-opacity="1" stroke="none" d="m 6,8 -1,4 2,0 -1,4 4,-6 -2,0 1,-2 z"/></g></svg>