<svg xmlns="http://www.w3.org/2000/svg" xmlns:svg="http://www.w3.org/2000/svg" id="svg2" width="16" height="16" version="1.0"><metadata id="metadata7"/><g id="layer1"><path id="path3085" fill="#ececec" fill-opacity="1" fill-rule="nonzero" stroke="none" stroke-width="2" d="M 5.84375 0 L 5.59375 2.84375 C 6.1875807 2.5692995 6.8485023 2.4029842 7.5 2.34375 L 5.84375 0 z M 12.15625 0.8125 L 9.9375 2.65625 C 10.252247 2.7695953 10.543847 2.8893504 10.84375 3.0625 C 11.143654 3.2356496 11.400716 3.4403442 11.65625 3.65625 L 12.15625 0.8125 z M 8 3 C 5.2385763 3 3 5.2385763 3 8 C 3 8.6454829 3.1522857 9.2460661 3.375 9.8125 C 3.6229232 9.0577561 4.0128009 8.3565783 4.53125 7.78125 C 4.644786 5.950746 6.1408961 4.5 8 4.5 C 9.5394937 4.5 10.812773 5.4938227 11.28125 6.875 C 11.293288 6.8830847 11.300523 6.8980746 11.3125 6.90625 C 11.778671 7.2244605 12.195337 7.6033489 12.5625 8.03125 C 12.714282 8.0336001 12.851991 8.0454122 13 8.0625 C 13.00027 8.0410745 13 8.0214897 13 8 C 13 5.2385763 10.761424 3 8 3 z M 0.8125 3.84375 L 2.65625 6.0625 C 2.7695953 5.7477534 2.8893504 5.4561539 3.0625 5.15625 C 3.2356496 4.856346 3.4403442 4.5992833 3.65625 4.34375 L 0.8125 3.84375 z M 13.15625 5.59375 C 13.430701 6.1875805 13.597015 6.8485021 13.65625 7.5 L 16 5.84375 L 13.15625 5.59375 z M 2.34375 8.5 L 0 10.15625 L 2.84375 10.40625 C 2.5692996 9.8124193 2.4029845 9.1514974 2.34375 8.5 z" color="#000" display="inline" enable-background="accumulate" overflow="visible" visibility="visible" style="marker:none"/><path id="path3110" fill="#ececec" fill-opacity="1" fill-rule="nonzero" stroke="none" stroke-width="2" d="M 8.5,7 C 6.164201,7 4.253781,8.785153 4.03125,11.0625 2.877066,11.283877 2,12.281256 2,13.5 2,14.880712 3.119288,16 4.5,16 l 4,0 4,0 C 14.432997,16 16,14.432997 16,12.5 16,10.567003 14.432997,9 12.5,9 12.41568,9 12.332827,9.025386 12.25,9.03125 11.446562,7.802689 10.077518,7 8.5,7 z" color="#000" display="inline" enable-background="accumulate" overflow="visible" visibility="visible" style="marker:none"/></g></svg>