<svg xmlns="http://www.w3.org/2000/svg" xmlns:svg="http://www.w3.org/2000/svg" id="svg2" width="16" height="16" version="1.0"><metadata id="metadata7"/><g id="layer1"><path id="rect2988" fill="#ff9000" fill-opacity="1" fill-rule="nonzero" stroke="none" stroke-width="1" d="M 9,8.0000001 9,12 11,12 11,8.0000001 z M 9,13 l 0,2 2,0 0,-2 z" class="warning" color="#000" display="inline" enable-background="accumulate" overflow="visible" visibility="visible" style="marker:none"/><path id="path3901" fill="#ececec" fill-opacity="1" fill-rule="nonzero" stroke="none" stroke-width="2" d="M 7.5 1 C 5.164201 1 3.253781 2.785153 3.03125 5.0625 C 1.877066 5.283877 1 6.281256 1 7.5 C 1 8.880712 2.119288 10 3.5 10 L 7.5 10 L 8 10 L 8 8 A 1.0045151 1.0045151 0 0 1 8.90625 7 A 1.0045151 1.0045151 0 0 1 9 7 L 11 7 A 1.0045151 1.0045151 0 0 1 12 8 L 12 9.96875 C 13.699001 9.728659 15 8.2652651 15 6.5 C 15 4.567003 13.432997 3 11.5 3 C 11.41568 3 11.332827 3.02539 11.25 3.03125 C 10.446562 1.802689 9.077518 1 7.5 1 z" color="#000" display="inline" enable-background="accumulate" overflow="visible" visibility="visible" style="marker:none"/></g></svg>